<svg width="116" height="80" viewBox="0 0 116 80" fill="none" xmlns="http://www.w3.org/2000/svg">
<path d="M75.831 52.2724L52.2294 11.2546L69.1848 1.51562L98.5334 52.2724H75.831Z" fill="#383838"/>
<path d="M12.9664 46.5255L29.9219 36.7207L38.8932 52.2723H16.2566L12.9664 46.5255Z" fill="#383838"/>
<path d="M46.2413 78.4398H51.0669V58.918H46.2413V78.4398Z" fill="#383838"/>
<path d="M106.715 78.9006C101.319 78.9006 98.0727 76.1149 97.8972 72.1886H102.986C102.986 73.4169 103.754 75.2155 107.044 75.2813C109.237 75.2813 110.268 73.9872 110.268 73.0221C110.137 71.4866 108.206 71.355 106.145 71.026C104.083 70.697 102.328 70.3241 101.056 69.6661C99.4326 68.8325 98.3359 67.0339 98.3359 64.9721C98.3359 61.4844 101.363 58.7207 106.408 58.7207C111.299 58.7207 114.392 61.287 114.721 65.1037H109.808C109.764 64.0727 109.566 62.4496 106.671 62.4496C104.719 62.4496 103.425 62.8444 103.315 64.2044C103.315 66.2004 107.373 66.0688 110.532 66.9023C113.559 67.67 115.489 69.5564 115.489 72.1886C115.489 77.0361 111.562 78.9006 106.715 78.9006Z" fill="#383838"/>
<path d="M32.8392 29.109L49.7947 19.3262L68.812 52.272H51.0669V57.0976H46.2413V52.25L32.8392 29.109Z" fill="#383838"/>
<path d="M33.278 78.9001C27.6627 78.9001 23.1003 74.3158 23.1003 68.7663C23.1003 63.1511 27.6627 58.7203 33.278 58.7203C35.4057 58.7203 37.3359 59.2906 39.0249 60.4531V52.2715H43.8505V78.4395H39.0249V77.1454C37.3359 78.2421 35.4057 78.9001 33.278 78.9001ZM27.7285 68.7663C27.7285 71.7933 30.3168 74.3158 33.4096 74.3158C36.4366 74.3158 39.0249 71.7933 39.0249 68.7663C39.0249 65.7393 36.4366 63.1511 33.4096 63.1511C30.3168 63.1511 27.7285 65.7393 27.7285 68.7663Z" fill="#383838"/>
<path d="M68.9436 52.2715H73.7034V78.4395H68.9436V77.1454C67.3204 78.2421 65.3244 78.9001 63.1309 78.9001C57.5814 78.9001 53.019 74.3158 53.019 68.7663C53.019 63.1511 57.5814 58.7203 63.1309 58.7203C65.3244 58.7203 67.2546 59.2906 68.9436 60.4531V52.2715ZM57.7131 68.7663C57.7131 71.7933 60.3013 74.3158 63.2625 74.3158C66.3553 74.3158 68.9436 71.7933 68.9436 68.7663C68.9436 65.7393 66.3553 63.1511 63.2625 63.1511C60.3013 63.1511 57.7131 65.7393 57.7131 68.7663Z" fill="#383838"/>
<path d="M85.4385 78.9006C79.911 78.9006 75.3267 74.3162 75.3267 68.7668C75.3267 63.1515 79.911 58.7207 85.4385 58.7207C87.5662 58.7207 89.5622 59.291 91.1854 60.4535V58.8962H96.011V78.4399H91.1854V77.1458C89.5622 78.2425 87.632 78.9006 85.4385 78.9006ZM80.0207 68.7668C80.0207 71.7937 82.609 74.3162 85.6359 74.3162C88.6629 74.3162 91.1854 71.7937 91.1854 68.7668C91.1854 65.7398 88.6629 63.1515 85.6359 63.1515C82.609 63.1515 80.0207 65.7398 80.0207 68.7668Z" fill="#383838"/>
<path d="M5.3551 68.7668C5.3551 71.7937 7.94338 74.3162 10.9704 74.3162C14.0631 74.3162 16.6514 71.7937 16.6514 68.7668C16.6514 65.7398 14.0631 63.1515 10.9704 63.1515C7.94338 63.1515 5.3551 65.7398 5.3551 68.7668ZM10.8388 78.9006C5.28929 78.9006 0.704956 74.3162 0.704956 68.7668C0.704956 63.1515 5.28929 58.7207 10.8388 58.7207C12.9664 58.7207 14.9625 59.291 16.6514 60.4535V58.8962H21.4112V78.4399H16.6514V77.1458C15.0283 78.2425 13.0322 78.9006 10.8388 78.9006Z" fill="#383838"/>
</svg>
