<svg width="117" height="81" viewBox="0 0 117 81" fill="none" xmlns="http://www.w3.org/2000/svg">
<path d="M76.331 52.7724L52.7294 11.7546L69.6848 2.01562L99.0334 52.7724H76.331Z" fill="#B0B0B0"/>
<path d="M13.4664 47.0255L30.4219 37.2207L39.3932 52.7723H16.7566L13.4664 47.0255Z" fill="#B0B0B0"/>
<path d="M46.7413 78.9398H51.5669V59.418H46.7413V78.9398Z" fill="#B0B0B0"/>
<path d="M107.215 79.4006C101.819 79.4006 98.5727 76.6149 98.3972 72.6886H103.486C103.486 73.9169 104.254 75.7155 107.544 75.7813C109.737 75.7813 110.768 74.4872 110.768 73.5221C110.637 71.9866 108.706 71.855 106.645 71.526C104.583 71.197 102.828 70.8241 101.556 70.1661C99.9326 69.3325 98.8359 67.5339 98.8359 65.4721C98.8359 61.9844 101.863 59.2207 106.908 59.2207C111.799 59.2207 114.892 61.787 115.221 65.6037H110.308C110.264 64.5727 110.066 62.9496 107.171 62.9496C105.219 62.9496 103.925 63.3444 103.815 64.7044C103.815 66.7004 107.873 66.5688 111.032 67.4023C114.059 68.17 115.989 70.0564 115.989 72.6886C115.989 77.5361 112.062 79.4006 107.215 79.4006Z" fill="#B0B0B0"/>
<path d="M33.3392 29.609L50.2947 19.8262L69.312 52.772H51.5669V57.5976H46.7413V52.75L33.3392 29.609Z" fill="#B0B0B0"/>
<path d="M33.778 79.4001C28.1627 79.4001 23.6003 74.8158 23.6003 69.2663C23.6003 63.6511 28.1627 59.2203 33.778 59.2203C35.9057 59.2203 37.8359 59.7906 39.5249 60.9531V52.7715H44.3505V78.9395H39.5249V77.6454C37.8359 78.7421 35.9057 79.4001 33.778 79.4001ZM28.2285 69.2663C28.2285 72.2933 30.8168 74.8158 33.9096 74.8158C36.9366 74.8158 39.5249 72.2933 39.5249 69.2663C39.5249 66.2393 36.9366 63.6511 33.9096 63.6511C30.8168 63.6511 28.2285 66.2393 28.2285 69.2663Z" fill="#B0B0B0"/>
<path d="M69.4436 52.7715H74.2034V78.9395H69.4436V77.6454C67.8204 78.7421 65.8244 79.4001 63.6309 79.4001C58.0814 79.4001 53.519 74.8158 53.519 69.2663C53.519 63.6511 58.0814 59.2203 63.6309 59.2203C65.8244 59.2203 67.7546 59.7906 69.4436 60.9531V52.7715ZM58.2131 69.2663C58.2131 72.2933 60.8013 74.8158 63.7625 74.8158C66.8553 74.8158 69.4436 72.2933 69.4436 69.2663C69.4436 66.2393 66.8553 63.6511 63.7625 63.6511C60.8013 63.6511 58.2131 66.2393 58.2131 69.2663Z" fill="#B0B0B0"/>
<path d="M85.9385 79.4006C80.411 79.4006 75.8267 74.8162 75.8267 69.2668C75.8267 63.6515 80.411 59.2207 85.9385 59.2207C88.0662 59.2207 90.0622 59.791 91.6854 60.9535V59.3962H96.511V78.9399H91.6854V77.6458C90.0622 78.7425 88.132 79.4006 85.9385 79.4006ZM80.5207 69.2668C80.5207 72.2937 83.109 74.8162 86.1359 74.8162C89.1629 74.8162 91.6854 72.2937 91.6854 69.2668C91.6854 66.2398 89.1629 63.6515 86.1359 63.6515C83.109 63.6515 80.5207 66.2398 80.5207 69.2668Z" fill="#B0B0B0"/>
<path d="M5.8551 69.2668C5.8551 72.2937 8.44338 74.8162 11.4704 74.8162C14.5631 74.8162 17.1514 72.2937 17.1514 69.2668C17.1514 66.2398 14.5631 63.6515 11.4704 63.6515C8.44338 63.6515 5.8551 66.2398 5.8551 69.2668ZM11.3388 79.4006C5.78929 79.4006 1.20496 74.8162 1.20496 69.2668C1.20496 63.6515 5.78929 59.2207 11.3388 59.2207C13.4664 59.2207 15.4625 59.791 17.1514 60.9535V59.3962H21.9112V78.9399H17.1514V77.6458C15.5283 78.7425 13.5322 79.4006 11.3388 79.4006Z" fill="#B0B0B0"/>
</svg>
