<svg width="160" height="58" viewBox="0 0 160 58" fill="none" xmlns="http://www.w3.org/2000/svg">
<g clip-path="url(#clip0_228_65131)">
<path d="M131.389 0.842773C125.011 0.842773 119.089 2.93187 114.26 6.47427C109.43 2.93187 103.508 0.842773 97.1297 0.842773C90.7516 0.842773 84.829 2.93187 79.9999 6.47427C75.1707 2.93187 69.3393 0.842773 62.87 0.842773C56.4919 0.842773 50.5693 2.93187 45.7402 6.47427C41.0022 2.93187 35.0796 0.842773 28.6103 0.842773C12.8472 0.842773 -0.00012207 13.4682 -0.00012207 29.0001C-0.00012207 44.5321 12.8472 57.1575 28.6103 57.1575C34.9885 57.1575 40.911 55.0684 45.7402 51.526C50.5693 55.0684 56.4919 57.1575 62.87 57.1575C69.2482 57.1575 75.1707 55.0684 79.9999 51.526C84.7379 55.0684 90.6605 57.1575 97.1297 57.1575C103.508 57.1575 109.43 55.0684 114.26 51.526C118.998 55.0684 124.92 57.1575 131.389 57.1575C147.152 57.1575 160 44.5321 160 29.0001C160 13.4682 147.152 0.842773 131.389 0.842773ZM114.26 43.533C110.797 39.6273 108.701 34.5408 108.701 29.0001C108.701 23.4595 110.797 18.373 114.26 14.4673C117.722 18.373 119.818 23.4595 119.818 29.0001C119.818 34.5408 117.722 39.6273 114.26 43.533ZM79.9999 43.533C76.5375 39.6273 74.4418 34.5408 74.4418 29.0001C74.4418 23.4595 76.5375 18.373 79.9999 14.4673C83.4623 18.373 85.558 23.4595 85.558 29.0001C85.558 34.5408 83.4623 39.6273 79.9999 43.533ZM45.7402 43.533C42.2778 39.6273 40.1821 34.5408 40.1821 29.0001C40.1821 23.4595 42.2778 18.373 45.7402 14.4673C49.2026 18.373 51.2983 23.4595 51.2983 29.0001C51.3895 34.5408 49.2026 39.6273 45.7402 43.533ZM5.92242 29.0001C5.92242 16.7381 16.1274 6.74673 28.6103 6.74673C33.2573 6.74673 37.6309 8.1092 41.2755 10.5616C36.9019 15.4664 34.2595 21.9154 34.2595 29.0001C34.2595 36.0849 36.9019 42.5338 41.2755 47.4387C37.6309 49.8003 33.3484 51.2535 28.6103 51.2535C16.1274 51.2535 5.92242 41.2622 5.92242 29.0001ZM50.2049 47.4387C54.5785 42.5338 57.2208 36.0849 57.2208 29.0001C57.2208 21.9154 54.5785 15.4664 50.2049 10.5616C53.8495 8.20001 58.132 6.74673 62.87 6.74673C67.6081 6.74673 71.8905 8.1092 75.5352 10.5616C71.1616 15.4664 68.4281 21.9154 68.4281 29.0001C68.4281 36.0849 71.0705 42.5338 75.5352 47.4387C71.8905 49.8003 67.6081 51.2535 62.87 51.2535C58.2231 51.2535 53.8495 49.8003 50.2049 47.4387ZM84.4646 47.4387C88.8381 42.5338 91.5716 36.0849 91.5716 29.0001C91.5716 21.9154 88.9293 15.4664 84.4646 10.5616C88.1092 8.20001 92.3917 6.74673 97.1297 6.74673C101.868 6.74673 106.15 8.1092 109.795 10.5616C105.421 15.4664 102.688 21.9154 102.688 29.0001C102.688 36.0849 105.33 42.5338 109.795 47.4387C106.15 49.8003 101.868 51.2535 97.1297 51.2535C92.3917 51.2535 88.1092 49.8003 84.4646 47.4387ZM131.389 51.2535C126.742 51.2535 122.369 49.8911 118.724 47.4387C123.098 42.5338 125.831 36.0849 125.831 29.0001C125.831 21.9154 123.189 15.4664 118.724 10.5616C122.369 8.20001 126.651 6.74673 131.389 6.74673C143.872 6.74673 154.077 16.7381 154.077 29.0001C154.077 41.2622 143.872 51.2535 131.389 51.2535Z" fill="#383838"/>
</g>
<defs>
<clipPath id="clip0_228_65131">
<rect width="160" height="56.3147" fill="white" transform="translate(0 0.842773)"/>
</clipPath>
</defs>
</svg>
