<svg width="161" height="57" viewBox="0 0 161 57" fill="none" xmlns="http://www.w3.org/2000/svg">
<g clip-path="url(#clip0_228_65471)">
<path d="M131.889 0.342773C125.511 0.342773 119.589 2.43187 114.76 5.97427C109.93 2.43187 104.008 0.342773 97.6297 0.342773C91.2516 0.342773 85.329 2.43187 80.4999 5.97427C75.6707 2.43187 69.8393 0.342773 63.37 0.342773C56.9919 0.342773 51.0693 2.43187 46.2402 5.97427C41.5022 2.43187 35.5796 0.342773 29.1103 0.342773C13.3472 0.342773 0.499878 12.9682 0.499878 28.5001C0.499878 44.0321 13.3472 56.6575 29.1103 56.6575C35.4885 56.6575 41.411 54.5684 46.2402 51.026C51.0693 54.5684 56.9919 56.6575 63.37 56.6575C69.7482 56.6575 75.6707 54.5684 80.4999 51.026C85.2379 54.5684 91.1605 56.6575 97.6297 56.6575C104.008 56.6575 109.93 54.5684 114.76 51.026C119.498 54.5684 125.42 56.6575 131.889 56.6575C147.652 56.6575 160.5 44.0321 160.5 28.5001C160.5 12.9682 147.652 0.342773 131.889 0.342773ZM114.76 43.033C111.297 39.1273 109.201 34.0408 109.201 28.5001C109.201 22.9595 111.297 17.873 114.76 13.9673C118.222 17.873 120.318 22.9595 120.318 28.5001C120.318 34.0408 118.222 39.1273 114.76 43.033ZM80.4999 43.033C77.0375 39.1273 74.9418 34.0408 74.9418 28.5001C74.9418 22.9595 77.0375 17.873 80.4999 13.9673C83.9623 17.873 86.058 22.9595 86.058 28.5001C86.058 34.0408 83.9623 39.1273 80.4999 43.033ZM46.2402 43.033C42.7778 39.1273 40.6821 34.0408 40.6821 28.5001C40.6821 22.9595 42.7778 17.873 46.2402 13.9673C49.7026 17.873 51.7983 22.9595 51.7983 28.5001C51.8895 34.0408 49.7026 39.1273 46.2402 43.033ZM6.42242 28.5001C6.42242 16.2381 16.6274 6.24673 29.1103 6.24673C33.7573 6.24673 38.1309 7.6092 41.7755 10.0616C37.4019 14.9664 34.7595 21.4154 34.7595 28.5001C34.7595 35.5849 37.4019 42.0338 41.7755 46.9387C38.1309 49.3003 33.8484 50.7535 29.1103 50.7535C16.6274 50.7535 6.42242 40.7622 6.42242 28.5001ZM50.7049 46.9387C55.0785 42.0338 57.7208 35.5849 57.7208 28.5001C57.7208 21.4154 55.0785 14.9664 50.7049 10.0616C54.3495 7.70001 58.632 6.24673 63.37 6.24673C68.1081 6.24673 72.3905 7.6092 76.0352 10.0616C71.6616 14.9664 68.9281 21.4154 68.9281 28.5001C68.9281 35.5849 71.5705 42.0338 76.0352 46.9387C72.3905 49.3003 68.1081 50.7535 63.37 50.7535C58.7231 50.7535 54.3495 49.3003 50.7049 46.9387ZM84.9646 46.9387C89.3381 42.0338 92.0716 35.5849 92.0716 28.5001C92.0716 21.4154 89.4293 14.9664 84.9646 10.0616C88.6092 7.70001 92.8917 6.24673 97.6297 6.24673C102.368 6.24673 106.65 7.6092 110.295 10.0616C105.921 14.9664 103.188 21.4154 103.188 28.5001C103.188 35.5849 105.83 42.0338 110.295 46.9387C106.65 49.3003 102.368 50.7535 97.6297 50.7535C92.8917 50.7535 88.6092 49.3003 84.9646 46.9387ZM131.889 50.7535C127.242 50.7535 122.869 49.3911 119.224 46.9387C123.598 42.0338 126.331 35.5849 126.331 28.5001C126.331 21.4154 123.689 14.9664 119.224 10.0616C122.869 7.70001 127.151 6.24673 131.889 6.24673C144.372 6.24673 154.577 16.2381 154.577 28.5001C154.577 40.7622 144.372 50.7535 131.889 50.7535Z" fill="#B0B0B0"/>
</g>
<defs>
<clipPath id="clip0_228_65471">
<rect width="160" height="56.3147" fill="white" transform="translate(0.5 0.342773)"/>
</clipPath>
</defs>
</svg>
