<svg width="261" height="43" viewBox="0 0 261 43" fill="none" xmlns="http://www.w3.org/2000/svg">
<g clip-path="url(#clip0_228_65433)">
<path d="M256.795 31.1731C256.939 31.1731 257.845 31.1526 258.174 31.1526C258.709 31.1731 259.491 31.5642 259.512 32.3464V35.372C259.45 35.5778 259.512 36.3188 258.236 36.4217C257.351 36.4217 256.569 36.4217 256.548 36.4217C243.972 36.4217 244.404 24.2368 244.404 24.2368V2.48105C244.404 1.82241 244.94 1.24609 245.598 1.24609H248.459C249.118 1.24609 249.694 1.80183 249.694 2.48105V7.05038H259.347C260.047 7.05038 260.5 7.87369 260.5 8.24417V11.2904C260.479 11.8255 259.883 12.3813 259.347 12.3813C259.039 12.3813 251.382 12.3813 249.694 12.3813V24.0104C249.694 24.0516 249.303 31.1937 256.795 31.1731Z" fill="#B0B0B0"/>
<path d="M228.226 35.188C228.226 35.8466 227.65 36.4229 226.992 36.4229H224.151C223.493 36.4229 222.957 35.8672 222.957 35.188V19.2777C222.957 19.2777 222.505 7.09277 235.101 7.09277C235.122 7.09277 239.609 7.09277 240.514 7.09277C241.811 7.19569 241.729 7.93666 241.79 8.14248V11.1681C241.77 11.9503 240.988 12.3413 240.453 12.3619C240.123 12.3619 235.492 12.3413 235.348 12.3413C227.877 12.3208 228.247 19.4629 228.247 19.4629V35.188L228.226 35.188Z" fill="#B0B0B0"/>
<path d="M161.683 31.5666C161.827 31.5666 162.733 31.5461 163.062 31.5461C163.597 31.5666 164.379 31.9577 164.4 32.7398V35.7655C164.338 35.9713 164.4 36.7123 163.124 36.8152C162.239 36.8152 161.457 36.8152 161.436 36.8152C148.84 36.8152 149.292 24.6303 149.292 24.6303V2.89511C149.292 2.23647 149.828 1.66016 150.486 1.66016H153.327C153.985 1.66016 154.562 2.21589 154.562 2.89511V7.46444H164.215C164.915 7.46444 165.367 8.28774 165.367 8.65823V11.7045C165.347 12.2396 164.75 12.7953 164.215 12.7953C163.906 12.7953 156.249 12.7953 154.562 12.7953V24.4245C154.603 24.4451 154.212 31.5872 161.683 31.5666Z" fill="#B0B0B0"/>
<path d="M103.476 12.4228L112.779 12.4022C114.467 12.608 115.064 13.4725 115.064 15.469V17.5067C114.94 19.0092 114.796 20.5735 111.997 20.5735H100.779V15.5307C100.841 12.608 102.302 12.5051 103.476 12.4228ZM117.142 31.0912C117.101 31.0912 103.97 31.1117 103.97 31.1117C101.006 31.1117 100.759 29.8768 100.759 26.0484V25.8838C102.488 25.8838 107.716 25.8838 112.059 25.8838C117.245 25.8632 120.189 22.7758 120.353 17.1773V15.4896C120.353 10.2204 117.184 7.07129 111.853 7.07129H106.337H103.949C98.4946 7.11243 95.7365 9.97343 95.5307 15.8395L95.5101 26.0278C95.5101 31.1735 96.5187 36.422 104.011 36.422H117.142C118.069 36.422 118.604 35.9281 118.604 35.0636V32.2644C118.583 31.8527 118.398 31.1117 117.142 31.0912Z" fill="#B0B0B0"/>
<path d="M212.049 31.0911L208.323 31.1529H203.651C201.243 31.1529 200.44 30.3708 200.44 28.0243V15.5307C200.481 12.5874 201.943 12.5051 203.116 12.4228L211.514 12.4022C214.477 12.4022 214.724 13.6371 214.724 17.4449V27.9626C214.704 30.9059 213.222 31.0088 212.049 31.0911ZM220.014 17.4655C220.014 12.3198 219.006 7.07129 211.514 7.07129H203.569C198.114 7.11243 195.356 9.97343 195.15 15.8395V28.0243C195.15 33.2935 198.32 36.4426 203.651 36.4426H208.323H211.575C217.03 36.4015 219.788 33.5405 219.994 27.6744V17.4655L220.014 17.4655Z" fill="#B0B0B0"/>
<path d="M85.0747 31.0293L81.3493 31.0499H76.5535C74.1248 31.0499 73.3221 30.2472 73.3221 27.9007L73.3015 12.1551H84.4778C87.4623 12.1551 87.7093 13.39 87.7093 17.2596L87.7299 27.9419C87.6887 30.8646 86.2685 30.947 85.0747 31.0293ZM93.0608 17.2596C93.0608 12.0727 92.0522 6.78303 84.4984 6.78303H73.3015V2.15195C73.3015 1.47272 72.7252 0.916992 72.0665 0.916992H69.185C68.5263 0.916992 67.95 1.4933 67.95 2.15195V27.9007C67.95 33.211 71.1815 36.3808 76.5535 36.3808H82.1108H84.6219C90.0763 36.3396 92.8343 33.4786 93.0402 27.6126V23.7842V17.2596H93.0608Z" fill="#B0B0B0"/>
<path d="M138.507 31.0912L129.348 31.1117C127.516 30.9471 126.878 30.1032 126.878 28.0244V25.9867C127.001 24.4841 127.146 22.9199 129.945 22.9199H141.162L141.203 27.9832C141.142 30.9265 139.68 31.0088 138.507 31.0912ZM146.452 22.0966V17.4655C146.452 12.3198 145.443 7.07129 137.951 7.07129H124.799C123.873 7.07129 123.338 7.56527 123.338 8.42974V11.2084C123.338 11.6406 123.523 12.3816 124.779 12.4022C124.82 12.4022 137.951 12.3816 137.951 12.3816C140.915 12.3816 141.162 13.6166 141.162 17.4449V17.6096C139.433 17.6096 134.205 17.6096 129.862 17.6096C124.676 17.6301 121.712 20.7175 121.568 26.316V28.0038C121.568 33.2729 124.737 36.422 130.068 36.422H134.761L134.782 36.4426H138.034C143.488 36.4015 146.246 33.5405 146.452 27.6744L146.452 22.0966Z" fill="#B0B0B0"/>
<path d="M186.238 30.4531C185.744 30.9265 184.941 31.1735 183.727 31.1735H172.633V15.5719C172.633 13.2255 173.477 12.4022 175.844 12.4022H184.633C185.353 12.5051 185.888 12.7109 186.238 13.0608C186.938 13.7812 186.938 15.0779 186.917 16.5804C186.917 16.6628 186.897 26.7071 186.897 26.9335C186.938 28.436 186.938 29.7327 186.238 30.4531ZM192.248 17.3626C192.248 12.0317 191.219 7.07129 183.748 7.07129H175.865C170.534 7.07129 167.364 10.241 167.364 15.5513L167.323 40.8473C167.323 41.6088 167.693 42.0822 168.311 42.0822H171.398C172.057 42.0822 172.633 41.5059 172.633 40.8473V36.4015H183.727C191.199 36.4015 192.228 31.4616 192.228 26.1102V23.8049L192.248 17.3626Z" fill="#B0B0B0"/>
<path d="M47.3291 22.3274C47.3291 11.4748 38.4842 2.62988 27.6316 2.62988C16.779 2.62988 7.93408 11.4748 7.93408 22.3274C7.93408 27.3467 9.83329 32.149 13.279 35.8118C13.7402 36.3002 14.4999 36.3273 15.0154 35.8661L17.1317 33.8583C17.6201 33.3971 17.6472 32.6374 17.1859 32.149C14.6898 29.4901 13.3061 25.9902 13.3061 22.3545C13.3061 14.4592 19.7363 8.02907 27.6316 8.02907C35.5269 8.02907 41.9571 14.4592 41.9571 22.3545C41.9571 26.0173 40.5734 29.4901 38.0773 32.149C37.616 32.6374 37.6432 33.3971 38.1315 33.8583L40.2478 35.8661C40.7362 36.3273 41.523 36.3002 41.9842 35.8118C45.4299 32.1219 47.3291 27.3467 47.3291 22.3274Z" fill="#B0B0B0"/>
<path d="M54.7631 22.2191C54.7631 19.5331 54.3562 16.9013 53.5694 14.3509C53.3523 13.7269 52.674 13.3742 52.05 13.5641L49.2554 14.4323C48.6043 14.6222 48.2516 15.3005 48.4415 15.9517C49.0655 17.9866 49.3911 20.0757 49.3911 22.2191C49.3911 26.0175 48.3601 29.7074 46.4337 32.9632C46.081 33.5329 46.271 34.2926 46.8679 34.6182L49.364 36.1104C49.9337 36.4632 50.6934 36.2732 51.0461 35.7035C53.488 31.6609 54.7631 26.9942 54.7631 22.2191Z" fill="#B0B0B0"/>
<path d="M8.8294 32.9632C6.90305 29.7345 5.87205 26.0175 5.87205 22.2191C5.87205 20.0757 6.19763 17.9594 6.82166 15.9517C7.01158 15.3005 6.65887 14.6222 6.00771 14.4323L3.21316 13.5641C2.562 13.3742 1.88371 13.7269 1.69379 14.3509C0.906975 16.9013 0.5 19.5331 0.5 22.2191C0.5 26.9942 1.80231 31.6609 4.21703 35.7306C4.56974 36.3004 5.30229 36.4903 5.89918 36.1376L8.39529 34.6453C8.96505 34.2926 9.15497 33.5329 8.8294 32.9632Z" fill="#B0B0B0"/>
</g>
<defs>
<clipPath id="clip0_228_65433">
<rect width="260" height="41.1652" fill="white" transform="translate(0.5 0.916992)"/>
</clipPath>
</defs>
</svg>
