<svg width="81" height="81" viewBox="0 0 81 81" fill="none" xmlns="http://www.w3.org/2000/svg">
<g clip-path="url(#clip0_228_65474)">
<path d="M52.6628 40.4986C52.6628 33.7811 47.2182 28.3359 40.501 28.3359C33.7836 28.3359 28.3384 33.7811 28.3384 40.4986C28.3384 47.2157 33.7836 52.6612 40.501 52.6612C47.2182 52.6612 52.6628 47.2157 52.6628 40.4986Z" fill="#B0B0B0"/>
<path d="M40.5017 0.595703C36.7001 0.595703 33.028 1.13863 29.5449 2.13165V23.6999C32.6951 21.6412 36.4565 20.4399 40.5009 20.4399C51.5775 20.4399 60.5579 29.42 60.5579 40.4975C60.5579 51.5749 51.5775 60.5551 40.5009 60.5551C29.4234 60.5551 20.4431 51.5749 20.4431 40.4975C20.4431 40.1412 20.4532 39.7872 20.4712 39.4353L20.4431 39.4575V6.00959C8.57906 12.9247 0.599609 25.7753 0.599609 40.4975C0.599609 62.5345 18.4647 80.3995 40.5017 80.3995C62.5384 80.3995 80.4001 62.5345 80.4001 40.4975C80.4001 18.4608 62.5384 0.595703 40.5017 0.595703Z" fill="#B0B0B0"/>
</g>
<defs>
<clipPath id="clip0_228_65474">
<rect width="80" height="80" fill="white" transform="translate(0.5 0.5)"/>
</clipPath>
</defs>
</svg>
