<svg width="80" height="80" viewBox="0 0 80 80" fill="none" xmlns="http://www.w3.org/2000/svg">
<g clip-path="url(#clip0_228_65157)">
<path d="M52.1628 39.9986C52.1628 33.2811 46.7182 27.8359 40.001 27.8359C33.2836 27.8359 27.8384 33.2811 27.8384 39.9986C27.8384 46.7157 33.2836 52.1612 40.001 52.1612C46.7182 52.1612 52.1628 46.7157 52.1628 39.9986Z" fill="#383838"/>
<path d="M40.0017 0.0957031C36.2001 0.0957031 32.528 0.638627 29.0449 1.63165V23.1999C32.1951 21.1412 35.9565 19.9399 40.0009 19.9399C51.0775 19.9399 60.0579 28.92 60.0579 39.9975C60.0579 51.0749 51.0775 60.0551 40.0009 60.0551C28.9234 60.0551 19.9431 51.0749 19.9431 39.9975C19.9431 39.6412 19.9532 39.2872 19.9712 38.9353L19.9431 38.9575V5.50959C8.07906 12.4247 0.0996094 25.2753 0.0996094 39.9975C0.0996094 62.0345 17.9647 79.8995 40.0017 79.8995C62.0384 79.8995 79.9001 62.0345 79.9001 39.9975C79.9001 17.9608 62.0384 0.0957031 40.0017 0.0957031Z" fill="#383838"/>
</g>
<defs>
<clipPath id="clip0_228_65157">
<rect width="80" height="80" fill="white"/>
</clipPath>
</defs>
</svg>
