<svg width="260" height="42" viewBox="0 0 260 42" fill="none" xmlns="http://www.w3.org/2000/svg">
<g clip-path="url(#clip0_228_65134)">
<path d="M256.295 30.6731C256.439 30.6731 257.345 30.6526 257.674 30.6526C258.209 30.6731 258.991 31.0642 259.012 31.8464V34.872C258.95 35.0778 259.012 35.8188 257.736 35.9217C256.851 35.9217 256.069 35.9217 256.048 35.9217C243.472 35.9217 243.904 23.7368 243.904 23.7368V1.98105C243.904 1.32241 244.44 0.746094 245.098 0.746094H247.959C248.618 0.746094 249.194 1.30183 249.194 1.98105V6.55038H258.847C259.547 6.55038 260 7.37369 260 7.74417V10.7904C259.979 11.3255 259.383 11.8813 258.847 11.8813C258.539 11.8813 250.882 11.8813 249.194 11.8813V23.5104C249.194 23.5516 248.803 30.6937 256.295 30.6731Z" fill="#383838"/>
<path d="M227.726 34.688C227.726 35.3466 227.15 35.9229 226.492 35.9229H223.651C222.993 35.9229 222.457 35.3672 222.457 34.688V18.7777C222.457 18.7777 222.005 6.59277 234.601 6.59277C234.622 6.59277 239.109 6.59277 240.014 6.59277C241.311 6.69569 241.229 7.43666 241.29 7.64248V10.6681C241.27 11.4503 240.488 11.8413 239.953 11.8619C239.623 11.8619 234.992 11.8413 234.848 11.8413C227.377 11.8208 227.747 18.9629 227.747 18.9629V34.688L227.726 34.688Z" fill="#383838"/>
<path d="M161.183 31.0666C161.327 31.0666 162.233 31.0461 162.562 31.0461C163.097 31.0666 163.879 31.4577 163.9 32.2398V35.2655C163.838 35.4713 163.9 36.2123 162.624 36.3152C161.739 36.3152 160.957 36.3152 160.936 36.3152C148.34 36.3152 148.792 24.1303 148.792 24.1303V2.39511C148.792 1.73647 149.328 1.16016 149.986 1.16016H152.827C153.485 1.16016 154.062 1.71589 154.062 2.39511V6.96444H163.715C164.415 6.96444 164.867 7.78774 164.867 8.15823V11.2045C164.847 11.7396 164.25 12.2953 163.715 12.2953C163.406 12.2953 155.749 12.2953 154.062 12.2953V23.9245C154.103 23.9451 153.712 31.0872 161.183 31.0666Z" fill="#383838"/>
<path d="M102.976 11.9228L112.279 11.9022C113.967 12.108 114.564 12.9725 114.564 14.969V17.0067C114.44 18.5092 114.296 20.0735 111.497 20.0735H100.279V15.0307C100.341 12.108 101.802 12.0051 102.976 11.9228ZM116.642 30.5912C116.601 30.5912 103.47 30.6117 103.47 30.6117C100.506 30.6117 100.259 29.3768 100.259 25.5484V25.3838C101.988 25.3838 107.216 25.3838 111.559 25.3838C116.745 25.3632 119.689 22.2758 119.853 16.6773V14.9896C119.853 9.72042 116.684 6.57129 111.353 6.57129H105.837H103.449C97.9946 6.61243 95.2365 9.47343 95.0307 15.3395L95.0101 25.5278C95.0101 30.6735 96.0187 35.922 103.511 35.922H116.642C117.569 35.922 118.104 35.4281 118.104 34.5636V31.7644C118.083 31.3527 117.898 30.6117 116.642 30.5912Z" fill="#383838"/>
<path d="M211.549 30.5911L207.823 30.6529H203.151C200.743 30.6529 199.94 29.8708 199.94 27.5243V15.0307C199.981 12.0874 201.443 12.0051 202.616 11.9228L211.014 11.9022C213.977 11.9022 214.224 13.1371 214.224 16.9449V27.4626C214.204 30.4059 212.722 30.5088 211.549 30.5911ZM219.514 16.9655C219.514 11.8198 218.506 6.57129 211.014 6.57129H203.069C197.614 6.61243 194.856 9.47343 194.65 15.3395V27.5243C194.65 32.7935 197.82 35.9426 203.151 35.9426H207.823H211.075C216.53 35.9015 219.288 33.0405 219.494 27.1744V16.9655L219.514 16.9655Z" fill="#383838"/>
<path d="M84.5747 30.5293L80.8493 30.5499H76.0535C73.6248 30.5499 72.8221 29.7472 72.8221 27.4007L72.8015 11.6551H83.9778C86.9623 11.6551 87.2093 12.89 87.2093 16.7596L87.2299 27.4419C87.1887 30.3646 85.7685 30.447 84.5747 30.5293ZM92.5608 16.7596C92.5608 11.5727 91.5522 6.28303 83.9984 6.28303H72.8015V1.65195C72.8015 0.972721 72.2252 0.416992 71.5665 0.416992H68.685C68.0263 0.416992 67.45 0.993304 67.45 1.65195V27.4007C67.45 32.711 70.6815 35.8808 76.0535 35.8808H81.6108H84.1219C89.5763 35.8396 92.3343 32.9786 92.5402 27.1126V23.2842V16.7596H92.5608Z" fill="#383838"/>
<path d="M138.007 30.5912L128.848 30.6117C127.016 30.4471 126.378 29.6032 126.378 27.5244V25.4867C126.501 23.9841 126.646 22.4199 129.445 22.4199H140.662L140.703 27.4832C140.642 30.4265 139.18 30.5088 138.007 30.5912ZM145.952 21.5966V16.9655C145.952 11.8198 144.943 6.57129 137.451 6.57129H124.299C123.373 6.57129 122.838 7.06527 122.838 7.92974V10.7084C122.838 11.1406 123.023 11.8816 124.279 11.9022C124.32 11.9022 137.451 11.8816 137.451 11.8816C140.415 11.8816 140.662 13.1166 140.662 16.9449V17.1096C138.933 17.1096 133.705 17.1096 129.362 17.1096C124.176 17.1301 121.212 20.2175 121.068 25.816V27.5038C121.068 32.7729 124.237 35.922 129.568 35.922H134.261L134.282 35.9426H137.534C142.988 35.9015 145.746 33.0405 145.952 27.1744L145.952 21.5966Z" fill="#383838"/>
<path d="M185.738 29.9531C185.244 30.4265 184.441 30.6735 183.227 30.6735H172.133V15.0719C172.133 12.7255 172.977 11.9022 175.344 11.9022H184.133C184.853 12.0051 185.388 12.2109 185.738 12.5608C186.438 13.2812 186.438 14.5779 186.417 16.0804C186.417 16.1628 186.397 26.2071 186.397 26.4335C186.438 27.936 186.438 29.2327 185.738 29.9531ZM191.748 16.8626C191.748 11.5317 190.719 6.57129 183.248 6.57129H175.365C170.034 6.57129 166.864 9.74101 166.864 15.0513L166.823 40.3473C166.823 41.1088 167.193 41.5822 167.811 41.5822H170.898C171.557 41.5822 172.133 41.0059 172.133 40.3473V35.9015H183.227C190.699 35.9015 191.728 30.9616 191.728 25.6102V23.3049L191.748 16.8626Z" fill="#383838"/>
<path d="M46.8291 21.8274C46.8291 10.9748 37.9842 2.12988 27.1316 2.12988C16.279 2.12988 7.43408 10.9748 7.43408 21.8274C7.43408 26.8467 9.33329 31.649 12.779 35.3118C13.2402 35.8002 13.9999 35.8273 14.5154 35.3661L16.6317 33.3583C17.1201 32.8971 17.1472 32.1374 16.6859 31.649C14.1898 28.9901 12.8061 25.4902 12.8061 21.8545C12.8061 13.9592 19.2363 7.52907 27.1316 7.52907C35.0269 7.52907 41.4571 13.9592 41.4571 21.8545C41.4571 25.5173 40.0734 28.9901 37.5773 31.649C37.116 32.1374 37.1432 32.8971 37.6315 33.3583L39.7478 35.3661C40.2362 35.8273 41.023 35.8002 41.4842 35.3118C44.9299 31.6219 46.8291 26.8467 46.8291 21.8274Z" fill="#383838"/>
<path d="M54.2631 21.7191C54.2631 19.0331 53.8562 16.4013 53.0694 13.8509C52.8523 13.2269 52.174 12.8742 51.55 13.0641L48.7554 13.9323C48.1043 14.1222 47.7516 14.8005 47.9415 15.4517C48.5655 17.4866 48.8911 19.5757 48.8911 21.7191C48.8911 25.5175 47.8601 29.2074 45.9337 32.4632C45.581 33.0329 45.771 33.7926 46.3679 34.1182L48.864 35.6104C49.4337 35.9632 50.1934 35.7732 50.5461 35.2035C52.988 31.1609 54.2631 26.4942 54.2631 21.7191Z" fill="#383838"/>
<path d="M8.3294 32.4632C6.40305 29.2345 5.37205 25.5175 5.37205 21.7191C5.37205 19.5757 5.69763 17.4594 6.32166 15.4517C6.51158 14.8005 6.15887 14.1222 5.50771 13.9323L2.71316 13.0641C2.062 12.8742 1.38371 13.2269 1.19379 13.8509C0.406975 16.4013 0 19.0331 0 21.7191C0 26.4942 1.30231 31.1609 3.71703 35.2306C4.06974 35.8004 4.80229 35.9903 5.39918 35.6376L7.89529 34.1453C8.46505 33.7926 8.65497 33.0329 8.3294 32.4632Z" fill="#383838"/>
</g>
<defs>
<clipPath id="clip0_228_65134">
<rect width="260" height="41.1652" fill="white" transform="translate(0 0.416992)"/>
</clipPath>
</defs>
</svg>
