<svg width="140" height="82" viewBox="0 0 140 82" fill="none" xmlns="http://www.w3.org/2000/svg">
<path d="M30.4652 27.3813C29.6931 27.3878 29.7184 28.5545 29.7184 28.5545C29.8119 33.0058 33.2639 34.109 33.2639 34.109C34.5689 34.9035 34.8236 33.8091 34.8236 33.8091L35.8845 31.7761L33.965 27.2319L30.4652 27.3813ZM35.8198 18.8087L40.9803 30.5958C41.5589 31.8819 42.317 31.0069 42.317 31.0069C43.1315 30.5252 43.4438 30.7946 43.4438 30.7946C43.9695 31.1715 43.4902 31.7114 43.4902 31.7114L41.4996 35.5798C40.9544 37.0383 39.4924 35.7222 39.4924 35.7222C38.969 35.4605 37.4353 34.1855 37.4353 34.1855C36.9183 33.331 36.3032 34.1725 36.3032 34.1725L34.0673 38.1957C33.3486 39.8464 31.278 38.7879 31.278 38.7879C24.0627 36.3826 28.214 27.0261 28.214 27.0261C28.6351 25.393 29.6043 25.6429 29.6043 25.6429L33.2928 25.5129C33.1616 24.3914 31.7173 21.945 31.7173 21.945C31.3374 21.0487 30.7246 21.2269 30.7246 21.2269L24.532 21.6162C23.9839 21.688 24.0327 21.2487 24.0327 21.2487C23.9063 20.8558 24.5491 20.5583 24.5491 20.5583C25.7658 20.0949 26.835 18.1748 26.835 18.1748C27.6183 17.1103 28.5481 17.3567 28.5481 17.3567L32.2671 17.195C35.0182 17.0597 35.8198 18.8087 35.8198 18.8087Z" fill="#383838"/>
<path d="M130.769 30.0173L127.177 30.6589C127.177 30.6589 126.559 30.7518 126.641 31.1123C126.641 31.1123 126.656 31.4757 127.059 31.5775L127.474 31.8545C127.474 31.8545 128.402 32.2938 127.566 33.4541L122.972 41.0263C122.972 41.0263 120.71 44.5543 121.576 47.3618C121.941 48.5574 120.699 50.3563 120.665 50.3199C120.665 50.3199 120.495 49.0637 117.343 47.64C117.343 47.64 116.333 46.9854 115.377 47.8899L114.096 48.9549C114.096 48.9549 113.464 49.5677 114.161 49.6889C114.161 49.6889 115.816 50.2511 117.609 52.4905C117.609 52.4905 118.307 53.6361 119.839 53.5144C119.839 53.5144 122.734 53.3438 124.718 49.5836C125.136 49.3395 126.939 51.7778 132.184 48.1169C136.386 45.1812 139.6 41.5744 139.527 35.9217C139.527 35.9217 139.655 34.2774 138.203 34.6561L135.942 34.8814C135.942 34.8814 134.699 34.7761 134.858 36.2675C134.858 36.2675 135.351 43.9973 127.008 45.6063C127.008 45.6063 125.415 46.1045 126.056 44.6895C126.056 44.6895 129.297 38.9856 131.463 36.241C131.463 36.241 134.069 33.4541 132.443 30.7659L132.095 30.2666C132.095 30.2666 131.896 29.7638 130.769 30.0173Z" fill="#383838"/>
<path d="M68.4116 19.0207C67.6977 18.7361 67.283 19.8323 67.283 19.8323C65.7029 23.9995 68.5022 26.3071 68.5022 26.3071C69.4172 27.528 70.0571 26.6147 70.0571 26.6147L71.8025 25.1239L71.7184 20.1945L68.4116 19.0207ZM76.6837 13.5103L76.9695 25.9266C77.0259 27.3369 78.0616 26.797 78.0616 26.797C78.9954 26.6617 79.1801 27.0328 79.1801 27.0328C79.5318 27.5703 78.8772 27.8914 78.8772 27.8914L75.5916 30.7443C74.5454 31.8893 73.6791 30.1262 73.6791 30.1262C73.2886 29.6839 72.35 27.9344 72.35 27.9344C72.183 26.954 71.2985 27.4945 71.2985 27.4945L67.7147 30.4026C66.438 31.6611 64.9142 29.9062 64.9142 29.9062C59.1115 24.988 66.4591 17.8457 66.4591 17.8457C67.4612 16.4966 68.2652 17.08 68.2652 17.08L71.7308 18.345C72.0307 17.25 71.5996 14.4348 71.5996 14.4348C71.5832 13.468 70.9574 13.4033 70.9574 13.4033L65.053 11.4608C64.5296 11.3214 64.7319 10.928 64.7319 10.928C64.7607 10.5169 65.4676 10.4875 65.4676 10.4875C66.772 10.5099 68.4833 9.12198 68.4833 9.12198C69.6048 8.43333 70.374 9.00083 70.374 9.00083L73.8902 10.2482C76.6613 11.1421 76.6837 13.5103 76.6837 13.5103Z" fill="#383838"/>
<path d="M98.2988 17.4011L97.2397 21.5012L96.9421 22.6986L95.8435 26.8899C95.2196 28.7877 95.8112 28.8665 95.8112 28.8665L98.3635 30.6884C98.9128 31.0906 99.0216 30.1403 99.0216 30.1403L102.453 19.6623C102.965 17.7986 102.381 17.2505 102.381 17.2505L102.09 16.7395C101.397 15.8291 102.09 15.6868 102.09 15.6868L104.868 14.5835C105.927 14.0366 106.254 14.9176 106.254 14.9176C108.405 17.6563 107.203 20.7567 107.203 20.7567L103.223 32.4767C102.893 33.7605 101.939 33.3177 101.939 33.3177C99.2762 33.0989 97.0832 34.341 97.0832 34.341C95.9553 35.1814 95.1884 34.0158 95.1884 34.0158C95.0079 33.7941 92.0839 31.7458 92.0839 31.7458C90.7342 30.6513 89.6357 31.4541 89.6357 31.4541L88.3589 32.0798C87.2233 32.9925 86.6446 31.8969 86.6446 31.8969C85.3244 29.7045 81.3477 28.3131 81.3477 28.3131C80.8379 28.3131 80.7579 27.8791 80.7579 27.8791C80.652 27.5156 81.1619 27.261 81.1619 27.261L81.7447 26.7464C82.3634 26.2001 82.3322 25.6143 82.3322 25.6143L83.9906 12.7358C84.4852 9.31368 83.6936 9.19959 83.6936 9.19959C83.1032 8.93848 83.3437 8.51035 83.3437 8.51035C83.4795 8.23454 83.8389 8.36274 83.8389 8.36274C89.0111 9.13608 89.0746 11.8601 89.0746 11.8601L87.0063 25.3979C86.7499 27.1169 87.5562 27.1469 87.5562 27.1469L89.4492 28.3554C90.6931 29.3069 90.8818 27.2945 90.8818 27.2945L93.36 17.5781L93.4236 17.3223C93.6558 15.4375 92.699 14.8329 92.699 14.8329C91.8551 14.1354 92.809 13.7296 92.809 13.7296L94.9955 12.4576C96.0253 11.9113 96.3505 12.4952 96.3505 12.4952C98.9034 14.9258 98.2988 17.4011 98.2988 17.4011Z" fill="#383838"/>
<path d="M40.4815 12.6861L44.8651 27.1743C44.8651 27.1743 45.8284 29.7207 44.8974 30.8722C44.8974 30.8722 44.454 31.0581 44.6146 31.4921C44.6146 31.4921 44.6622 31.8185 45.3244 31.8396C45.3244 31.8396 49.204 31.8902 50.4084 32.9135C50.4084 32.9135 51.427 33.8938 51.9739 32.7429C51.9739 32.7429 51.2129 29.9848 50.5225 28.037L44.0876 7.66681C44.0876 7.66681 43.4484 6.08014 44.5058 4.33705C44.5058 4.33705 45.0497 3.74837 44.6034 3.3767C44.6034 3.3767 44.2088 3.04384 43.5295 3.54195C43.5295 3.54195 42.2604 4.37469 40.9308 6.52121C40.9308 6.52121 39.5393 9.35698 40.4815 12.6861Z" fill="#383838"/>
<path d="M52.3649 9.33568L54.7714 24.8401C54.7714 24.8401 55.3712 27.4953 54.285 28.505C54.285 28.505 53.8187 28.6321 53.9175 29.0802C53.9175 29.0802 53.9133 29.4089 54.5644 29.516C54.5644 29.516 58.5575 29.9847 59.6102 31.1579C59.6102 31.1579 60.4835 32.2817 61.178 31.2214C61.178 31.2214 60.6628 28.5127 60.2512 26.485L56.7473 5.41254C56.7473 5.41254 56.3345 3.75236 57.6307 2.18393C57.6307 2.18393 58.2564 1.66994 57.8629 1.23711C57.8629 1.23711 57.5166 0.854261 56.7773 1.25122C56.7773 1.25122 55.4053 1.89753 53.7822 3.84058C53.7822 3.84058 51.9003 5.90889 52.3649 9.33568Z" fill="#383838"/>
<path d="M10.866 42.2566C11.19 43.574 10.2473 43.7727 10.2473 43.7727C9.68101 44.0574 9.08527 43.7092 9.08527 43.7092C8.44249 43.4181 7.97496 43.047 7.97496 43.047C6.75291 42.2725 5.3762 40.6935 4.58874 39.028C2.2358 34.0863 4.34469 29.5574 5.35502 28.3983C5.35502 28.3983 5.72552 27.8284 6.0425 27.6726C6.0425 27.6726 6.61883 27.0839 7.02755 27.7008C7.02755 27.7008 7.29337 28.1995 7.25102 28.9029C7.25102 28.9029 7.24691 29.3845 7.19751 29.678C7.12459 30.3896 6.68234 31.4217 6.72057 32.195C6.76644 33.1201 7.16281 34.1586 7.49626 34.7832C8.37545 36.4193 10.2097 40.1019 10.5226 41.0487C10.776 41.725 10.866 42.2566 10.866 42.2566ZM27.91 40.7717C28.8651 39.2003 28.0917 38.4605 27.4901 38.2547C25.3318 37.5013 24.4562 43.1599 20.0831 44.9183C15.2049 46.872 13.8823 45.5999 13.4554 44.8813C12.5679 43.3605 15.1414 40.1648 13.3213 36.1152C11.2153 31.4281 8.79358 28.5124 9.94918 26.4006C11.0883 24.334 14.4287 24.6675 15.9906 24.6469C19.1481 24.6045 19.6309 20.585 19.1916 19.6134C18.9828 19.143 18.4671 19.0642 18.0066 19.2718C16.4364 19.9686 16.0641 20.3021 14.6892 20.5167C13.3048 20.7284 12.4321 20.8296 9.32345 21.4759C6.79173 22.0011 -2.88999 29.1517 1.67829 41.5256C5.44677 51.7025 16.4405 51.195 20.4195 49.5325C24.812 47.6918 26.9108 42.4078 27.91 40.7717Z" fill="#383838"/>
<path d="M113.673 29.3081C113.166 28.7323 112.304 29.5198 112.304 29.5198C109.009 32.5226 110.463 35.8506 110.463 35.8506C110.728 37.3508 111.713 36.818 111.713 36.818L113.944 36.2852L116.097 31.8469L113.673 29.3081ZM123.547 28.129L118.187 39.3356C117.599 40.6211 118.766 40.607 118.766 40.607C119.662 40.9075 119.658 41.3186 119.658 41.3186C119.729 41.9655 119 41.9514 119 41.9514L114.782 43.0123C113.328 43.5587 113.354 41.5968 113.354 41.5968C113.204 41.0269 113.158 39.0357 113.158 39.0357C113.458 38.0847 112.419 38.1747 112.419 38.1747L107.911 39.1421C106.203 39.6831 105.636 37.4302 105.636 37.4302C102.687 30.4154 112.465 27.3815 112.465 27.3815C113.971 26.6199 114.423 27.5079 114.423 27.5079L116.944 30.2037C117.706 29.3592 118.594 26.654 118.594 26.654C119.017 25.7925 118.484 25.4496 118.484 25.4496L114.1 21.049C113.696 20.6873 114.058 20.4291 114.058 20.4291C114.27 20.068 114.908 20.3662 114.908 20.3662C116.063 20.9772 118.214 20.5085 118.214 20.5085C119.532 20.4026 119.958 21.2536 119.958 21.2536L122.532 23.9582C124.595 26.0124 123.547 28.129 123.547 28.129Z" fill="#383838"/>
<path d="M70.0903 80.9267C71.2283 80.9309 72.3556 80.0252 73.5336 78.1757C73.5336 78.1757 89.8272 52.7008 90.8746 51.153C92.383 48.9218 89.5808 45.729 87.1049 48.493C87.1049 48.493 74.4822 62.0938 72.8873 63.9204C71.864 65.0907 71.0742 65.7029 70.0903 65.7029C69.1082 65.7029 68.3155 65.0907 67.2934 63.9204C65.6967 62.0938 53.0763 48.493 53.0763 48.493C50.5987 45.729 47.7982 48.9218 49.3072 51.153C50.3517 52.7008 66.6476 78.1757 66.6476 78.1757C67.8256 80.0252 68.9541 80.9309 70.0903 80.9267Z" fill="#383838"/>
</svg>
