<svg width="141" height="81" viewBox="0 0 141 81" fill="none" xmlns="http://www.w3.org/2000/svg">
<g clip-path="url(#clip0_228_65447)">
<path d="M30.9652 26.8832C30.1931 26.8897 30.2184 28.0565 30.2184 28.0565C30.3119 32.5077 33.7639 33.611 33.7639 33.611C35.0689 34.4055 35.3236 33.3111 35.3236 33.3111L36.3845 31.278L34.465 26.7339L30.9652 26.8832ZM36.3198 18.3107L41.4803 30.0977C42.0589 31.3839 42.817 30.5088 42.817 30.5088C43.6315 30.0272 43.9438 30.2965 43.9438 30.2965C44.4695 30.6735 43.9902 31.2133 43.9902 31.2133L41.9996 35.0818C41.4544 36.5403 39.9924 35.2241 39.9924 35.2241C39.469 34.9624 37.9353 33.6874 37.9353 33.6874C37.4183 32.8329 36.8032 33.6745 36.8032 33.6745L34.5673 37.6976C33.8486 39.3484 31.778 38.2898 31.778 38.2898C24.5627 35.8845 28.714 26.528 28.714 26.528C29.1351 24.8949 30.1043 25.1448 30.1043 25.1448L33.7928 25.0149C33.6616 23.8934 32.2173 21.4469 32.2173 21.4469C31.8374 20.5507 31.2246 20.7289 31.2246 20.7289L25.032 21.1182C24.4839 21.1899 24.5327 20.7506 24.5327 20.7506C24.4063 20.3578 25.0491 20.0602 25.0491 20.0602C26.2658 19.5968 27.335 17.6767 27.335 17.6767C28.1183 16.6123 29.0481 16.8587 29.0481 16.8587L32.7671 16.6969C35.5182 16.5617 36.3198 18.3107 36.3198 18.3107Z" fill="#B0B0B0"/>
<path d="M131.269 29.5192L127.677 30.1608C127.677 30.1608 127.059 30.2538 127.141 30.6142C127.141 30.6142 127.156 30.9777 127.559 31.0794L127.974 31.3564C127.974 31.3564 128.902 31.7957 128.066 32.956L123.472 40.5283C123.472 40.5283 121.21 44.0562 122.076 46.8637C122.441 48.0593 121.199 49.8583 121.165 49.8218C121.165 49.8218 120.995 48.5657 117.843 47.1419C117.843 47.1419 116.833 46.4874 115.877 47.3918L114.596 48.4569C114.596 48.4569 113.964 49.0697 114.661 49.1908C114.661 49.1908 116.316 49.753 118.109 51.9925C118.109 51.9925 118.807 53.1381 120.339 53.0163C120.339 53.0163 123.234 52.8458 125.218 49.0855C125.636 48.8415 127.439 51.2797 132.684 47.6188C136.886 44.6831 140.1 41.0764 140.027 35.4236C140.027 35.4236 140.155 33.7793 138.703 34.1581L136.442 34.3833C136.442 34.3833 135.199 34.278 135.358 35.7694C135.358 35.7694 135.851 43.4993 127.508 45.1083C127.508 45.1083 125.915 45.6064 126.556 44.1915C126.556 44.1915 129.797 38.4876 131.963 35.743C131.963 35.743 134.569 32.956 132.943 30.2679L132.595 29.7686C132.595 29.7686 132.396 29.2658 131.269 29.5192Z" fill="#B0B0B0"/>
<path d="M68.9116 18.5227C68.1977 18.238 67.783 19.3342 67.783 19.3342C66.2029 23.5014 69.0022 25.8091 69.0022 25.8091C69.9172 27.03 70.5571 26.1166 70.5571 26.1166L72.3025 24.6258L72.2184 19.6965L68.9116 18.5227ZM77.1837 13.0123L77.4695 25.4286C77.5259 26.8388 78.5616 26.299 78.5616 26.299C79.4954 26.1637 79.6801 26.5348 79.6801 26.5348C80.0318 27.0723 79.3772 27.3934 79.3772 27.3934L76.0916 30.2462C75.0454 31.3912 74.1791 29.6281 74.1791 29.6281C73.7886 29.1859 72.85 27.4363 72.85 27.4363C72.683 26.456 71.7985 26.9964 71.7985 26.9964L68.2147 29.9045C66.938 31.163 65.4142 29.4082 65.4142 29.4082C59.6115 24.49 66.9591 17.3477 66.9591 17.3477C67.9612 15.9986 68.7652 16.582 68.7652 16.582L72.2308 17.8469C72.5307 16.7519 72.0996 13.9367 72.0996 13.9367C72.0832 12.9699 71.4574 12.9052 71.4574 12.9052L65.553 10.9628C65.0296 10.8234 65.2319 10.43 65.2319 10.43C65.2607 10.0189 65.9676 9.98948 65.9676 9.98948C67.272 10.0118 68.9833 8.62393 68.9833 8.62393C70.1048 7.93528 70.874 8.50279 70.874 8.50279L74.3902 9.75013C77.1613 10.644 77.1837 13.0123 77.1837 13.0123Z" fill="#B0B0B0"/>
<path d="M98.7988 16.903L97.7397 21.0032L97.4421 22.2005L96.3435 26.3919C95.7196 28.2896 96.3112 28.3684 96.3112 28.3684L98.8635 30.1903C99.4128 30.5926 99.5216 29.6422 99.5216 29.6422L102.953 19.1642C103.465 17.3006 102.881 16.7525 102.881 16.7525L102.59 16.2414C101.897 15.3311 102.59 15.1888 102.59 15.1888L105.368 14.0855C106.427 13.5386 106.754 14.4195 106.754 14.4195C108.905 17.1583 107.703 20.2587 107.703 20.2587L103.723 31.9787C103.393 33.2625 102.439 32.8197 102.439 32.8197C99.7762 32.6009 97.5832 33.8429 97.5832 33.8429C96.4553 34.6833 95.6884 33.5177 95.6884 33.5177C95.5079 33.296 92.5839 31.2477 92.5839 31.2477C91.2342 30.1533 90.1357 30.956 90.1357 30.956L88.8589 31.5817C87.7233 32.4945 87.1446 31.3988 87.1446 31.3988C85.8244 29.2065 81.8477 27.815 81.8477 27.815C81.3379 27.815 81.2579 27.381 81.2579 27.381C81.152 27.0176 81.6619 26.7629 81.6619 26.7629L82.2447 26.2484C82.8634 25.702 82.8322 25.1163 82.8322 25.1163L84.4906 12.2377C84.9852 8.81563 84.1936 8.70154 84.1936 8.70154C83.6032 8.44043 83.8437 8.0123 83.8437 8.0123C83.9795 7.73649 84.3389 7.86469 84.3389 7.86469C89.5111 8.63803 89.5746 11.3621 89.5746 11.3621L87.5063 24.8999C87.2499 26.6189 88.0562 26.6489 88.0562 26.6489L89.9492 27.8574C91.1931 28.8089 91.3818 26.7965 91.3818 26.7965L93.86 17.0801L93.9236 16.8242C94.1558 14.9394 93.199 14.3349 93.199 14.3349C92.3551 13.6374 93.309 13.2316 93.309 13.2316L95.4955 11.9596C96.5253 11.4132 96.8505 11.9972 96.8505 11.9972C99.4034 14.4278 98.7988 16.903 98.7988 16.903Z" fill="#B0B0B0"/>
<path d="M40.9815 12.1861L45.3651 26.6743C45.3651 26.6743 46.3284 29.2207 45.3974 30.3722C45.3974 30.3722 44.954 30.5581 45.1146 30.9921C45.1146 30.9921 45.1622 31.3185 45.8244 31.3396C45.8244 31.3396 49.704 31.3902 50.9084 32.4135C50.9084 32.4135 51.927 33.3938 52.4739 32.2429C52.4739 32.2429 51.7129 29.4848 51.0225 27.537L44.5876 7.16681C44.5876 7.16681 43.9484 5.58014 45.0058 3.83705C45.0058 3.83705 45.5497 3.24837 45.1034 2.8767C45.1034 2.8767 44.7088 2.54384 44.0295 3.04195C44.0295 3.04195 42.7604 3.87469 41.4308 6.02121C41.4308 6.02121 40.0393 8.85698 40.9815 12.1861Z" fill="#B0B0B0"/>
<path d="M52.8649 8.83568L55.2714 24.3401C55.2714 24.3401 55.8712 26.9953 54.785 28.005C54.785 28.005 54.3187 28.1321 54.4175 28.5802C54.4175 28.5802 54.4133 28.9089 55.0644 29.016C55.0644 29.016 59.0575 29.4847 60.1102 30.6579C60.1102 30.6579 60.9835 31.7817 61.678 30.7214C61.678 30.7214 61.1628 28.0127 60.7512 25.985L57.2473 4.91254C57.2473 4.91254 56.8345 3.25236 58.1307 1.68393C58.1307 1.68393 58.7564 1.16994 58.3629 0.737106C58.3629 0.737106 58.0166 0.354261 57.2773 0.751221C57.2773 0.751221 55.9053 1.39753 54.2822 3.34058C54.2822 3.34058 52.4003 5.40889 52.8649 8.83568Z" fill="#B0B0B0"/>
<path d="M11.366 41.7566C11.69 43.074 10.7473 43.2727 10.7473 43.2727C10.181 43.5574 9.58527 43.2092 9.58527 43.2092C8.94249 42.9181 8.47496 42.547 8.47496 42.547C7.25291 41.7725 5.8762 40.1935 5.08874 38.528C2.7358 33.5863 4.84469 29.0574 5.85502 27.8983C5.85502 27.8983 6.22552 27.3284 6.5425 27.1726C6.5425 27.1726 7.11883 26.5839 7.52755 27.2008C7.52755 27.2008 7.79337 27.6995 7.75102 28.4029C7.75102 28.4029 7.74691 28.8845 7.69751 29.178C7.62459 29.8896 7.18234 30.9217 7.22057 31.695C7.26644 32.6201 7.66281 33.6586 7.99626 34.2832C8.87545 35.9193 10.7097 39.6019 11.0226 40.5487C11.276 41.225 11.366 41.7566 11.366 41.7566ZM28.41 40.2717C29.3651 38.7003 28.5917 37.9605 27.9901 37.7547C25.8318 37.0013 24.9562 42.6599 20.5831 44.4183C15.7049 46.372 14.3823 45.0999 13.9554 44.3813C13.0679 42.8605 15.6414 39.6648 13.8213 35.6152C11.7153 30.9281 9.29358 28.0124 10.4492 25.9006C11.5883 23.834 14.9287 24.1675 16.4906 24.1469C19.6481 24.1045 20.1309 20.085 19.6916 19.1134C19.4828 18.643 18.9671 18.5642 18.5066 18.7718C16.9364 19.4686 16.5641 19.8021 15.1892 20.0167C13.8048 20.2284 12.9321 20.3296 9.82345 20.9759C7.29173 21.5011 -2.38999 28.6517 2.17829 41.0256C5.94677 51.2025 16.9405 50.695 20.9195 49.0325C25.312 47.1918 27.4108 41.9078 28.41 40.2717Z" fill="#B0B0B0"/>
<path d="M114.173 28.8081C113.666 28.2323 112.804 29.0198 112.804 29.0198C109.509 32.0226 110.963 35.3506 110.963 35.3506C111.228 36.8508 112.213 36.318 112.213 36.318L114.444 35.7852L116.597 31.3469L114.173 28.8081ZM124.047 27.629L118.687 38.8356C118.099 40.1211 119.266 40.107 119.266 40.107C120.162 40.4075 120.158 40.8186 120.158 40.8186C120.229 41.4655 119.5 41.4514 119.5 41.4514L115.282 42.5123C113.828 43.0587 113.854 41.0968 113.854 41.0968C113.704 40.5269 113.658 38.5357 113.658 38.5357C113.958 37.5847 112.919 37.6747 112.919 37.6747L108.411 38.6421C106.703 39.1831 106.136 36.9302 106.136 36.9302C103.187 29.9154 112.965 26.8815 112.965 26.8815C114.471 26.1199 114.923 27.0079 114.923 27.0079L117.444 29.7037C118.206 28.8592 119.094 26.154 119.094 26.154C119.517 25.2925 118.984 24.9496 118.984 24.9496L114.6 20.549C114.196 20.1873 114.558 19.9291 114.558 19.9291C114.77 19.568 115.408 19.8662 115.408 19.8662C116.563 20.4772 118.714 20.0085 118.714 20.0085C120.032 19.9026 120.458 20.7536 120.458 20.7536L123.032 23.4582C125.095 25.5124 124.047 27.629 124.047 27.629Z" fill="#B0B0B0"/>
<path d="M70.5903 80.4287C71.7283 80.4328 72.8556 79.5272 74.0336 77.6776C74.0336 77.6776 90.3272 52.2028 91.3746 50.6549C92.883 48.4237 90.0808 45.231 87.6049 47.995C87.6049 47.995 74.9822 61.5957 73.3873 63.4223C72.364 64.5926 71.5742 65.2048 70.5903 65.2048C69.6082 65.2048 68.8155 64.5926 67.7934 63.4223C66.1967 61.5957 53.5763 47.995 53.5763 47.995C51.0987 45.231 48.2982 48.4237 49.8072 50.6549C50.8517 52.2028 67.1476 77.6776 67.1476 77.6776C68.3256 79.5272 69.4541 80.4328 70.5903 80.4287Z" fill="#B0B0B0"/>
</g>
<defs>
<clipPath id="clip0_228_65447">
<rect width="140" height="80.798" fill="white" transform="translate(0.5 0.100586)"/>
</clipPath>
</defs>
</svg>
