<svg width="200" height="64" viewBox="0 0 200 64" fill="none" xmlns="http://www.w3.org/2000/svg">
<g clip-path="url(#clip0_228_65181)">
<path d="M140.106 5.43642C140.106 5.43642 136.357 6.92951 131.996 11.7373C127.636 16.5451 125.096 21.9514 126.976 23.3892C127.698 23.9357 129.363 24.0398 132.383 21.3073C135.171 18.8859 137.359 15.8506 138.776 12.4399C140.727 7.68093 140.106 5.49497 140.106 5.44293M163.969 14.0859C159.125 11.6007 155.584 8.55596 151.899 6.67253C148.385 4.86716 146.112 4.11249 143.27 4.49308C142.873 4.56378 142.482 4.66159 142.099 4.78584C142.099 4.78584 143.562 9.78555 137.739 18.1845C131.84 26.7006 126.488 26.6421 124.966 24.3033C123.373 21.8343 125.431 16.8021 128.868 12.3228C132.468 7.63864 138.789 3.75467 138.789 3.75467C138.789 3.75467 136.773 2.52182 131.824 5.32908C126.995 8.05501 118.684 14.5608 110.971 25.5329C103.259 36.5049 101.73 42.5423 100.625 47.2948C99.5193 52.0473 100.524 57.1381 105.792 57.1381C111.059 57.1381 117.192 49.1001 118.922 46.3059C122.138 41.1013 124.235 33.1186 119.858 34.2149C117.702 34.7548 115.956 37.1425 114.854 39.4423C114.158 40.9194 113.626 42.4683 113.267 44.0614C111.738 44.692 110.301 45.5281 108.998 46.5466C107.548 47.6213 106.192 48.8184 104.946 50.1248C104.946 50.1248 104.966 46.3254 107.993 40.1774C111.02 34.0294 116.577 31.2222 119.725 30.9587C122.56 30.731 126.251 33.1381 123.123 42.0186C119.995 50.899 110.767 61.6954 101.074 61.8287C92.1284 61.9524 86.2755 50.5314 98.7259 30.6009C112.506 8.58198 128.67 1.8257 133.918 1.07428C139.166 0.322859 140.873 2.63893 140.873 2.63893C144.032 1.34234 147.444 0.779559 150.852 0.992957C157.261 1.42559 162.217 5.96339 168.759 9.15124C167.059 10.7777 165.436 12.4855 163.973 14.0859M192.762 6.67253C188.321 9.52207 182.175 12.1049 176.27 11.5519C174.775 13.097 173.175 14.8861 171.572 16.8378C181.811 18.8644 190.782 12.518 195.552 7.11492C197.291 5.17232 198.785 3.02341 200.001 0.71646C197.829 2.97933 195.398 4.97846 192.759 6.67253M179.125 35.5323C179.203 35.3972 179.266 35.2544 179.314 35.1061C179.283 34.8716 179.174 34.6545 179.003 34.4911C178.832 34.3278 178.61 34.228 178.374 34.2083C177.399 34.1628 176.069 34.3482 172.58 38.2127C169.685 41.404 167.194 44.9393 165.163 48.7391C163.166 52.3888 162.357 55.1083 163.504 55.8109C163.877 56.0041 164.31 56.0483 164.714 55.9345C165.491 55.7491 166.372 55.0204 167.712 53.4688C168.34 52.7401 169.035 51.709 169.868 50.5672C172.177 47.4249 177.977 37.5328 179.125 35.5323ZM142.883 39.735C143.465 38.2127 144.206 35.2233 142.665 34.049C141.01 32.8031 136.789 35.7275 136.767 38.7266C136.737 41.7974 139.738 43.1864 140.457 43.3815C140.867 43.4921 141.01 43.4759 141.208 43.1473C141.845 42.0501 142.404 40.9099 142.883 39.735ZM139.69 45.3203C138.644 44.8371 137.668 44.2145 136.789 43.4694C135.908 42.7298 135.171 41.8331 134.617 40.8248C134.559 40.7272 134.5 40.802 134.435 40.8898C134.37 40.9776 134.11 41.2151 131.86 44.5135C129.61 47.812 126.153 54.6463 129.281 55.8109C131.284 56.5558 134.617 53.0459 136.435 50.7201C137.673 49.0967 138.796 47.3879 139.794 45.6065C139.888 45.4081 139.794 45.3626 139.693 45.3203M175.175 53.2151C174.326 54.5748 173.357 57.1836 176.15 55.5604C179.567 53.5859 184.435 46.1985 184.435 46.1985H186.643C184.634 49.2887 182.397 52.2245 179.951 54.9814C176.488 58.8198 172.264 62.3069 169.289 61.9621C165.813 61.5555 166.902 56.9917 166.902 56.9917C166.902 56.9917 161.931 62.2874 158.491 61.9068C153.844 61.3929 155.262 55.6482 155.262 55.6482C155.262 55.6482 150.007 62.0987 146.427 61.9003C140.815 61.575 142.226 54.7439 143.787 49.9329C144.622 47.3598 145.396 45.3398 145.396 45.3398C145.396 45.3398 144.84 45.4862 143.644 45.6651C143.019 45.7529 141.881 45.818 141.881 45.818C141.881 45.818 139.543 49.9426 137.674 52.4214C135.804 54.9001 127.857 63.4454 123.181 61.7344C118.857 60.1535 120.287 53.5306 122.804 48.2674C126.478 40.5938 136.812 29.5697 142.772 31.027C148.95 32.5266 142.912 43.8044 142.912 43.8044C142.912 43.8044 142.912 43.8467 142.977 43.876C143.101 43.9215 143.423 43.9573 144.167 43.8109C144.939 43.6535 145.695 43.4281 146.427 43.1376C146.427 43.1376 152.638 30.126 159.499 21.6131C166.359 13.1003 180.045 -1.56057 185.417 1.98509C186.718 2.85687 186.132 5.8593 184.364 9.50255C183.567 9.76145 182.757 9.9786 181.938 10.1531C183.121 8.00296 183.905 6.1911 184.139 4.92572C184.949 0.527792 174.684 9.80507 167.348 19.772C162.929 25.7806 159.004 32.1369 155.61 38.7787C156.935 37.9702 158.2 37.0667 159.394 36.0755C162.667 33.3613 165.776 30.4569 168.707 27.3773C171.529 24.4867 174.177 21.43 176.634 18.2236C177.415 18.1858 178.194 18.1054 178.966 17.9829C176.286 21.6216 173.364 25.0754 170.219 28.3206C167.293 31.2807 164.126 34.4653 161.375 36.7781C158.918 38.8685 156.326 40.7951 153.616 42.5455C153.616 42.5455 147.201 55.4888 150.69 56.3183C152.742 56.8128 156.793 50.5705 156.793 50.5705C156.793 50.5705 162.08 42.5 165.267 38.86C169.614 33.9156 173.357 31.053 177.096 31.001C179.275 30.962 180.559 33.278 180.559 33.278L181.583 31.6906H187.892C187.892 31.6906 176.111 51.6895 175.168 53.1955M192.759 6.67253C188.318 9.52207 182.172 12.1049 176.267 11.5519C174.771 13.097 173.172 14.8861 171.568 16.8378C181.808 18.8644 190.779 12.518 195.549 7.11492C197.289 5.1725 198.784 3.02359 200.001 0.71646C197.829 2.97933 195.398 4.97846 192.759 6.67253ZM104.169 16.4833H98.1699L94.7785 21.9644H100.778L104.169 16.4833ZM75.7631 35.464C78.3156 31.9638 85.3586 19.6972 85.3586 19.6972C85.3289 19.4628 85.2196 19.2458 85.0492 19.0824C84.8787 18.919 84.6574 18.8191 84.4221 18.7993C83.4466 18.7538 81.8208 19.0824 78.592 23.1257C75.3631 27.1691 72.8561 30.3862 71.0287 33.7334C69.0257 37.3864 68.1511 39.9627 69.3021 40.6621C69.6757 40.8493 70.1048 40.8933 70.5085 40.7857C71.2563 40.5971 72.2351 39.8456 73.578 38.3005C74.2088 37.5784 74.9242 36.6057 75.7631 35.464ZM43.5721 18.8742C41.9138 17.6218 37.6965 20.5527 37.6737 23.5453C37.6477 26.6193 41.4684 27.5594 41.9626 27.5822C42.108 27.5943 42.2537 27.5638 42.3821 27.4944C42.4702 27.4429 42.5406 27.3657 42.5837 27.2732C43.0329 26.3901 43.4366 25.4846 43.7933 24.5602C44.3753 23.0379 45.1134 20.0485 43.5721 18.8742ZM41.0717 29.4559C39.9282 29.0985 38.8354 28.5956 37.82 27.9595C36.8362 27.3178 36.0361 26.4311 35.4984 25.3865C35.4399 25.2889 35.3748 25.3637 35.3163 25.4515C35.2578 25.5394 34.9196 25.9622 32.663 29.2737C30.4064 32.5851 27.0637 39.3577 30.195 40.5222C32.1915 41.2802 35.5634 37.741 37.3941 35.4249C38.764 33.6048 40.0298 31.7086 41.1855 29.7454C41.2602 29.5469 41.1855 29.5014 41.0749 29.4656M90.0702 31.4954H92.2682C92.2682 31.4954 81.255 47.4347 75.0347 46.693C71.562 46.2864 72.5928 41.9991 72.5928 41.9991C72.5928 41.9991 67.7153 47.7112 63.2346 46.5531C59.1701 45.5089 61.7942 38.7461 61.7942 38.7461C61.3324 38.9316 52.5368 48.8497 46.3555 46.4718C39.8881 43.9736 43.247 35.6689 44.4761 33.1707C45.5199 31.066 46.6742 29.0167 46.6742 29.0167C46.6742 29.0167 45.6824 29.2965 45.0484 29.4396C44.4143 29.5827 43.4974 29.7649 43.4974 29.7649C43.4974 29.7649 40.4376 34.7386 38.5679 37.2205C36.6982 39.7025 28.7513 48.2316 24.069 46.5336C19.3867 44.8356 20.5475 38.281 23.178 33.0763C27.4442 24.6351 37.5664 14.2615 43.6632 15.836C49.8217 17.4071 44.7232 27.4 44.7232 27.4C44.7232 27.4 45.9491 27.5594 48.8853 25.5556C53.1124 22.6703 58.6921 14.9089 64.7336 15.8197C67.582 16.2491 70.2353 19.1604 66.6065 24.6904C65.449 26.4664 63.5078 28.0539 62.0218 26.4827C61.0951 25.5068 61.9047 23.7275 62.8769 22.5109C63.2554 22.015 63.7498 21.6197 64.3168 21.3599C64.8839 21.1001 65.506 20.9838 66.1286 21.0211C66.1286 21.0211 67.1268 18.744 64.5873 18.7766C62.5323 18.8156 57.3297 23.6071 54.3935 28.4475C51.7012 32.8909 47.6204 40.4604 51.7174 42.1097C55.473 43.6255 62.6201 35.1387 65.9302 30.692C69.2403 26.2452 76.7841 16.1678 83.1117 15.7644C85.2903 15.6213 86.5877 17.6088 86.5877 17.6088L87.3193 16.4508H93.6469C93.6469 16.4508 81.7298 36.3455 80.7998 37.8516C80.0682 39.0292 79.096 41.677 81.7753 40.1937C84.4546 38.7104 90.0702 31.4954 90.0702 31.4954ZM86.6267 63.3739C81.9676 60.1475 76.3887 58.5188 70.7263 58.732C69.1937 58.7738 67.6926 59.1764 66.3446 59.9072C64.9966 60.638 63.8398 61.6763 62.968 62.938C60.5553 58.7255 55.7852 56.1394 48.4105 56.198C36.4934 56.3346 24.6738 61.832 15.3092 61.8255C6.33472 61.8255 -0.210774 56.1817 0.000580542 46.1595C0.394025 28.5711 15.2506 12.7327 26.3386 5.60557C32.7313 1.51017 38.0769 0.293583 41.5724 0.687184C44.1217 0.970187 47.1879 3.91732 45.2532 8.25994C42.4113 14.6064 38.4866 14.0859 38.6329 11.0509C38.7142 9.07642 40.0279 7.83381 41.0164 7.14745C41.6439 6.71481 42.7527 6.5912 43.3315 6.57819C43.8941 6.10327 44.307 2.62917 39.7548 3.77094C35.2025 4.9127 29.6748 9.40171 24.4267 15.2016C19.1786 21.0016 11.0073 31.9638 8.98803 43.4759C8.04506 48.8139 8.66287 58.5498 21.3149 58.4392C32.0452 58.3514 47.861 51.2828 62.3957 51.4292C68.0373 51.4845 72.9472 53.0069 76.7743 55.3685C80.5332 57.6846 85.0399 61.0676 86.6397 63.3771" fill="#383838"/>
</g>
<defs>
<clipPath id="clip0_228_65181">
<rect width="200" height="62.7615" fill="white" transform="translate(0 0.619141)"/>
</clipPath>
</defs>
</svg>
