<svg width="201" height="63" viewBox="0 0 201 63" fill="none" xmlns="http://www.w3.org/2000/svg">
<g clip-path="url(#clip0_228_65467)">
<path d="M140.606 4.93642C140.606 4.93642 136.857 6.42951 132.496 11.2373C128.136 16.0451 125.596 21.4514 127.476 22.8892C128.198 23.4357 129.863 23.5398 132.883 20.8073C135.671 18.3859 137.859 15.3506 139.276 11.9399C141.227 7.18093 140.606 4.99497 140.606 4.94293M164.469 13.5859C159.625 11.1007 156.084 8.05596 152.399 6.17253C148.885 4.36716 146.612 3.61249 143.77 3.99308C143.373 4.06378 142.982 4.16159 142.599 4.28584C142.599 4.28584 144.062 9.28555 138.239 17.6845C132.34 26.2006 126.988 26.1421 125.466 23.8033C123.873 21.3343 125.931 16.3021 129.368 11.8228C132.968 7.13864 139.289 3.25467 139.289 3.25467C139.289 3.25467 137.273 2.02182 132.324 4.82908C127.495 7.55501 119.184 14.0608 111.471 25.0329C103.759 36.0049 102.23 42.0423 101.125 46.7948C100.019 51.5473 101.024 56.6381 106.292 56.6381C111.559 56.6381 117.692 48.6001 119.422 45.8059C122.638 40.6013 124.735 32.6186 120.358 33.7149C118.202 34.2548 116.456 36.6425 115.354 38.9423C114.658 40.4194 114.126 41.9683 113.767 43.5614C112.238 44.192 110.801 45.0281 109.498 46.0466C108.048 47.1213 106.692 48.3184 105.446 49.6248C105.446 49.6248 105.466 45.8254 108.493 39.6774C111.52 33.5294 117.077 30.7222 120.225 30.4587C123.06 30.231 126.751 32.6381 123.623 41.5186C120.495 50.399 111.267 61.1954 101.574 61.3287C92.6284 61.4524 86.7755 50.0314 99.2259 30.1009C113.006 8.08198 129.17 1.3257 134.418 0.57428C139.666 -0.177141 141.373 2.13893 141.373 2.13893C144.532 0.842336 147.944 0.279559 151.352 0.492957C157.761 0.925593 162.717 5.46339 169.259 8.65124C167.559 10.2777 165.936 11.9855 164.473 13.5859M193.262 6.17253C188.821 9.02207 182.675 11.6049 176.77 11.0519C175.275 12.597 173.675 14.3861 172.072 16.3378C182.311 18.3644 191.282 12.018 196.052 6.61492C197.791 4.67232 199.285 2.52341 200.501 0.21646C198.329 2.47933 195.898 4.47846 193.259 6.17253M179.625 35.0323C179.703 34.8972 179.766 34.7544 179.814 34.6061C179.783 34.3716 179.674 34.1545 179.503 33.9911C179.332 33.8278 179.11 33.728 178.874 33.7083C177.899 33.6628 176.569 33.8482 173.08 37.7127C170.185 40.904 167.694 44.4393 165.663 48.2391C163.666 51.8888 162.857 54.6083 164.004 55.3109C164.377 55.5041 164.81 55.5483 165.214 55.4345C165.991 55.2491 166.872 54.5204 168.212 52.9688C168.84 52.2401 169.535 51.209 170.368 50.0672C172.677 46.9249 178.477 37.0328 179.625 35.0323ZM143.383 39.235C143.965 37.7127 144.706 34.7233 143.165 33.549C141.51 32.3031 137.289 35.2275 137.267 38.2266C137.237 41.2974 140.238 42.6864 140.957 42.8815C141.367 42.9921 141.51 42.9759 141.708 42.6473C142.345 41.5501 142.904 40.4099 143.383 39.235ZM140.19 44.8203C139.144 44.3371 138.168 43.7145 137.289 42.9694C136.408 42.2298 135.671 41.3331 135.117 40.3248C135.059 40.2272 135 40.302 134.935 40.3898C134.87 40.4776 134.61 40.7151 132.36 44.0135C130.11 47.312 126.653 54.1463 129.781 55.3109C131.784 56.0558 135.117 52.5459 136.935 50.2201C138.173 48.5967 139.296 46.8879 140.294 45.1065C140.388 44.9081 140.294 44.8626 140.193 44.8203M175.675 52.7151C174.826 54.0748 173.857 56.6836 176.65 55.0604C180.067 53.0859 184.935 45.6985 184.935 45.6985H187.143C185.134 48.7887 182.897 51.7245 180.451 54.4814C176.988 58.3198 172.764 61.8069 169.789 61.4621C166.313 61.0555 167.402 56.4917 167.402 56.4917C167.402 56.4917 162.431 61.7874 158.991 61.4068C154.344 60.8929 155.762 55.1482 155.762 55.1482C155.762 55.1482 150.507 61.5987 146.927 61.4003C141.315 61.075 142.726 54.2439 144.287 49.4329C145.122 46.8598 145.896 44.8398 145.896 44.8398C145.896 44.8398 145.34 44.9862 144.144 45.1651C143.519 45.2529 142.381 45.318 142.381 45.318C142.381 45.318 140.043 49.4426 138.174 51.9214C136.304 54.4001 128.357 62.9454 123.681 61.2344C119.357 59.6535 120.787 53.0306 123.304 47.7674C126.978 40.0938 137.312 29.0697 143.272 30.527C149.45 32.0266 143.412 43.3044 143.412 43.3044C143.412 43.3044 143.412 43.3467 143.477 43.376C143.601 43.4215 143.923 43.4573 144.667 43.3109C145.439 43.1535 146.195 42.9281 146.927 42.6376C146.927 42.6376 153.138 29.626 159.999 21.1131C166.859 12.6003 180.545 -2.06057 185.917 1.48509C187.218 2.35687 186.632 5.3593 184.864 9.00255C184.067 9.26145 183.257 9.4786 182.438 9.65313C183.621 7.50296 184.405 5.6911 184.639 4.42572C185.449 0.0277917 175.184 9.30507 167.848 19.272C163.429 25.2806 159.504 31.6369 156.11 38.2787C157.435 37.4702 158.7 36.5667 159.894 35.5755C163.167 32.8613 166.276 29.9569 169.207 26.8773C172.029 23.9867 174.677 20.93 177.134 17.7236C177.915 17.6858 178.694 17.6054 179.466 17.4829C176.786 21.1216 173.864 24.5754 170.719 27.8206C167.793 30.7807 164.626 33.9653 161.875 36.2781C159.418 38.3685 156.826 40.2951 154.116 42.0455C154.116 42.0455 147.701 54.9888 151.19 55.8183C153.242 56.3128 157.293 50.0705 157.293 50.0705C157.293 50.0705 162.58 42 165.767 38.36C170.114 33.4156 173.857 30.553 177.596 30.501C179.775 30.462 181.059 32.778 181.059 32.778L182.083 31.1906H188.392C188.392 31.1906 176.611 51.1895 175.668 52.6955M193.259 6.17253C188.818 9.02207 182.672 11.6049 176.767 11.0519C175.271 12.597 173.672 14.3861 172.068 16.3378C182.308 18.3644 191.279 12.018 196.049 6.61492C197.789 4.6725 199.284 2.52359 200.501 0.21646C198.329 2.47933 195.898 4.47846 193.259 6.17253ZM104.669 15.9833H98.6699L95.2785 21.4644H101.278L104.669 15.9833ZM76.2631 34.964C78.8156 31.4638 85.8586 19.1972 85.8586 19.1972C85.8289 18.9628 85.7196 18.7458 85.5492 18.5824C85.3787 18.419 85.1574 18.3191 84.9221 18.2993C83.9466 18.2538 82.3208 18.5824 79.092 22.6257C75.8631 26.6691 73.3561 29.8862 71.5287 33.2334C69.5257 36.8864 68.6511 39.4627 69.8021 40.1621C70.1757 40.3493 70.6048 40.3933 71.0085 40.2857C71.7563 40.0971 72.7351 39.3456 74.078 37.8005C74.7088 37.0784 75.4242 36.1057 76.2631 34.964ZM44.0721 18.3742C42.4138 17.1218 38.1965 20.0527 38.1737 23.0453C38.1477 26.1193 41.9684 27.0594 42.4626 27.0822C42.608 27.0943 42.7537 27.0638 42.8821 26.9944C42.9702 26.9429 43.0406 26.8657 43.0837 26.7732C43.5329 25.8901 43.9366 24.9846 44.2933 24.0602C44.8753 22.5379 45.6134 19.5485 44.0721 18.3742ZM41.5717 28.9559C40.4282 28.5985 39.3354 28.0956 38.32 27.4595C37.3362 26.8178 36.5361 25.9311 35.9984 24.8865C35.9399 24.7889 35.8748 24.8637 35.8163 24.9515C35.7578 25.0394 35.4196 25.4622 33.163 28.7737C30.9064 32.0851 27.5637 38.8577 30.695 40.0222C32.6915 40.7802 36.0634 37.241 37.8941 34.9249C39.264 33.1048 40.5298 31.2086 41.6855 29.2454C41.7602 29.0469 41.6855 29.0014 41.5749 28.9656M90.5702 30.9954H92.7682C92.7682 30.9954 81.755 46.9347 75.5347 46.193C72.062 45.7864 73.0928 41.4991 73.0928 41.4991C73.0928 41.4991 68.2153 47.2112 63.7346 46.0531C59.6701 45.0089 62.2942 38.2461 62.2942 38.2461C61.8324 38.4316 53.0368 48.3497 46.8555 45.9718C40.3881 43.4736 43.747 35.1689 44.9761 32.6707C46.0199 30.566 47.1742 28.5167 47.1742 28.5167C47.1742 28.5167 46.1824 28.7965 45.5484 28.9396C44.9143 29.0827 43.9974 29.2649 43.9974 29.2649C43.9974 29.2649 40.9376 34.2386 39.0679 36.7205C37.1982 39.2025 29.2513 47.7316 24.569 46.0336C19.8867 44.3356 21.0475 37.781 23.678 32.5763C27.9442 24.1351 38.0664 13.7615 44.1632 15.336C50.3217 16.9071 45.2232 26.9 45.2232 26.9C45.2232 26.9 46.4491 27.0594 49.3853 25.0556C53.6124 22.1703 59.1921 14.4089 65.2336 15.3197C68.082 15.7491 70.7353 18.6604 67.1065 24.1904C65.949 25.9664 64.0078 27.5539 62.5218 25.9827C61.5951 25.0068 62.4047 23.2275 63.3769 22.0109C63.7554 21.515 64.2498 21.1197 64.8168 20.8599C65.3839 20.6001 66.006 20.4838 66.6286 20.5211C66.6286 20.5211 67.6268 18.244 65.0873 18.2766C63.0323 18.3156 57.8297 23.1071 54.8935 27.9475C52.2012 32.3909 48.1204 39.9604 52.2174 41.6097C55.973 43.1255 63.1201 34.6387 66.4302 30.192C69.7403 25.7452 77.2841 15.6678 83.6117 15.2644C85.7903 15.1213 87.0877 17.1088 87.0877 17.1088L87.8193 15.9508H94.1469C94.1469 15.9508 82.2298 35.8455 81.2998 37.3516C80.5682 38.5292 79.596 41.177 82.2753 39.6937C84.9546 38.2104 90.5702 30.9954 90.5702 30.9954ZM87.1267 62.8739C82.4676 59.6475 76.8887 58.0188 71.2263 58.232C69.6937 58.2738 68.1926 58.6764 66.8446 59.4072C65.4966 60.138 64.3398 61.1763 63.468 62.438C61.0553 58.2255 56.2852 55.6394 48.9105 55.698C36.9934 55.8346 25.1738 61.332 15.8092 61.3255C6.83472 61.3255 0.289226 55.6817 0.500581 45.6595C0.894025 28.0711 15.7506 12.2327 26.8386 5.10557C33.2313 1.01017 38.5769 -0.206417 42.0724 0.187184C44.6217 0.470187 47.6879 3.41732 45.7532 7.75994C42.9113 14.1064 38.9866 13.5859 39.1329 10.5509C39.2142 8.57642 40.5279 7.33381 41.5164 6.64745C42.1439 6.21481 43.2527 6.0912 43.8315 6.07819C44.3941 5.60327 44.807 2.12917 40.2548 3.27094C35.7025 4.4127 30.1748 8.90171 24.9267 14.7016C19.6786 20.5016 11.5073 31.4638 9.48803 42.9759C8.54506 48.3139 9.16287 58.0498 21.8149 57.9392C32.5452 57.8514 48.361 50.7828 62.8957 50.9292C68.5373 50.9845 73.4472 52.5069 77.2743 54.8685C81.0332 57.1846 85.5399 60.5676 87.1397 62.8771" fill="#B0B0B0"/>
</g>
<defs>
<clipPath id="clip0_228_65467">
<rect width="200" height="62.7615" fill="white" transform="translate(0.5 0.119141)"/>
</clipPath>
</defs>
</svg>
