<svg width="200" height="84" viewBox="0 0 200 84" fill="none" xmlns="http://www.w3.org/2000/svg">
<path d="M172.052 36.6898C168.709 37.4602 159.881 37.8881 159.881 37.8881L158.795 41.3688C158.795 41.3688 163.167 40.9979 166.366 41.3118C166.366 41.3118 167.395 41.2262 167.509 42.453C167.566 43.7083 167.423 45.0207 167.423 45.0207C167.423 45.0207 167.338 45.791 166.281 45.9907C165.052 46.1905 156.767 46.5614 156.767 46.5614L155.424 51.0692C155.424 51.0692 154.939 52.0963 156.053 51.811C157.081 51.5257 165.766 49.8709 166.909 50.0991C168.109 50.3844 169.48 52.0392 169.08 53.5228C168.623 55.3202 159.938 60.8551 154.682 60.4842C154.682 60.4842 151.91 60.6554 149.596 56.9179C147.368 53.3516 150.368 46.6469 150.368 46.6469C150.368 46.6469 149.025 43.5086 150.025 42.3674C150.025 42.3674 150.596 41.8824 152.31 41.7397L154.453 37.346C154.453 37.346 152.025 37.4887 150.596 35.7198C149.282 34.008 149.168 33.2662 150.196 32.8097C151.282 32.2391 161.338 30.4417 168.252 30.6699C168.252 30.6699 170.68 30.3846 172.823 34.5786C172.823 34.5786 173.794 36.2904 172.08 36.6898M145.996 53.5798C145.139 55.6626 142.768 57.8594 139.911 56.5185C136.997 55.149 132.398 45.791 132.398 45.791C132.398 45.791 130.683 42.3103 130.341 42.4244C130.341 42.4244 129.969 41.7397 129.769 45.5628C129.483 49.3573 129.826 56.7467 128.255 57.9165C126.827 59.0577 125.112 58.5727 124.141 57.2317C123.341 55.8908 122.998 52.6669 123.455 47.0464C123.97 41.4259 125.255 35.4345 126.884 33.58C128.598 31.697 129.969 33.0665 130.483 33.58C130.483 33.58 132.683 35.5771 136.397 41.4829L137.026 42.5671C137.026 42.5671 140.397 48.1876 140.74 48.1591C140.74 48.1591 141.025 48.4444 141.254 48.2161C141.597 48.1305 141.483 46.3046 141.483 46.3046C141.483 46.3046 140.854 40.2276 137.711 29.9567C137.711 29.9567 137.254 28.6443 137.569 27.3889C137.854 26.2477 139.083 26.8183 139.083 26.8183C139.083 26.8183 143.825 29.1007 146.139 36.804C148.425 44.5072 146.882 51.4971 146.025 53.5798M122.741 33.8083C122.284 34.6071 122.084 35.7198 120.113 36.0336C120.113 36.0336 100.971 37.3746 100.029 38.7155C100.029 38.7155 99.4 39.5143 100.429 39.7141C101.514 39.9423 105.857 40.5129 107.914 40.627C110.142 40.627 117.627 40.6841 120.37 44.0507C120.37 44.0507 121.941 45.6484 121.884 49.2717C121.827 52.9807 121.17 54.2931 119.713 55.634C118.199 56.8894 105.228 62.7096 96.8574 53.8081C96.8574 53.8081 93.0291 49.5285 98.2001 46.2761C98.2001 46.2761 101.914 43.9936 111.428 46.6469C111.428 46.6469 114.285 47.674 114.17 48.7297C113.999 49.8709 111.799 51.0121 108.599 50.955C105.514 50.8695 103.228 49.3859 103.685 49.6426C104.114 49.7853 100.343 47.8167 99.1715 49.1576C98.0287 50.413 98.3144 51.1548 99.4572 51.9251C102.314 53.5798 113.542 52.9807 116.884 49.2432C116.884 49.2432 118.227 47.7311 116.199 46.5043C114.199 45.3631 108.371 44.6498 106.114 44.5642C103.971 44.4501 95.9432 44.5642 94.7433 42.4815C94.7433 42.4815 93.6005 40.9979 94.8575 36.9466C96.1717 32.667 105.514 31.0123 109.571 30.6699C109.571 30.6699 120.713 30.2134 122.798 32.4959C122.798 32.4959 123.084 33.0094 122.741 33.7797M91.1435 58.8865C89.8008 59.8851 86.9439 59.4571 86.1154 58.3159C85.3154 57.3173 85.0297 53.3801 85.1726 47.189C85.3726 40.8553 85.4583 33.095 86.8867 31.8397C88.3152 30.6128 89.1723 31.697 89.7436 32.5244C90.315 33.3803 91.0578 34.3218 91.1721 36.2904C91.3435 38.2875 91.8292 48.5585 91.8292 48.5585C91.8292 48.5585 92.4577 57.9165 91.1721 58.8865M94.0005 25.5059C90.0579 26.8468 87.3724 26.4189 85.0869 25.4203C84.0869 27.2177 83.487 27.7598 82.7442 27.8739C81.6014 27.9881 80.6015 26.1621 80.4586 25.5915C80.2301 25.1635 79.6873 24.3932 80.3444 22.6529C78.116 20.6557 77.9446 17.9739 78.3445 16.1765C78.8588 14.0652 82.6299 6.13375 94.0576 5.19225C94.0576 5.19225 99.6572 4.79282 100.629 7.75998H100.8C100.8 7.75998 106.228 7.75998 106.114 12.6102C106.114 17.4603 100.114 23.5088 94.0005 25.5915M99.0858 11.6972C95.4861 12.2678 89.9436 17.0609 87.2867 21.0266C91.3721 21.7684 98.5144 21.4831 101.714 15.0352C101.714 15.0352 103.228 10.9839 99.0858 11.6972ZM83.287 14.8355C82.1442 16.69 82.0871 17.8027 82.6299 18.5445C83.9727 16.5474 86.3439 13.409 89.9151 10.9554C87.1724 11.2407 84.8583 12.3819 83.287 14.8355ZM180.622 58.6868C177.994 65.1347 175.766 71.6681 174.48 81.4541C174.48 81.4541 174.194 83.3656 172.623 82.7379C171.052 82.1673 168.48 79.5996 167.909 75.9762C167.338 71.2402 169.452 63.2517 173.766 54.0649C172.509 52.0677 171.623 49.1006 172.337 44.9351C172.337 44.9351 173.48 37.2319 181.194 30.2705C181.194 30.2705 182.108 29.5002 182.622 29.7569C183.251 30.0422 182.994 32.4959 182.479 33.7512C182.022 34.9495 178.594 40.8838 178.594 40.8838C178.594 40.8838 176.451 44.9351 177.051 48.102C181.108 41.8824 190.336 29.2719 196.05 33.2662C199.678 35.8339 199.678 44.1077 196.964 48.9008C194.821 52.6954 188.765 60.5413 180.68 58.7153M192.564 39.3146C190.45 41.5971 186.679 45.9337 183.708 51.811C186.85 51.4686 189.907 49.7282 190.85 48.8438C192.364 47.5029 195.85 43.8795 195.307 39.0864C195.307 39.0864 194.964 36.5757 192.564 39.3146ZM64.5741 62.0534C54.4606 65.1347 44.9185 63.7081 39.7189 62.3387C39.5761 64.4499 39.3475 65.3344 39.0047 65.6767C38.6047 66.1332 35.2907 68.0162 33.4622 65.3344C32.6623 64.0505 32.2623 61.7395 32.0338 59.6283C20.3204 54.3216 14.8922 46.5043 14.7208 46.219C14.4351 45.9337 11.7782 43.1662 14.4351 39.7426C16.9207 36.6613 25.1486 33.5515 32.5195 32.3247C32.8052 26.048 33.4908 21.1978 34.3765 19.058C35.4335 16.4903 36.7763 18.7727 37.9762 20.4846C38.9475 21.7684 39.5475 27.2748 39.6046 31.6685C44.4043 31.4402 47.3183 31.7826 52.6608 32.8097C59.6888 34.008 64.3742 37.6028 64.0028 41.6541C63.6599 45.6484 60.0031 47.3031 58.5746 47.4173C57.1461 47.5314 54.8606 46.4758 54.8606 46.4758C53.2607 45.734 54.7178 45.0492 56.5748 44.2504C58.6317 43.2518 58.1746 42.2533 58.1746 42.2533C57.4318 39.9708 48.3183 38.4587 39.2618 38.4587C39.2618 43.4515 39.4618 51.7254 39.6046 56.547C45.947 57.7453 50.6895 57.4885 50.6895 57.4885C50.6895 57.4885 73.8306 56.8323 74.4877 42.0821C75.2019 27.3033 51.3466 13.1522 33.7765 8.70149C16.235 4.10809 6.29291 7.36056 5.43583 7.78851C4.49304 8.245 5.35012 8.41618 5.35012 8.41618C5.35012 8.41618 6.29291 8.55884 8.00706 9.12944C9.72121 9.70005 8.34989 10.556 8.34989 10.556C5.35012 11.5831 2.00752 10.9839 1.35043 9.61446C0.693335 8.27353 1.77897 7.04672 3.06458 5.24931C4.26449 3.39483 5.63581 3.45189 5.63581 3.45189C27.3484 -4.10867 53.8607 9.44328 53.8607 9.44328C78.6588 21.9396 82.887 36.6328 82.4299 42.3389C82.03 47.9593 79.8587 57.46 64.5741 62.0819M16.8635 41.6541C14.4066 42.7953 16.1207 44.6213 16.1207 44.6213C20.7489 49.557 26.4056 52.6669 31.8338 54.6069C32.4623 46.0478 32.4052 42.9951 32.4052 38.687C24.0058 39.2576 19.1491 40.627 16.8635 41.6541Z" fill="#383838"/>
</svg>
