<svg width="201" height="85" viewBox="0 0 201 85" fill="none" xmlns="http://www.w3.org/2000/svg">
<path d="M172.552 37.1898C169.209 37.9602 160.381 38.3881 160.381 38.3881L159.295 41.8688C159.295 41.8688 163.667 41.4979 166.866 41.8118C166.866 41.8118 167.895 41.7262 168.009 42.953C168.066 44.2083 167.923 45.5207 167.923 45.5207C167.923 45.5207 167.838 46.291 166.781 46.4907C165.552 46.6905 157.267 47.0614 157.267 47.0614L155.924 51.5692C155.924 51.5692 155.439 52.5963 156.553 52.311C157.581 52.0257 166.266 50.3709 167.409 50.5991C168.609 50.8844 169.98 52.5392 169.58 54.0228C169.123 55.8202 160.438 61.3551 155.182 60.9842C155.182 60.9842 152.41 61.1554 150.096 57.4179C147.868 53.8516 150.868 47.1469 150.868 47.1469C150.868 47.1469 149.525 44.0086 150.525 42.8674C150.525 42.8674 151.096 42.3824 152.81 42.2397L154.953 37.846C154.953 37.846 152.525 37.9887 151.096 36.2198C149.782 34.508 149.668 33.7662 150.696 33.3097C151.782 32.7391 161.838 30.9417 168.752 31.1699C168.752 31.1699 171.18 30.8846 173.323 35.0786C173.323 35.0786 174.294 36.7904 172.58 37.1898M146.496 54.0798C145.639 56.1626 143.268 58.3594 140.411 57.0185C137.497 55.649 132.898 46.291 132.898 46.291C132.898 46.291 131.183 42.8103 130.841 42.9244C130.841 42.9244 130.469 42.2397 130.269 46.0628C129.983 49.8573 130.326 57.2467 128.755 58.4165C127.327 59.5577 125.612 59.0727 124.641 57.7317C123.841 56.3908 123.498 53.1669 123.955 47.5464C124.47 41.9259 125.755 35.9345 127.384 34.08C129.098 32.197 130.469 33.5665 130.983 34.08C130.983 34.08 133.183 36.0771 136.897 41.9829L137.526 43.0671C137.526 43.0671 140.897 48.6876 141.24 48.6591C141.24 48.6591 141.525 48.9444 141.754 48.7161C142.097 48.6305 141.983 46.8046 141.983 46.8046C141.983 46.8046 141.354 40.7276 138.211 30.4567C138.211 30.4567 137.754 29.1443 138.069 27.8889C138.354 26.7477 139.583 27.3183 139.583 27.3183C139.583 27.3183 144.325 29.6007 146.639 37.304C148.925 45.0072 147.382 51.9971 146.525 54.0798M123.241 34.3083C122.784 35.1071 122.584 36.2198 120.613 36.5336C120.613 36.5336 101.471 37.8746 100.529 39.2155C100.529 39.2155 99.9 40.0143 100.929 40.2141C102.014 40.4423 106.357 41.0129 108.414 41.127C110.642 41.127 118.127 41.1841 120.87 44.5507C120.87 44.5507 122.441 46.1484 122.384 49.7717C122.327 53.4807 121.67 54.7931 120.213 56.134C118.699 57.3894 105.728 63.2096 97.3574 54.3081C97.3574 54.3081 93.5291 50.0285 98.7001 46.7761C98.7001 46.7761 102.414 44.4936 111.928 47.1469C111.928 47.1469 114.785 48.174 114.67 49.2297C114.499 50.3709 112.299 51.5121 109.099 51.455C106.014 51.3695 103.728 49.8859 104.185 50.1426C104.614 50.2853 100.843 48.3167 99.6715 49.6576C98.5287 50.913 98.8144 51.6548 99.9572 52.4251C102.814 54.0798 114.042 53.4807 117.384 49.7432C117.384 49.7432 118.727 48.2311 116.699 47.0043C114.699 45.8631 108.871 45.1498 106.614 45.0642C104.471 44.9501 96.4432 45.0642 95.2433 42.9815C95.2433 42.9815 94.1005 41.4979 95.3575 37.4466C96.6717 33.167 106.014 31.5123 110.071 31.1699C110.071 31.1699 121.213 30.7134 123.298 32.9959C123.298 32.9959 123.584 33.5094 123.241 34.2797M91.6435 59.3865C90.3008 60.3851 87.4439 59.9571 86.6154 58.8159C85.8154 57.8173 85.5297 53.8801 85.6726 47.689C85.8726 41.3553 85.9583 33.595 87.3867 32.3397C88.8152 31.1128 89.6723 32.197 90.2436 33.0244C90.815 33.8803 91.5578 34.8218 91.6721 36.7904C91.8435 38.7875 92.3292 49.0585 92.3292 49.0585C92.3292 49.0585 92.9577 58.4165 91.6721 59.3865M94.5005 26.0059C90.5579 27.3468 87.8724 26.9189 85.5869 25.9203C84.5869 27.7177 83.987 28.2598 83.2442 28.3739C82.1014 28.4881 81.1015 26.6621 80.9586 26.0915C80.7301 25.6635 80.1873 24.8932 80.8444 23.1529C78.616 21.1557 78.4446 18.4739 78.8445 16.6765C79.3588 14.5652 83.1299 6.63375 94.5576 5.69225C94.5576 5.69225 100.157 5.29282 101.129 8.25998H101.3C101.3 8.25998 106.728 8.25998 106.614 13.1102C106.614 17.9603 100.614 24.0088 94.5005 26.0915M99.5858 12.1972C95.9861 12.7678 90.4436 17.5609 87.7867 21.5266C91.8721 22.2684 99.0144 21.9831 102.214 15.5352C102.214 15.5352 103.728 11.4839 99.5858 12.1972ZM83.787 15.3355C82.6442 17.19 82.5871 18.3027 83.1299 19.0445C84.4727 17.0474 86.8439 13.909 90.4151 11.4554C87.6724 11.7407 85.3583 12.8819 83.787 15.3355ZM181.122 59.1868C178.494 65.6347 176.266 72.1681 174.98 81.9541C174.98 81.9541 174.694 83.8656 173.123 83.2379C171.552 82.6673 168.98 80.0996 168.409 76.4762C167.838 71.7402 169.952 63.7517 174.266 54.5649C173.009 52.5677 172.123 49.6006 172.837 45.4351C172.837 45.4351 173.98 37.7319 181.694 30.7705C181.694 30.7705 182.608 30.0002 183.122 30.2569C183.751 30.5422 183.494 32.9959 182.979 34.2512C182.522 35.4495 179.094 41.3838 179.094 41.3838C179.094 41.3838 176.951 45.4351 177.551 48.602C181.608 42.3824 190.836 29.7719 196.55 33.7662C200.178 36.3339 200.178 44.6077 197.464 49.4008C195.321 53.1954 189.265 61.0413 181.18 59.2153M193.064 39.8146C190.95 42.0971 187.179 46.4337 184.208 52.311C187.35 51.9686 190.407 50.2282 191.35 49.3438C192.864 48.0029 196.35 44.3795 195.807 39.5864C195.807 39.5864 195.464 37.0757 193.064 39.8146ZM65.0741 62.5534C54.9606 65.6347 45.4185 64.2081 40.2189 62.8387C40.0761 64.9499 39.8475 65.8344 39.5047 66.1767C39.1047 66.6332 35.7907 68.5162 33.9622 65.8344C33.1623 64.5505 32.7623 62.2395 32.5338 60.1283C20.8204 54.8216 15.3922 47.0043 15.2208 46.719C14.9351 46.4337 12.2782 43.6662 14.9351 40.2426C17.4207 37.1613 25.6486 34.0515 33.0195 32.8247C33.3052 26.548 33.9908 21.6978 34.8765 19.558C35.9335 16.9903 37.2763 19.2727 38.4762 20.9846C39.4475 22.2684 40.0475 27.7748 40.1046 32.1685C44.9043 31.9402 47.8183 32.2826 53.1608 33.3097C60.1888 34.508 64.8742 38.1028 64.5028 42.1541C64.1599 46.1484 60.5031 47.8031 59.0746 47.9173C57.6461 48.0314 55.3606 46.9758 55.3606 46.9758C53.7607 46.234 55.2178 45.5492 57.0748 44.7504C59.1317 43.7518 58.6746 42.7533 58.6746 42.7533C57.9318 40.4708 48.8183 38.9587 39.7618 38.9587C39.7618 43.9515 39.9618 52.2254 40.1046 57.047C46.447 58.2453 51.1895 57.9885 51.1895 57.9885C51.1895 57.9885 74.3306 57.3323 74.9877 42.5821C75.7019 27.8033 51.8466 13.6522 34.2765 9.20149C16.735 4.60809 6.79291 7.86056 5.93583 8.28851C4.99304 8.745 5.85012 8.91618 5.85012 8.91618C5.85012 8.91618 6.79291 9.05884 8.50706 9.62944C10.2212 10.2001 8.84989 11.056 8.84989 11.056C5.85012 12.0831 2.50752 11.4839 1.85043 10.1145C1.19334 8.77353 2.27897 7.54672 3.56458 5.74931C4.76449 3.89483 6.13581 3.95189 6.13581 3.95189C27.8484 -3.60867 54.3607 9.94328 54.3607 9.94328C79.1588 22.4396 83.387 37.1328 82.9299 42.8389C82.53 48.4593 80.3587 57.96 65.0741 62.5819M17.3635 42.1541C14.9066 43.2953 16.6207 45.1213 16.6207 45.1213C21.2489 50.057 26.9056 53.1669 32.3338 55.1069C32.9623 46.5478 32.9052 43.4951 32.9052 39.187C24.5058 39.7576 19.6491 41.127 17.3635 42.1541Z" fill="#B0B0B0"/>
</svg>
