<svg width="91" height="97" viewBox="0 0 91 97" fill="none" xmlns="http://www.w3.org/2000/svg">
<path d="M55.0151 43.3316C42.2629 45.8903 35.3127 48.9793 35.3127 48.9793C29.945 51.1635 23.1201 54.7975 19.4888 59.8066C16.9364 63.3275 17.9357 65.9717 18.8718 67.9683C20.802 70.9311 22.9027 73.8149 25.0556 76.5881C26.4759 78.4175 29.9323 82.1027 29.9323 82.1027C31.4759 83.7222 33.4804 85.789 35.2931 87.4101C38.914 90.648 41.1564 92.6037 44.0185 93.0751C45.2415 93.2766 47.2833 93.0099 47.4618 92.9821C50.1503 92.5167 53.0492 89.7934 56.2248 86.9137C59.9868 83.5023 62.8881 80.3412 66.0795 76.4093C68.5225 73.3996 70.8106 70.176 72.8678 66.7952C76.2624 61.2165 79.0281 55.4253 80.8229 51.0474C82.4881 46.9861 83.6549 43.2633 84.5004 39.9157C80.6188 39.8824 67.1059 40.9058 55.0151 43.3316Z" fill="#B0B0B0"/>
<path fill-rule="evenodd" clip-rule="evenodd" d="M74.5197 8.82836C78.0374 10.2144 81.8385 11.7856 83.574 13.3997C86.8511 16.448 87.1687 20.1502 87.1778 24.0004C87.1614 24.1429 87.1414 24.3722 87.1143 24.6836C87.0262 25.6954 86.8628 27.5738 86.5 30.1523C86.3183 31.4432 86.0305 32.849 85.7203 34.3642C85.6226 34.8416 85.5226 35.3298 85.4231 35.8287L85.3935 35.9746L69.1313 36.152C58.7849 36.341 43.0075 36.7167 30.5101 38.3141C15.532 40.2287 10.0317 43.3595 8.19691 45.5576C7.69408 43.9918 7.25095 42.4696 6.8435 41.0214C5.55375 36.4372 4.97323 32.8177 4.60208 30.494C3.96155 26.4834 3.79264 24.2962 3.79053 24.1626C3.79133 20.2543 4.19531 16.4284 7.51853 13.3373C8.41534 12.5032 9.67003 11.7947 11.587 10.9005C13.5423 9.98829 15.8269 9.01945 18.4993 8.14409C20.6293 7.4464 23.1505 6.65741 25.3792 6.12472C34.921 3.84412 42.614 3.79102 44.0592 3.79102L44.6514 3.79701L46.4871 3.80587C47.4969 3.80793 49.1787 3.81136 49.5123 3.82453L56.7158 4.45139C57.9449 4.56765 61.4954 5.14471 65.2128 6.0142C68.6144 6.80981 71.6251 7.75137 72.5888 8.13723C72.8863 8.25634 73.2372 8.37608 73.586 8.49509C73.9147 8.60722 74.2414 8.71869 74.5197 8.82836ZM80.0955 17.6416H75.3173L72.7317 29.7897H77.5306L80.0955 17.6416ZM74.3452 17.6416H63.6303L62.9271 20.8866H65.9263L64.0026 29.7897H68.8223L70.6839 20.8658H73.6781L74.3452 17.6416ZM62.5548 29.7897H57.5904L57.5691 27.8344H54.0327L53.143 29.7897H48.551L54.9841 17.6415H61.2309L62.5548 29.7897ZM55.3671 24.9013L57.4869 20.2417L57.5374 24.9013H55.3671ZM50.392 22.0931H46.0482C46.1309 21.4067 46.2344 20.3873 45.2415 20.4082C44.2486 20.429 43.773 21.1363 43.2351 23.2788C42.6972 25.4214 42.6766 27.0231 43.7936 26.9815C44.9106 26.9399 45.2829 25.2966 45.2829 25.2966H49.7301C49.7301 25.2966 49.4188 27.1375 47.9033 28.4509C46.3585 29.7897 44.6188 30.0712 43.1109 30.1018C35.9333 30.2473 38.4155 22.6963 38.4155 22.6963C38.4155 22.6963 39.7392 17.2463 45.8206 17.2463C51.902 17.2463 50.392 22.0931 50.392 22.0931ZM31.5894 17.6416H26.7698L24.9961 26.0298C24.9947 26.0419 24.9932 26.0548 24.9917 26.0676C24.8768 27.0489 24.5122 30.1634 30.1467 30.1038C35.8557 30.0435 36.4918 26.1078 36.4918 26.1078L38.2758 17.6416H33.4821L31.8377 25.4994C31.7601 25.8271 31.4964 26.8411 30.55 26.8411C29.6037 26.8411 29.8829 25.5618 29.8829 25.5618L31.5894 17.6416ZM13.4695 17.6416H19.8817C20.523 17.6416 25.5494 17.704 24.329 23.5909C23.006 29.9729 17.2341 29.7898 17.2341 29.7898H10.9252L13.4695 17.6416ZM19.5451 22.2804C19.5114 23.6453 18.9449 25.3497 18.5166 26.0455C17.7098 27.356 16.1999 27.0023 16.1999 27.0023L17.5857 20.3874C18.3703 20.2653 18.8891 20.4199 19.2131 20.7477C19.5621 21.1008 19.5605 21.655 19.5451 22.2804Z" fill="#B0B0B0"/>
</svg>
