<svg width="90" height="96" viewBox="0 0 90 96" fill="none" xmlns="http://www.w3.org/2000/svg">
<path d="M54.5151 42.8316C41.7629 45.3903 34.8127 48.4793 34.8127 48.4793C29.445 50.6635 22.6201 54.2975 18.9888 59.3066C16.4364 62.8275 17.4357 65.4717 18.3718 67.4683C20.302 70.4311 22.4027 73.3149 24.5556 76.0881C25.9759 77.9175 29.4323 81.6027 29.4323 81.6027C30.9759 83.2222 32.9804 85.289 34.7931 86.9101C38.414 90.148 40.6564 92.1037 43.5185 92.5751C44.7415 92.7766 46.7833 92.5099 46.9618 92.4821C49.6503 92.0167 52.5492 89.2934 55.7248 86.4137C59.4868 83.0023 62.3881 79.8412 65.5795 75.9093C68.0225 72.8996 70.3106 69.676 72.3678 66.2952C75.7624 60.7165 78.5281 54.9253 80.3229 50.5474C81.9881 46.4861 83.1549 42.7633 84.0004 39.4157C80.1188 39.3824 66.6059 40.4058 54.5151 42.8316Z" fill="#383838"/>
<path fill-rule="evenodd" clip-rule="evenodd" d="M74.0197 8.32836C77.5374 9.71445 81.3385 11.2856 83.074 12.8997C86.3511 15.948 86.6687 19.6502 86.6778 23.5004C86.6614 23.6429 86.6414 23.8722 86.6143 24.1836C86.5262 25.1954 86.3628 27.0738 86 29.6523C85.8183 30.9432 85.5305 32.349 85.2203 33.8642C85.1226 34.3416 85.0226 34.8298 84.9231 35.3287L84.8935 35.4746L68.6313 35.652C58.2849 35.841 42.5075 36.2167 30.0101 37.8141C15.032 39.7287 9.53168 42.8595 7.69691 45.0576C7.19408 43.4918 6.75095 41.9696 6.3435 40.5214C5.05375 35.9372 4.47323 32.3177 4.10208 29.994C3.46155 25.9834 3.29264 23.7962 3.29053 23.6626C3.29133 19.7543 3.69531 15.9284 7.01853 12.8373C7.91534 12.0032 9.17003 11.2947 11.087 10.4005C13.0423 9.48829 15.3269 8.51945 17.9993 7.64409C20.1293 6.9464 22.6505 6.15741 24.8792 5.62472C34.421 3.34412 42.114 3.29102 43.5592 3.29102L44.1514 3.29701L45.9871 3.30587C46.9969 3.30793 48.6787 3.31136 49.0123 3.32453L56.2158 3.95139C57.4449 4.06765 60.9954 4.64471 64.7128 5.5142C68.1144 6.30981 71.1251 7.25137 72.0888 7.63723C72.3863 7.75634 72.7372 7.87608 73.086 7.99509C73.4147 8.10722 73.7414 8.21869 74.0197 8.32836ZM79.5955 17.1416H74.8173L72.2317 29.2897H77.0306L79.5955 17.1416ZM73.8452 17.1416H63.1303L62.4271 20.3866H65.4263L63.5026 29.2897H68.3223L70.1839 20.3658H73.1781L73.8452 17.1416ZM62.0548 29.2897H57.0904L57.0691 27.3344H53.5327L52.643 29.2897H48.051L54.4841 17.1415H60.7309L62.0548 29.2897ZM54.8671 24.4013L56.9869 19.7417L57.0374 24.4013H54.8671ZM49.892 21.5931H45.5482C45.6309 20.9067 45.7344 19.8873 44.7415 19.9082C43.7486 19.929 43.273 20.6363 42.7351 22.7788C42.1972 24.9214 42.1766 26.5231 43.2936 26.4815C44.4106 26.4399 44.7829 24.7966 44.7829 24.7966H49.2301C49.2301 24.7966 48.9188 26.6375 47.4033 27.9509C45.8585 29.2897 44.1188 29.5712 42.6109 29.6018C35.4333 29.7473 37.9155 22.1963 37.9155 22.1963C37.9155 22.1963 39.2392 16.7463 45.3206 16.7463C51.402 16.7463 49.892 21.5931 49.892 21.5931ZM31.0894 17.1416H26.2698L24.4961 25.5298C24.4947 25.5419 24.4932 25.5548 24.4917 25.5676C24.3768 26.5489 24.0122 29.6634 29.6467 29.6038C35.3557 29.5435 35.9918 25.6078 35.9918 25.6078L37.7758 17.1416H32.9821L31.3377 24.9994C31.2601 25.3271 30.9964 26.3411 30.05 26.3411C29.1037 26.3411 29.3829 25.0618 29.3829 25.0618L31.0894 17.1416ZM12.9695 17.1416H19.3817C20.023 17.1416 25.0494 17.204 23.829 23.0909C22.506 29.4729 16.7341 29.2898 16.7341 29.2898H10.4252L12.9695 17.1416ZM19.0451 21.7804C19.0114 23.1453 18.4449 24.8497 18.0166 25.5455C17.2098 26.856 15.6999 26.5023 15.6999 26.5023L17.0857 19.8874C17.8703 19.7653 18.3891 19.9199 18.7131 20.2477C19.0621 20.6008 19.0605 21.155 19.0451 21.7804Z" fill="#383838"/>
</svg>
