<svg width="201" height="33" viewBox="0 0 201 33" fill="none" xmlns="http://www.w3.org/2000/svg">
<g clip-path="url(#clip0_228_65409)">
<path d="M132.57 0.498698C124.273 0.443425 114.159 3.89265 114.105 16.4191C114.052 28.8199 124.379 32.7336 132.57 32.4876C140.183 32.2603 148.589 30.1394 148.973 20.8045L140.558 20.8232C140.32 26.6893 135.651 27.8527 132.57 27.8625C129.408 27.8741 122.974 27.2072 122.873 16.5449C122.777 6.48068 128.683 5.05784 132.57 5.10063C136.457 5.14343 140.313 6.9612 140.357 11.5435L148.717 11.5364C148.632 5.92616 143.794 0.574476 132.57 0.498698ZM0.5 1.06748V31.8796H8.63709V18.2815H25.1051V31.8796H33.2805V1.06659H25.1051V13.3987H8.63709V1.06659L0.5 1.06748ZM40.0312 1.06748V31.8778H48.2243V1.06748H40.0312ZM51.2568 1.06748V6.1642H63.1903V31.8733H71.2954V6.16331H83.2316V1.06659L51.2568 1.06748ZM152.963 1.06748V31.8796H161.1V18.2815H177.569V31.8796H185.706V1.06659H177.569V13.3987H161.101V1.06659L152.963 1.06748ZM192.298 1.06748V31.8778H200.5V1.06748H192.298ZM90.8004 1.11294L76.2292 31.8787H85.3721L88.2134 24.966L103.61 24.9606L106.444 31.8787H115.609L101.105 1.11294H90.8004ZM95.9254 6.31575L101.556 20.0627L90.2473 20.0699L95.9254 6.31575Z" fill="#B0B0B0"/>
</g>
<defs>
<clipPath id="clip0_228_65409">
<rect width="200" height="32" fill="white" transform="translate(0.5 0.5)"/>
</clipPath>
</defs>
</svg>
