<svg width="200" height="32" viewBox="0 0 200 32" fill="none" xmlns="http://www.w3.org/2000/svg">
<g clip-path="url(#clip0_228_65189)">
<path d="M132.07 -0.001302C123.773 -0.0565752 113.659 3.39265 113.605 15.9191C113.552 28.3199 123.879 32.2336 132.07 31.9876C139.683 31.7603 148.089 29.6394 148.473 20.3045L140.058 20.3232C139.82 26.1893 135.151 27.3527 132.07 27.3625C128.908 27.3741 122.474 26.7072 122.373 16.0449C122.277 5.98068 128.183 4.55784 132.07 4.60063C135.957 4.64343 139.813 6.4612 139.857 11.0435L148.217 11.0364C148.132 5.42616 143.294 0.0744757 132.07 -0.001302ZM0 0.567477V31.3796H8.13709V17.7815H24.6051V31.3796H32.7805V0.566585H24.6051V12.8987H8.13709V0.566585L0 0.567477ZM39.5312 0.567477V31.3778H47.7243V0.567477H39.5312ZM50.7568 0.567477V5.6642H62.6903V31.3733H70.7954V5.66331H82.7316V0.566585L50.7568 0.567477ZM152.463 0.567477V31.3796H160.6V17.7815H177.069V31.3796H185.206V0.566585H177.069V12.8987H160.601V0.566585L152.463 0.567477ZM191.798 0.567477V31.3778H200V0.567477H191.798ZM90.3004 0.612943L75.7292 31.3787H84.8721L87.7134 24.466L103.11 24.4606L105.944 31.3787H115.109L100.605 0.612943H90.3004ZM95.4254 5.81575L101.056 19.5627L89.7473 19.5699L95.4254 5.81575Z" fill="#383838"/>
</g>
<defs>
<clipPath id="clip0_228_65189">
<rect width="200" height="32" fill="white"/>
</clipPath>
</defs>
</svg>
