<svg width="221" height="67" viewBox="0 0 221 67" fill="none" xmlns="http://www.w3.org/2000/svg">
<g clip-path="url(#clip0_228_65413)">
<path d="M0.500061 0.834961V66.1571H45.4143V0.834961H0.500061ZM38.9183 59.5808H6.97293V7.41567H38.9183V59.5808Z" fill="#B0B0B0"/>
<path d="M72.1802 23.6102H72.1172C68.5342 17.7647 64.9169 12.6014 61.2687 7.4037H58.485V30.14H61.5572V13.8338H61.5882C65.2066 19.7136 68.8216 24.9113 72.471 30.14H75.2547V7.4037H72.1802V23.6102ZM94.3582 30.14L87.2209 7.4037H84.0226L76.2773 30.14H79.605L81.5584 23.9358H88.3088L90.0699 30.14H94.3582ZM82.549 21.1409C83.4456 18.1523 84.3421 15.3962 85.1414 11.8839H85.2067C86.1033 15.3951 86.9025 18.1523 87.735 21.1409H82.549ZM97.9733 30.14H101.814V10.4576H107.703V7.4037H92.0864V10.4576H97.9744L97.9733 30.14ZM112.758 7.4037H108.95V30.14H112.758V7.4037ZM124.601 30.5275C130.458 30.5275 134.106 25.2346 134.106 18.4457C134.106 12.0798 130.072 7.01172 124.601 7.01172C119.128 7.01172 115.093 12.0798 115.093 18.4457C115.093 25.2357 118.742 30.5275 124.601 30.5275ZM124.601 10.2617C128.41 10.2617 130.008 14.2557 130.008 18.4468C130.008 22.7986 128.602 27.2809 124.601 27.2809C120.6 27.2809 119.193 22.7997 119.193 18.4468C119.193 14.2557 120.792 10.2617 124.601 10.2617ZM139.511 13.8338H139.547C143.162 19.7136 146.777 24.9113 150.426 30.14H153.21V7.4037H150.138V23.6102H150.074C146.49 17.7647 142.873 12.6014 139.225 7.4037H136.441V30.14H139.511V13.8338ZM159.511 23.9358H166.266L168.026 30.14H172.313L165.178 7.4037H161.978L154.231 30.14H157.563L159.511 23.9358ZM163.1 11.8839H163.163C164.057 15.3951 164.858 18.1523 165.692 21.1409H160.504C161.403 18.1523 162.296 15.3951 163.1 11.8839ZM184.826 27.0849H177.243V7.4037H173.433V30.14H184.827L184.826 27.0849ZM69.0494 56.1439C68.2479 56.5669 67.3856 56.6976 66.3618 56.6976C63.0663 56.6976 59.8658 53.513 59.8658 48.1226C59.8658 42.9592 62.6495 39.6772 66.7466 39.6772C68.2191 39.6772 69.8188 40.2286 70.8425 40.8775L72.0896 38.1834C70.8105 37.2068 68.7299 36.4284 66.6493 36.4284C59.9299 36.4284 55.7687 41.853 55.7687 48.0562C55.7687 54.7476 59.9299 59.9453 66.5199 59.9453C68.6967 59.9453 70.8414 59.3639 72.8911 58.5479V49.159H69.0494V56.1439ZM80.2163 49.1613H86.4902V46.1095H80.2163V39.8732H86.6184V36.8203H76.3779V59.5566H87.7704V56.5005H80.2163V49.1613ZM98.4597 36.4295C92.9863 36.4295 88.9555 41.4965 88.9555 47.8635C88.9555 54.6513 92.6026 59.9464 98.4597 59.9464C104.316 59.9464 107.963 54.6513 107.963 47.8635C107.963 41.4965 103.931 36.4295 98.4597 36.4295ZM98.4597 56.6976C94.4577 56.6976 93.0504 52.2152 93.0504 47.8624C93.0504 43.6712 94.6501 39.6761 98.4597 39.6761C102.267 39.6761 103.867 43.6701 103.867 47.8624C103.867 52.2152 102.461 56.6976 98.4597 56.6976ZM122.557 56.1439C121.758 56.5669 120.892 56.6976 119.868 56.6976C116.572 56.6976 113.371 53.513 113.371 48.1226C113.371 42.9592 116.156 39.6772 120.254 39.6772C121.726 39.6772 123.326 40.2286 124.347 40.8775L125.596 38.1834C124.317 37.2068 122.235 36.4284 120.154 36.4284C113.436 36.4284 109.276 41.853 109.276 48.0562C109.276 54.7476 113.436 59.9453 120.03 59.9453C122.203 59.9453 124.347 59.3639 126.398 58.5479V49.159H122.557V56.1439ZM142.847 43.3822C142.847 38.9619 140.189 36.8203 135.903 36.8203H129.918V59.5566H133.757V50.9817H135.485L139.101 59.5566H143.485L138.975 50.1357C141.436 48.8047 142.847 46.1095 142.847 43.3822ZM135.358 48.0573C134.972 48.0905 134.074 48.1237 133.756 48.1558V39.8743H135.455C137.724 39.8743 139.003 41.2031 139.003 43.5428C139.003 46.5945 137.182 47.9609 135.358 48.0573ZM151.295 36.8203L143.549 59.5566H146.875L148.829 53.3513H155.581L157.346 59.5566H161.631L154.493 36.8203H151.295ZM149.824 50.5609C150.719 47.5701 151.615 44.8095 152.415 41.3027H152.48C153.375 44.8095 154.175 47.5701 155.009 50.5609H149.824ZM189.73 45.557H181.76V36.8203H177.952V59.5566H181.76V48.6087H189.73V59.5566H193.568V36.8824H189.73V45.557ZM197.247 59.5544H201.055V36.8203H197.247V59.5544ZM214.497 56.6976C210.785 56.6976 207.647 53.513 207.647 48.1226C207.647 42.9592 210.498 39.6772 214.401 39.6772C215.873 39.6772 217.41 40.3582 218.339 40.9428L219.554 38.1845C218.241 37.2743 216.387 36.4295 214.402 36.4295C207.713 36.4295 203.584 41.8542 203.584 48.0573C203.584 54.7487 207.746 59.9464 214.34 59.9464C216.195 59.9464 218.243 59.199 219.395 58.3884L218.34 55.5615C217.347 56.2103 215.97 56.6976 214.497 56.6976ZM168.83 36.8203H162.849V59.5566H166.69V50.9817H168.415C172.994 50.9817 175.776 47.2113 175.776 43.3822C175.775 38.9619 173.122 36.8203 168.83 36.8203ZM168.287 48.0573C167.903 48.0872 166.977 48.1182 166.688 48.1481V39.8732H168.414C170.656 39.8732 171.936 41.2019 171.936 43.5417C171.935 46.5945 170.111 47.9609 168.287 48.0573Z" fill="#B0B0B0"/>
</g>
<defs>
<clipPath id="clip0_228_65413">
<rect width="220" height="65.3309" fill="white" transform="translate(0.5 0.834961)"/>
</clipPath>
</defs>
</svg>
