<svg width="220" height="66" viewBox="0 0 220 66" fill="none" xmlns="http://www.w3.org/2000/svg">
<g clip-path="url(#clip0_228_65193)">
<path d="M6.10352e-05 0.334961V65.6571H44.9143V0.334961H6.10352e-05ZM38.4183 59.0808H6.47293V6.91567H38.4183V59.0808Z" fill="#383838"/>
<path d="M71.6802 23.1102H71.6172C68.0342 17.2647 64.4169 12.1014 60.7687 6.9037H57.985V29.64H61.0572V13.3338H61.0882C64.7066 19.2136 68.3216 24.4113 71.971 29.64H74.7547V6.9037H71.6802V23.1102ZM93.8582 29.64L86.7209 6.9037H83.5226L75.7773 29.64H79.105L81.0584 23.4358H87.8088L89.5699 29.64H93.8582ZM82.049 20.6409C82.9456 17.6523 83.8421 14.8962 84.6414 11.3839H84.7067C85.6033 14.8951 86.4025 17.6523 87.235 20.6409H82.049ZM97.4733 29.64H101.314V9.95765H107.203V6.9037H91.5864V9.95765H97.4744L97.4733 29.64ZM112.258 6.9037H108.45V29.64H112.258V6.9037ZM124.101 30.0275C129.958 30.0275 133.606 24.7346 133.606 17.9457C133.606 11.5798 129.572 6.51172 124.101 6.51172C118.628 6.51172 114.593 11.5798 114.593 17.9457C114.593 24.7357 118.242 30.0275 124.101 30.0275ZM124.101 9.76166C127.91 9.76166 129.508 13.7557 129.508 17.9468C129.508 22.2986 128.102 26.7809 124.101 26.7809C120.1 26.7809 118.693 22.2997 118.693 17.9468C118.693 13.7557 120.292 9.76166 124.101 9.76166ZM139.011 13.3338H139.047C142.662 19.2136 146.277 24.4113 149.926 29.64H152.71V6.9037H149.638V23.1102H149.574C145.99 17.2647 142.373 12.1014 138.725 6.9037H135.941V29.64H139.011V13.3338ZM159.011 23.4358H165.766L167.526 29.64H171.813L164.678 6.9037H161.478L153.731 29.64H157.063L159.011 23.4358ZM162.6 11.3839H162.663C163.557 14.8951 164.358 17.6523 165.192 20.6409H160.004C160.903 17.6523 161.796 14.8951 162.6 11.3839ZM184.326 26.5849H176.743V6.9037H172.933V29.64H184.327L184.326 26.5849ZM68.5494 55.6439C67.7479 56.0669 66.8856 56.1976 65.8618 56.1976C62.5663 56.1976 59.3658 53.013 59.3658 47.6226C59.3658 42.4592 62.1495 39.1772 66.2466 39.1772C67.7191 39.1772 69.3188 39.7286 70.3425 40.3775L71.5896 37.6834C70.3105 36.7068 68.2299 35.9284 66.1493 35.9284C59.4299 35.9284 55.2687 41.353 55.2687 47.5562C55.2687 54.2476 59.4299 59.4453 66.0199 59.4453C68.1967 59.4453 70.3414 58.8639 72.3911 58.0479V48.659H68.5494V55.6439ZM79.7163 48.6613H85.9902V45.6095H79.7163V39.3732H86.1184V36.3203H75.8779V59.0566H87.2704V56.0005H79.7163V48.6613ZM97.9597 35.9295C92.4863 35.9295 88.4555 40.9965 88.4555 47.3635C88.4555 54.1513 92.1026 59.4464 97.9597 59.4464C103.816 59.4464 107.463 54.1513 107.463 47.3635C107.463 40.9965 103.431 35.9295 97.9597 35.9295ZM97.9597 56.1976C93.9577 56.1976 92.5504 51.7152 92.5504 47.3624C92.5504 43.1712 94.1501 39.1761 97.9597 39.1761C101.767 39.1761 103.367 43.1701 103.367 47.3624C103.367 51.7152 101.961 56.1976 97.9597 56.1976ZM122.057 55.6439C121.258 56.0669 120.392 56.1976 119.368 56.1976C116.072 56.1976 112.871 53.013 112.871 47.6226C112.871 42.4592 115.656 39.1772 119.754 39.1772C121.226 39.1772 122.826 39.7286 123.847 40.3775L125.096 37.6834C123.817 36.7068 121.735 35.9284 119.654 35.9284C112.936 35.9284 108.776 41.353 108.776 47.5562C108.776 54.2476 112.936 59.4453 119.53 59.4453C121.703 59.4453 123.847 58.8639 125.898 58.0479V48.659H122.057V55.6439ZM142.347 42.8822C142.347 38.4619 139.689 36.3203 135.403 36.3203H129.418V59.0566H133.257V50.4817H134.985L138.601 59.0566H142.985L138.475 49.6357C140.936 48.3047 142.347 45.6095 142.347 42.8822ZM134.858 47.5573C134.472 47.5905 133.574 47.6237 133.256 47.6558V39.3743H134.955C137.224 39.3743 138.503 40.7031 138.503 43.0428C138.503 46.0945 136.682 47.4609 134.858 47.5573ZM150.795 36.3203L143.049 59.0566H146.375L148.329 52.8513H155.081L156.846 59.0566H161.131L153.993 36.3203H150.795ZM149.324 50.0609C150.219 47.0701 151.115 44.3095 151.915 40.8027H151.98C152.875 44.3095 153.675 47.0701 154.509 50.0609H149.324ZM189.23 45.057H181.26V36.3203H177.452V59.0566H181.26V48.1087H189.23V59.0566H193.068V36.3824H189.23V45.057ZM196.747 59.0544H200.555V36.3203H196.747V59.0544ZM213.997 56.1976C210.285 56.1976 207.147 53.013 207.147 47.6226C207.147 42.4592 209.998 39.1772 213.901 39.1772C215.373 39.1772 216.91 39.8582 217.839 40.4428L219.054 37.6845C217.741 36.7743 215.887 35.9295 213.902 35.9295C207.213 35.9295 203.084 41.3542 203.084 47.5573C203.084 54.2487 207.246 59.4464 213.84 59.4464C215.695 59.4464 217.743 58.699 218.895 57.8884L217.84 55.0615C216.847 55.7103 215.47 56.1976 213.997 56.1976ZM168.33 36.3203H162.349V59.0566H166.19V50.4817H167.915C172.494 50.4817 175.276 46.7113 175.276 42.8822C175.275 38.4619 172.622 36.3203 168.33 36.3203ZM167.787 47.5573C167.403 47.5872 166.477 47.6182 166.188 47.6481V39.3732H167.914C170.156 39.3732 171.436 40.7019 171.436 43.0417C171.435 46.0945 169.611 47.4609 167.787 47.5573Z" fill="#383838"/>
</g>
<defs>
<clipPath id="clip0_228_65193">
<rect width="220" height="65.3309" fill="white" transform="translate(0 0.334961)"/>
</clipPath>
</defs>
</svg>
