<svg width="161" height="59" viewBox="0 0 161 59" fill="none" xmlns="http://www.w3.org/2000/svg">
<g clip-path="url(#clip0_228_65411)">
<path d="M18.1492 58.4752C13.3819 58.2825 9.48146 56.9557 6.43167 54.4913C5.84963 54.0205 4.46269 52.609 3.99738 52.0136C2.76065 50.4319 1.91983 48.8924 1.35902 47.1845C-0.366693 41.9269 0.521469 35.0277 3.89942 27.4561C6.79166 20.9737 11.2545 14.5446 19.0406 5.64022C20.1876 4.32996 23.6031 0.498047 23.6251 0.498047C23.6333 0.498047 23.4471 0.826021 23.2129 1.22541C21.1884 4.67455 19.4561 8.7373 18.5125 12.2546C16.9965 17.8982 17.1794 22.7415 19.048 26.497C20.337 29.0843 22.5467 31.3254 25.0316 32.5642C29.3818 34.7322 35.7508 34.9115 43.5288 33.089C44.0643 32.9627 70.5997 25.7979 102.497 17.1667C134.394 8.5347 160.496 1.47782 160.5 1.48363C160.509 1.49112 86.394 33.7491 47.9198 50.4842C41.8267 53.1337 40.1973 53.803 37.3328 54.8259C30.0104 57.4414 23.4512 58.6894 18.1492 58.4752Z" fill="#B0B0B0"/>
</g>
<defs>
<clipPath id="clip0_228_65411">
<rect width="160" height="58" fill="white" transform="translate(0.5 0.5)"/>
</clipPath>
</defs>
</svg>
