<svg width="160" height="58" viewBox="0 0 160 58" fill="none" xmlns="http://www.w3.org/2000/svg">
<g clip-path="url(#clip0_228_65191)">
<path d="M17.6492 57.9752C12.8819 57.7825 8.98146 56.4557 5.93167 53.9913C5.34963 53.5205 3.96269 52.109 3.49738 51.5136C2.26065 49.9319 1.41983 48.3924 0.859019 46.6845C-0.866693 41.4269 0.0214691 34.5277 3.39942 26.9561C6.29166 20.4737 10.7545 14.0446 18.5406 5.14022C19.6876 3.82996 23.1031 -0.00195312 23.1251 -0.00195312C23.1333 -0.00195312 22.9471 0.326021 22.7129 0.725409C20.6884 4.17455 18.9561 8.2373 18.0125 11.7546C16.4965 17.3982 16.6794 22.2415 18.548 25.997C19.837 28.5843 22.0467 30.8254 24.5316 32.0642C28.8818 34.2322 35.2508 34.4115 43.0288 32.589C43.5643 32.4627 70.0997 25.2979 101.997 16.6667C133.894 8.0347 159.996 0.977824 160 0.983634C160.009 0.99112 85.894 33.2491 47.4198 49.9842C41.3267 52.6337 39.6973 53.303 36.8328 54.3259C29.5104 56.9414 22.9512 58.1894 17.6492 57.9752Z" fill="#383838"/>
</g>
<defs>
<clipPath id="clip0_228_65191">
<rect width="160" height="58" fill="white"/>
</clipPath>
</defs>
</svg>
