<svg width="201" height="41" viewBox="0 0 201 41" fill="none" xmlns="http://www.w3.org/2000/svg">
<path d="M1.4328 1.2155C7.73592 1.21706 14.0398 1.2155 20.343 1.21628C22.2734 1.19298 24.2367 1.27765 26.0914 1.85485C27.3047 2.23007 28.4609 2.8298 29.3961 3.6921C30.3625 4.57382 31.068 5.71268 31.5242 6.93C32.2125 8.7657 32.4078 10.7428 32.4172 12.6896C32.4195 14.6581 32.4172 16.6274 32.418 18.5959C32.4094 19.7371 32.4562 20.8822 32.325 22.0187C32.1812 23.313 31.8476 24.6018 31.2125 25.7468C30.6656 26.7404 29.8844 27.6043 28.9469 28.2483C27.407 29.3126 25.5461 29.802 23.7039 30.0141C22.2508 30.1865 20.7859 30.1461 19.3258 30.1508C17.0859 30.1516 14.8461 30.1508 12.6055 30.1516C12.6055 33.2636 12.6062 36.3765 12.6055 39.4885C8.88046 39.4885 5.15467 39.4893 1.42967 39.4885C1.43124 26.7311 1.42577 13.9729 1.4328 1.2155ZM12.6406 8.1349C12.6375 12.9413 12.6461 17.7484 12.6367 22.5548C14.0578 22.5773 15.4805 22.5571 16.9023 22.5649C17.8047 22.5695 18.7398 22.4375 19.5312 21.9822C20.232 21.5884 20.7539 20.9141 21.0008 20.1566C21.2297 19.5049 21.2445 18.8072 21.2328 18.1252C21.2297 15.9259 21.2305 13.7259 21.2258 11.5266C21.2273 10.6387 20.9484 9.71423 20.3 9.08032C19.6414 8.41922 18.6851 8.13567 17.7664 8.13567C16.0578 8.13412 14.3492 8.1349 12.6406 8.1349Z" fill="#B0B0B0"/>
<path d="M36.0445 1.2207C44.9242 1.2308 53.8047 1.22536 62.6844 1.22303C62.6969 3.60174 62.6867 5.98045 62.6899 8.35839C57.4289 8.35916 52.168 8.35839 46.907 8.35839C46.9078 11.0074 46.9055 13.6557 46.9078 16.3048C51.3695 16.3079 55.8305 16.2931 60.2914 16.3118C60.2719 18.7029 60.2883 21.094 60.2828 23.4852C55.8242 23.4867 51.3656 23.4852 46.9078 23.486C46.907 26.4605 46.907 29.4351 46.907 32.4088C52.1594 32.4112 57.4117 32.4057 62.6641 32.4112C62.6641 34.7712 62.6602 37.1305 62.6656 39.4906C53.7891 39.5054 44.9117 39.4921 36.0344 39.4968C36.0344 30.9756 36.0344 22.4543 36.0344 13.9331C36.0414 9.69534 36.0211 5.45764 36.0445 1.2207Z" fill="#B0B0B0"/>
<path d="M67.2922 1.21094C70.8281 1.21249 74.364 1.21871 77.9007 1.21638C80.9726 8.54516 84.0445 15.874 87.1164 23.202C87.2031 23.4008 87.2836 23.602 87.3539 23.8071C87.3953 21.865 87.3601 19.9198 87.3718 17.9769C87.3726 12.3898 87.3687 6.80269 87.3734 1.2156C90.5711 1.21948 93.7687 1.21171 96.9656 1.21171C96.9656 13.9738 96.9664 26.7366 96.9656 39.4995C93.2711 39.4995 89.5773 39.4995 85.8836 39.4987C83.0054 32.5708 80.1242 25.6436 77.2468 18.7149C77.2195 18.6582 77.164 18.5432 77.1367 18.4865C77.1234 25.4906 77.1351 32.4946 77.1304 39.4987C73.8515 39.5111 70.5718 39.501 67.2922 39.5041C67.2914 26.7397 67.2922 13.9753 67.2922 1.21094Z" fill="#B0B0B0"/>
<path d="M100.357 1.21183C111.535 1.21106 122.712 1.21028 133.89 1.21183C133.887 3.66823 133.89 6.12463 133.889 8.58102C130.141 8.58258 126.394 8.57947 122.646 8.58258C122.648 18.8875 122.645 29.1916 122.647 39.4957C118.895 39.4903 115.143 39.5097 111.392 39.4864C111.405 29.1854 111.392 18.8836 111.398 8.58258C107.718 8.57947 104.037 8.58258 100.357 8.58102C100.356 6.12463 100.357 3.66823 100.357 1.21183Z" fill="#B0B0B0"/>
<path d="M141.321 1.22088C144.471 1.22631 147.621 1.20767 150.77 1.2302C155.039 13.9876 159.332 26.7372 163.616 39.4908C160.109 39.4954 156.603 39.4939 153.097 39.4915C152.498 37.4492 151.893 35.4084 151.291 33.3669C147.856 33.3661 144.421 33.3661 140.986 33.3669C140.413 35.4123 139.842 37.4585 139.268 39.504C135.898 39.504 132.529 39.4923 129.159 39.4931C133.214 26.7357 137.266 13.9775 141.321 1.22088ZM146.104 13.2263C144.98 17.7413 143.852 22.2556 142.72 26.7691C144.974 26.7691 147.228 26.7675 149.482 26.7699C148.355 22.2556 147.241 17.7382 146.104 13.2263Z" fill="#B0B0B0"/>
<path d="M164.113 1.20898C168.063 1.21365 172.014 1.20976 175.965 1.21131C177.784 5.11187 179.615 9.00699 181.423 12.9122C183.138 9.01787 184.824 5.11032 186.53 1.21131C190.187 1.22841 193.845 1.20199 197.502 1.24084C194.277 7.38493 191.087 13.5477 187.875 19.7003C191.804 26.2981 195.728 32.8982 199.66 39.4944C195.771 39.4983 191.882 39.4866 187.994 39.4998C185.931 35.2839 183.869 31.0687 181.806 26.8528C181.695 26.6329 181.598 26.4061 181.471 26.1955C180.335 28.8594 179.187 31.5177 178.047 34.18C177.278 35.9535 176.534 37.7387 175.75 39.5053C171.739 39.4905 167.728 39.5061 163.717 39.4975C167.362 32.8104 171.006 26.1225 174.654 19.437C171.143 13.3597 167.624 7.28705 164.113 1.20898Z" fill="#B0B0B0"/>
</svg>
