<svg width="200" height="40" viewBox="0 0 200 40" fill="none" xmlns="http://www.w3.org/2000/svg">
<g clip-path="url(#clip0_228_65196)">
<path d="M0.932799 0.715505C7.23592 0.717059 13.5398 0.715505 19.843 0.716282C21.7734 0.692976 23.7367 0.777653 25.5914 1.35485C26.8047 1.73007 27.9609 2.3298 28.8961 3.1921C29.8625 4.07382 30.568 5.21268 31.0242 6.43C31.7125 8.2657 31.9078 10.2428 31.9172 12.1896C31.9195 14.1581 31.9172 16.1274 31.918 18.0959C31.9094 19.2371 31.9562 20.3822 31.825 21.5187C31.6812 22.813 31.3476 24.1018 30.7125 25.2468C30.1656 26.2404 29.3844 27.1043 28.4469 27.7483C26.907 28.8126 25.0461 29.302 23.2039 29.5141C21.7508 29.6865 20.2859 29.6461 18.8258 29.6508C16.5859 29.6516 14.3461 29.6508 12.1055 29.6516C12.1055 32.7636 12.1062 35.8765 12.1055 38.9885C8.38046 38.9885 4.65467 38.9893 0.929674 38.9885C0.931237 26.2311 0.925768 13.4729 0.932799 0.715505ZM12.1406 7.6349C12.1375 12.4413 12.1461 17.2484 12.1367 22.0548C13.5578 22.0773 14.9805 22.0571 16.4023 22.0649C17.3047 22.0695 18.2398 21.9375 19.0312 21.4822C19.732 21.0884 20.2539 20.4141 20.5008 19.6566C20.7297 19.0049 20.7445 18.3072 20.7328 17.6252C20.7297 15.4259 20.7305 13.2259 20.7258 11.0266C20.7273 10.1387 20.4484 9.21423 19.8 8.58032C19.1414 7.91922 18.1851 7.63567 17.2664 7.63567C15.5578 7.63412 13.8492 7.6349 12.1406 7.6349Z" fill="#383838"/>
<path d="M35.5445 0.720703C44.4242 0.730802 53.3047 0.725364 62.1844 0.723034C62.1969 3.10174 62.1867 5.48045 62.1899 7.85839C56.9289 7.85916 51.668 7.85839 46.407 7.85839C46.4078 10.5074 46.4055 13.1557 46.4078 15.8048C50.8695 15.8079 55.3305 15.7931 59.7914 15.8118C59.7719 18.2029 59.7883 20.594 59.7828 22.9852C55.3242 22.9867 50.8656 22.9852 46.4078 22.986C46.407 25.9605 46.407 28.9351 46.407 31.9088C51.6594 31.9112 56.9117 31.9057 62.1641 31.9112C62.1641 34.2712 62.1602 36.6305 62.1656 38.9906C53.2891 39.0054 44.4117 38.9921 35.5344 38.9968C35.5344 30.4756 35.5344 21.9543 35.5344 13.4331C35.5414 9.19534 35.5211 4.95764 35.5445 0.720703Z" fill="#383838"/>
<path d="M66.7922 0.710938C70.3281 0.712491 73.864 0.718706 77.4007 0.716375C80.4726 8.04516 83.5445 15.374 86.6164 22.702C86.7031 22.9008 86.7836 23.102 86.8539 23.3071C86.8953 21.365 86.8601 19.4198 86.8718 17.4769C86.8726 11.8898 86.8687 6.30269 86.8734 0.715599C90.0711 0.719483 93.2687 0.711714 96.4656 0.711714C96.4656 13.4738 96.4664 26.2366 96.4656 38.9995C92.7711 38.9995 89.0773 38.9995 85.3836 38.9987C82.5054 32.0708 79.6242 25.1436 76.7468 18.2149C76.7195 18.1582 76.664 18.0432 76.6367 17.9865C76.6234 24.9906 76.6351 31.9946 76.6304 38.9987C73.3515 39.0111 70.0718 39.001 66.7922 39.0041C66.7914 26.2397 66.7922 13.4753 66.7922 0.710938Z" fill="#383838"/>
<path d="M99.857 0.711835C111.035 0.711058 122.212 0.710281 133.39 0.711835C133.387 3.16823 133.39 5.62463 133.389 8.08102C129.641 8.08258 125.894 8.07947 122.146 8.08258C122.148 18.3875 122.145 28.6916 122.147 38.9957C118.395 38.9903 114.643 39.0097 110.892 38.9864C110.905 28.6854 110.892 18.3836 110.898 8.08258C107.218 8.07947 103.537 8.08258 99.857 8.08102C99.8562 5.62463 99.857 3.16823 99.857 0.711835Z" fill="#383838"/>
<path d="M140.821 0.720876C143.971 0.726313 147.121 0.707669 150.27 0.730198C154.539 13.4876 158.832 26.2372 163.116 38.9908C159.609 38.9954 156.103 38.9939 152.597 38.9915C151.998 36.9492 151.393 34.9084 150.791 32.8669C147.356 32.8661 143.921 32.8661 140.486 32.8669C139.913 34.9123 139.342 36.9585 138.768 39.004C135.398 39.004 132.029 38.9923 128.659 38.9931C132.714 26.2357 136.766 13.4775 140.821 0.720876ZM145.604 12.7263C144.48 17.2413 143.352 21.7556 142.22 26.2691C144.474 26.2691 146.728 26.2675 148.982 26.2699C147.855 21.7556 146.741 17.2382 145.604 12.7263Z" fill="#383838"/>
<path d="M163.613 0.708984C167.563 0.713645 171.514 0.709761 175.465 0.711315C177.284 4.61187 179.115 8.50699 180.923 12.4122C182.638 8.51787 184.324 4.61032 186.03 0.711315C189.687 0.728406 193.345 0.701993 197.002 0.740835C193.777 6.88493 190.587 13.0477 187.375 19.2003C191.304 25.7981 195.228 32.3982 199.16 38.9944C195.271 38.9983 191.382 38.9866 187.494 38.9998C185.431 34.7839 183.369 30.5687 181.306 26.3528C181.195 26.1329 181.098 25.9061 180.971 25.6955C179.835 28.3594 178.687 31.0177 177.547 33.68C176.778 35.4535 176.034 37.2387 175.25 39.0053C171.239 38.9905 167.228 39.0061 163.217 38.9975C166.862 32.3104 170.506 25.6225 174.154 18.937C170.643 12.8597 167.124 6.78705 163.613 0.708984Z" fill="#383838"/>
</g>
<defs>
<clipPath id="clip0_228_65196">
<rect width="200" height="40" fill="white"/>
</clipPath>
</defs>
</svg>
