<svg width="200" height="36" viewBox="0 0 200 36" fill="none" xmlns="http://www.w3.org/2000/svg">
<g clip-path="url(#clip0_228_65205)">
<path d="M71.252 35.4864C64 35.4864 57.28 33.3403 52.8 29.3383C51.1979 27.9081 49.9215 26.1548 49.0558 24.1955C48.1901 22.2361 47.7552 20.1158 47.78 17.9762C47.775 15.8453 48.219 13.737 49.0836 11.787C49.9482 9.83697 51.2141 8.08838 52.8 6.65376C56.96 2.89817 64.32 0.513672 71.252 0.513672C78.92 0.513672 85.06 2.4332 89.752 6.66171C91.3315 8.09584 92.5889 9.84475 93.4422 11.7943C94.2955 13.7439 94.7254 15.8503 94.7039 17.9762C94.6933 20.1041 94.249 22.2078 93.3979 24.1606C92.5468 26.1133 91.3066 27.8746 89.752 29.3383C85.38 33.3641 78.516 35.4864 71.252 35.4864V30.8843C75.096 30.8843 78.664 29.5648 81.156 27.1009C83.648 24.6369 84.78 21.6483 84.78 17.9603C84.78 14.4392 83.536 11.1485 81.156 8.81968C78.696 6.41531 75.044 5.06012 71.252 5.06012C67.46 5.06012 63.792 6.40339 61.332 8.81968C58.96 11.1525 57.732 14.4551 57.732 17.9603C57.6964 19.6444 57.9961 21.3188 58.6139 22.8875C59.2317 24.4561 60.1554 25.888 61.332 27.1009C63.792 29.537 67.436 30.8843 71.252 30.8843V35.4864ZM18.3 0.513672C14.424 0.513672 10.02 1.23697 6.29996 2.89817C2.82796 4.44015 -3.63873e-05 6.91606 -3.63873e-05 11.0214C-0.00525273 13.1712 0.817678 15.2416 2.29996 16.8078C3.30396 17.7298 4.92396 19.2956 9.15596 20.2176C11.048 20.615 15.092 21.2549 19.12 21.6761C23.148 22.0974 27.052 22.471 28.652 22.8962C29.924 23.2181 32.064 23.6553 32.064 26.0398C32.064 28.4243 29.812 29.1396 29.42 29.2946C29.028 29.4496 26.324 30.6816 21.468 30.6816C18.2506 30.5928 15.0624 30.0482 12 29.0641C10.188 28.4203 8.28796 27.5738 6.51596 25.4238C5.80084 24.4113 5.40411 23.2108 5.37596 21.9742H0.975963V34.2146H5.86396V32.5574C5.86319 32.4345 5.89541 32.3136 5.95731 32.2071C6.01921 32.1007 6.10855 32.0126 6.21612 31.9518C6.32369 31.8911 6.44561 31.86 6.56933 31.8616C6.69304 31.8633 6.81408 31.8977 6.91996 31.9613C9.22286 32.9569 11.6183 33.7262 14.072 34.2583C16.64 34.7909 18.3 35.1764 21.492 35.1764C24.8602 35.24 28.2171 34.7691 31.436 33.7814C33.5734 33.1993 35.5789 32.2159 37.344 30.8843C38.3367 30.1266 39.1392 29.1505 39.6882 28.0327C40.2372 26.9149 40.5178 25.6859 40.508 24.4421C40.5246 22.0793 39.6068 19.8044 37.952 18.1073C37.0318 17.2201 35.9658 16.4956 34.8 15.9652C33.5467 15.4026 32.2456 14.9518 30.912 14.618C28.376 14.002 22.68 13.231 19.956 12.9608C17.1 12.6667 12.144 12.2573 10.164 11.6493C9.56396 11.4625 8.33996 10.8863 8.33996 9.47542C8.33996 8.46996 8.89996 7.61948 10.004 6.93195C11.76 5.83906 15.304 5.15947 19 5.15947C22.5775 5.11657 26.1256 5.80511 29.424 7.18233C30.3101 7.56588 31.1435 8.06 31.904 8.65277C33.1437 9.70475 34.0021 11.1314 34.348 12.7144H38.296V2.05962H33.896V3.29559C33.896 3.69301 33.496 4.2176 32.696 3.78441C30.712 2.75908 25.136 0.541491 18.3 0.513672ZM114.896 2.46896L136.4 21.7477L136.18 8.76802C136.156 7.0631 135.844 6.35173 133.988 6.35173H129.948V2.46896H148.348V6.35173H144.4C142.512 6.35173 142.4 6.9558 142.368 8.76802L142.7 33.5708H136.4L111.628 11.6095V27.1923C111.648 28.8892 111.728 29.688 113.484 29.688H117.884V33.5708H99.848V29.688H104.072C105.648 29.688 105.584 28.1938 105.584 27.1048V8.91506C105.584 7.72281 105.416 6.3557 102.944 6.3557H99.52V2.46896H114.896ZM169.34 29.6801C169.704 29.6801 170.067 29.6576 170.428 29.6125C170.615 29.5566 170.788 29.4608 170.935 29.3318C171.081 29.2028 171.198 29.0436 171.276 28.8654C171.331 28.5892 171.359 28.3084 171.36 28.0268V21.8867C171.36 21.6801 171.36 21.6761 171.096 21.3502C170.832 21.0244 159.832 8.6329 159.332 8.07651C158.708 7.40091 157.612 6.3557 155.944 6.3557H152.124V2.46896H173.684V6.34775H171.084C170.484 6.34775 170.084 6.91606 170.596 7.54C170.596 7.54 177.852 16.1639 177.92 16.2554C177.988 16.3468 178.048 16.3666 178.14 16.2832C178.232 16.1997 185.576 7.61948 185.632 7.54C185.719 7.42681 185.771 7.29124 185.783 7.1494C185.794 7.00756 185.764 6.86541 185.697 6.73984C185.63 6.61428 185.527 6.51059 185.402 6.44108C185.277 6.37157 185.135 6.33918 184.992 6.34775H182.324V2.46896H200V6.3557H196.052C194.62 6.3557 194.052 6.61799 192.96 7.82614L181.06 21.3145C180.943 21.4815 180.892 21.6849 180.916 21.8867V28.0229C180.918 28.3045 180.947 28.5854 181.004 28.8614C181.081 29.0398 181.196 29.1992 181.342 29.3284C181.488 29.4575 181.661 29.5531 181.848 29.6086C182.206 29.6556 182.567 29.6781 182.928 29.6761H186.964V33.5629H165.516V29.6761L169.34 29.6801Z" fill="#383838"/>
</g>
<defs>
<clipPath id="clip0_228_65205">
<rect width="200" height="34.9727" fill="white" transform="translate(0 0.513672)"/>
</clipPath>
</defs>
</svg>
