<svg width="201" height="35" viewBox="0 0 201 35" fill="none" xmlns="http://www.w3.org/2000/svg">
<g clip-path="url(#clip0_228_65416)">
<path d="M71.752 34.9864C64.5 34.9864 57.78 32.8403 53.3 28.8383C51.6979 27.4081 50.4215 25.6548 49.5558 23.6955C48.6901 21.7361 48.2552 19.6158 48.28 17.4762C48.275 15.3453 48.719 13.237 49.5836 11.287C50.4482 9.33697 51.7141 7.58838 53.3 6.15376C57.46 2.39817 64.82 0.0136719 71.752 0.0136719C79.42 0.0136719 85.56 1.9332 90.252 6.16171C91.8315 7.59584 93.0889 9.34475 93.9422 11.2943C94.7955 13.2439 95.2254 15.3503 95.2039 17.4762C95.1933 19.6041 94.749 21.7078 93.8979 23.6606C93.0468 25.6133 91.8066 27.3746 90.252 28.8383C85.88 32.8641 79.016 34.9864 71.752 34.9864V30.3843C75.596 30.3843 79.164 29.0648 81.656 26.6009C84.148 24.1369 85.28 21.1483 85.28 17.4603C85.28 13.9392 84.036 10.6485 81.656 8.31968C79.196 5.91531 75.544 4.56012 71.752 4.56012C67.96 4.56012 64.292 5.90339 61.832 8.31968C59.46 10.6525 58.232 13.9551 58.232 17.4603C58.1964 19.1444 58.4961 20.8188 59.1139 22.3875C59.7317 23.9561 60.6554 25.388 61.832 26.6009C64.292 29.037 67.936 30.3843 71.752 30.3843V34.9864ZM18.8 0.0136719C14.924 0.0136719 10.52 0.736971 6.79996 2.39817C3.32796 3.94015 0.499964 6.41606 0.499964 10.5214C0.494747 12.6712 1.31768 14.7416 2.79996 16.3078C3.80396 17.2298 5.42396 18.7956 9.65596 19.7176C11.548 20.115 15.592 20.7549 19.62 21.1761C23.648 21.5974 27.552 21.971 29.152 22.3962C30.424 22.7181 32.564 23.1553 32.564 25.5398C32.564 27.9243 30.312 28.6396 29.92 28.7946C29.528 28.9496 26.824 30.1816 21.968 30.1816C18.7506 30.0928 15.5624 29.5482 12.5 28.5641C10.688 27.9203 8.78796 27.0738 7.01596 24.9238C6.30084 23.9113 5.90411 22.7108 5.87596 21.4742H1.47596V33.7146H6.36396V32.0574C6.36319 31.9345 6.39541 31.8136 6.45731 31.7071C6.51921 31.6007 6.60855 31.5126 6.71612 31.4518C6.82369 31.3911 6.94561 31.36 7.06933 31.3616C7.19304 31.3633 7.31408 31.3977 7.41996 31.4613C9.72286 32.4569 12.1183 33.2262 14.572 33.7583C17.14 34.2909 18.8 34.6764 21.992 34.6764C25.3602 34.74 28.7171 34.2691 31.936 33.2814C34.0734 32.6993 36.0789 31.7159 37.844 30.3843C38.8367 29.6266 39.6392 28.6505 40.1882 27.5327C40.7372 26.4149 41.0178 25.1859 41.008 23.9421C41.0246 21.5793 40.1068 19.3044 38.452 17.6073C37.5318 16.7201 36.4658 15.9956 35.3 15.4652C34.0467 14.9026 32.7456 14.4518 31.412 14.118C28.876 13.502 23.18 12.731 20.456 12.4608C17.6 12.1667 12.644 11.7573 10.664 11.1493C10.064 10.9625 8.83996 10.3863 8.83996 8.97542C8.83996 7.96996 9.39996 7.11948 10.504 6.43195C12.26 5.33906 15.804 4.65947 19.5 4.65947C23.0775 4.61657 26.6256 5.30511 29.924 6.68233C30.8101 7.06588 31.6435 7.56 32.404 8.15277C33.6437 9.20475 34.5021 10.6314 34.848 12.2144H38.796V1.55962H34.396V2.79559C34.396 3.19301 33.996 3.7176 33.196 3.28441C31.212 2.25908 25.636 0.0414911 18.8 0.0136719ZM115.396 1.96896L136.9 21.2477L136.68 8.26802C136.656 6.5631 136.344 5.85173 134.488 5.85173H130.448V1.96896H148.848V5.85173H144.9C143.012 5.85173 142.9 6.4558 142.868 8.26802L143.2 33.0708H136.9L112.128 11.1095V26.6923C112.148 28.3892 112.228 29.188 113.984 29.188H118.384V33.0708H100.348V29.188H104.572C106.148 29.188 106.084 27.6938 106.084 26.6048V8.41506C106.084 7.22281 105.916 5.8557 103.444 5.8557H100.02V1.96896H115.396ZM169.84 29.1801C170.204 29.1801 170.567 29.1576 170.928 29.1125C171.115 29.0566 171.288 28.9608 171.435 28.8318C171.581 28.7028 171.698 28.5436 171.776 28.3654C171.831 28.0892 171.859 27.8084 171.86 27.5268V21.3867C171.86 21.1801 171.86 21.1761 171.596 20.8502C171.332 20.5244 160.332 8.1329 159.832 7.57651C159.208 6.90091 158.112 5.8557 156.444 5.8557H152.624V1.96896H174.184V5.84775H171.584C170.984 5.84775 170.584 6.41606 171.096 7.04C171.096 7.04 178.352 15.6639 178.42 15.7554C178.488 15.8468 178.548 15.8666 178.64 15.7832C178.732 15.6997 186.076 7.11948 186.132 7.04C186.219 6.92681 186.271 6.79124 186.283 6.6494C186.294 6.50756 186.264 6.36541 186.197 6.23984C186.13 6.11428 186.027 6.01059 185.902 5.94108C185.777 5.87157 185.635 5.83918 185.492 5.84775H182.824V1.96896H200.5V5.8557H196.552C195.12 5.8557 194.552 6.11799 193.46 7.32614L181.56 20.8145C181.443 20.9815 181.392 21.1849 181.416 21.3867V27.5229C181.418 27.8045 181.447 28.0854 181.504 28.3614C181.581 28.5398 181.696 28.6992 181.842 28.8284C181.988 28.9575 182.161 29.0531 182.348 29.1086C182.706 29.1556 183.067 29.1781 183.428 29.1761H187.464V33.0629H166.016V29.1761L169.84 29.1801Z" fill="#B0B0B0"/>
</g>
<defs>
<clipPath id="clip0_228_65416">
<rect width="200" height="34.9727" fill="white" transform="translate(0.5 0.0136719)"/>
</clipPath>
</defs>
</svg>
