<svg width="160" height="74" viewBox="0 0 160 74" fill="none" xmlns="http://www.w3.org/2000/svg">
<path fill-rule="evenodd" clip-rule="evenodd" d="M160 73.2321L138.265 73.2318L138.265 52.5902L138.228 51.1031L138.116 49.6334L137.933 48.1847L137.677 46.7588L137.354 45.3593L136.965 43.9863L136.51 42.6413L135.991 41.3264L135.412 40.043L134.773 38.7953L134.076 37.5845L133.325 36.4092L132.519 35.2746L131.659 34.1825L130.75 33.131L129.793 32.1276L128.788 31.1683L127.737 30.2588L126.645 29.4007L125.511 28.5921L124.336 27.8405L123.126 27.1439L121.878 26.5041L120.595 25.9247L119.283 25.4056L117.938 24.9508L116.564 24.5616L115.165 24.2381L113.739 23.9823L112.291 23.7993L110.821 23.6875L109.334 23.6505L106.946 23.6467L106.946 0.15918L106.971 0.159672C136.331 0.159672 160 23.9728 160 53.3412V73.2321Z" fill="#383838"/>
<path fill-rule="evenodd" clip-rule="evenodd" d="M137.299 73.2318L119.525 73.2283L119.521 57.2436L119.511 56.8078L119.478 56.3755L119.425 55.9491L119.349 55.5292L119.253 55.1179L119.139 54.7122L119.006 54.3164L118.852 53.931L118.682 53.5524L118.493 53.1853L118.289 52.83L118.068 52.4834L117.831 52.1495L117.578 51.8289L117.31 51.5184L117.029 51.2225L116.733 50.9412L116.422 50.6736L116.102 50.4198L115.768 50.1827L115.421 49.9623L115.065 49.7574L114.698 49.5686L114.32 49.3982L113.934 49.2447L113.536 49.111L113.131 48.9969L112.72 48.9014L112.299 48.8251L111.872 48.7721L111.439 48.7392L111.003 48.7287L106.946 48.742L106.946 24.6131L109.334 24.6189L110.776 24.6539L112.196 24.762L113.595 24.9411L114.971 25.1856L116.325 25.4978L117.65 25.8755L118.949 26.3153L120.22 26.8155L121.457 27.3757L122.663 27.9929L123.836 28.6666L124.969 29.3956L126.065 30.1738L127.123 31.0053L128.136 31.8846L129.107 32.8098L130.034 33.783L130.913 34.7964L131.742 35.8544L132.522 36.9511L133.25 38.0849L133.924 39.2576L134.541 40.4638L135.101 41.7015L135.601 42.971L136.04 44.2705L136.418 45.598L136.73 46.9521L136.974 48.3287L137.153 49.7282L137.261 51.1486L137.298 52.5902L137.299 73.2318Z" fill="#383838"/>
<path fill-rule="evenodd" clip-rule="evenodd" d="M106.946 73.2283L106.946 49.7084L111.003 49.6952L111.394 49.7056L111.778 49.7348L112.155 49.784L112.526 49.8489L112.893 49.9331L113.251 50.0356L113.6 50.1544L113.944 50.2889L114.277 50.4402L114.603 50.6064L114.921 50.7885L115.226 50.9862L115.522 51.1969L115.808 51.4202L116.081 51.6576L116.343 51.9084L116.593 52.1704L116.831 52.4428L117.054 52.7293L117.265 53.0253L117.462 53.3304L117.644 53.6477L117.81 53.9732L117.962 54.3062L118.096 54.65L118.215 55.0004L118.317 55.3567L118.401 55.7225L118.466 56.0931L118.515 56.4703L118.544 56.8533L118.553 57.2436L118.559 73.2283L106.946 73.2283Z" fill="#383838"/>
<path fill-rule="evenodd" clip-rule="evenodd" d="M58.1424 23.0532H53.3717V4.25468H46.4653V0.216296H65.0487V4.25468H58.1424V23.0532Z" fill="#383838"/>
<path fill-rule="evenodd" clip-rule="evenodd" d="M71.0584 12.8091V23.0532H66.2876V0.216296H71.0584V8.87146H79.9587V0.216296H84.7333V23.0532H79.9587V12.8091H71.0584Z" fill="#383838"/>
<path fill-rule="evenodd" clip-rule="evenodd" d="M103.824 4.25468H91.8223V9.05915H102.391V13.0975H91.8223V19.0147H103.851V23.0532H87.378V0.216296H103.824V4.25468Z" fill="#383838"/>
<path fill-rule="evenodd" clip-rule="evenodd" d="M14.1522 25.3096H18.6125V48.1448H13.8378L4.51988 31.8619H4.45207V48.1448H0V25.3096H5.02126L14.0883 41.2111H14.1522V25.3096Z" fill="#383838"/>
<path fill-rule="evenodd" clip-rule="evenodd" d="M31.9264 44.7106C34.501 44.7106 38.122 43.1202 38.122 36.727C38.122 30.3375 34.5005 28.741 31.9264 28.741C29.3517 28.741 25.7185 30.3375 25.7185 36.727C25.7191 43.1202 29.3517 44.7112 31.9264 44.7106ZM31.9264 24.7031C34.9458 24.7031 42.8922 26.009 42.8922 36.727C42.8929 47.4431 34.9452 48.7496 31.9264 48.7496C28.8993 48.7496 20.9478 47.4431 20.9478 36.727C20.9483 26.009 28.8993 24.7031 31.9264 24.7031Z" fill="#383838"/>
<path fill-rule="evenodd" clip-rule="evenodd" d="M76.7592 48.1448H71.9846V29.3458H65.0822V25.3096H83.6534V29.3458H76.7592V48.1448Z" fill="#383838"/>
<path fill-rule="evenodd" clip-rule="evenodd" d="M90.137 37.908V48.1448H85.3701V25.3096H90.137V33.957H99.0411V25.3096H103.824V48.1448H99.0411V37.908H90.137Z" fill="#383838"/>
<path fill-rule="evenodd" clip-rule="evenodd" d="M35.7262 73.2357H30.9554V50.399H47.2051V54.4413H35.7262V59.593H45.7802V63.6353H35.7262V73.2357Z" fill="#383838"/>
<path fill-rule="evenodd" clip-rule="evenodd" d="M52.2418 64.586H58.0549L55.2265 55.5523H55.166L52.2418 64.586ZM49.3737 73.2358H44.3487L52.496 50.3988H57.9988L66.0411 73.2358H60.8531L59.3907 68.5281H50.9682L49.3737 73.2358Z" fill="#383838"/>
<path fill-rule="evenodd" clip-rule="evenodd" d="M80.6946 57.8746C80.3203 56.5076 79.58 53.9309 75.6327 53.9309C73.3452 53.9309 69.9708 55.4571 69.9708 61.9114C69.9708 66.0175 71.5939 69.7092 75.6327 69.7092C78.2795 69.7092 80.1216 68.2112 80.6946 65.4149H85.4615C84.5099 70.3746 81.2708 73.8406 75.5413 73.8406C69.4661 73.8406 65.1048 69.7432 65.1048 61.8503C65.1048 53.8682 69.7166 49.7956 75.609 49.7956C82.4459 49.7956 85.2066 54.5055 85.461 57.8746H80.6946Z" fill="#383838"/>
<path fill-rule="evenodd" clip-rule="evenodd" d="M103.824 54.4413H91.8223V59.2392H102.391V63.2803H91.8223V69.197H103.851V73.2357H87.378V50.399H103.824V54.4413Z" fill="#383838"/>
<path fill-rule="evenodd" clip-rule="evenodd" d="M55.4884 35.3279C57.9642 35.3279 59.1695 34.4689 59.1695 32.2147C59.1695 31.0127 58.6279 29.2362 55.8358 29.2362H49.902V35.3279H55.4884ZM45.2325 25.298H56.7582C62.818 25.298 63.9242 29.7706 63.9242 31.7446C63.9248 34.247 62.6545 36.4066 60.4023 37.1688C62.2765 37.9938 63.2952 38.6894 63.2952 42.9419C63.2957 46.2753 63.2952 47.0996 64.309 47.4828L64.3095 48.082H59.0335C58.7192 47.0051 58.5326 45.8279 58.5326 43.4823C58.5326 40.3729 58.346 39.1655 54.8164 39.1655H49.902V48.082H45.2325V25.298Z" fill="#383838"/>
<path d="M21.1011 70.1073H20.6161L20.6212 69.935L20.6343 69.7637L20.6551 69.595L20.6854 69.4286L20.7233 69.2659L20.7683 69.1061L20.8214 68.9494L20.8821 68.796L20.9495 68.647L21.0243 68.5007L21.1054 68.3602L21.1923 68.223L21.2863 68.0907L21.3868 67.964L21.4928 67.8411L21.6039 67.7239L21.7211 67.6127L21.8432 67.5067L21.9708 67.4064L22.103 67.3125L22.2403 67.2253L22.3808 67.1434L22.5271 67.0696L22.6761 67.0021L22.8294 66.9415L22.9863 66.8884L23.1459 66.8435L23.3087 66.8058L23.4749 66.7753L23.6436 66.7545L23.8147 66.7414L23.9871 66.7373V67.2203L23.8376 67.2243L23.6911 67.2355L23.5468 67.2546L23.4052 67.2791L23.2653 67.3112L23.1282 67.3505L22.9942 67.3959L22.8635 67.4473L22.7354 67.5051L22.612 67.5696L22.4904 67.6383L22.374 67.714L22.2607 67.7945L22.152 67.8799L22.0469 67.9707L21.9469 68.0666L21.8507 68.1668L21.7599 68.2709L21.6747 68.3805L21.594 68.4937L21.5183 68.6102L21.4486 68.7318L21.3851 68.8553L21.3272 68.9834L21.2759 69.1142L21.2304 69.2481L21.191 69.3853L21.159 69.5252L21.1344 69.6669L21.1153 69.8111L21.1041 69.9578L21.1011 70.1073ZM23.9863 72.9929V73.4778L23.8141 73.4728L23.643 73.4598L23.4744 73.439L23.3082 73.4087L23.1454 73.371L22.9848 73.326L22.8292 73.2732L22.6757 73.2127L22.5269 73.1452L22.3806 73.0716L22.2401 72.9898L22.1027 72.9027L21.9707 72.8082L21.8441 72.7088L21.721 72.6029L21.6048 72.4918L21.4927 72.3748L21.3868 72.2519L21.2872 72.1252L21.1923 71.9931L21.1052 71.8559L21.0233 71.7154L20.9495 71.5691L20.8821 71.4201L20.8214 71.2667L20.7683 71.1097L20.7233 70.9499L20.6854 70.786L20.6551 70.6205L20.6343 70.4513L20.6212 70.28L20.6161 70.1073H21.1011L21.1041 70.2571L21.1153 70.4039L21.1344 70.5485L21.159 70.6915L21.191 70.8305L21.2304 70.9677L21.2759 71.1018L21.3272 71.2326L21.3851 71.3607L21.4495 71.4842L21.5182 71.6058L21.594 71.7224L21.6736 71.8354L21.7599 71.945L21.8506 72.0491L21.9458 72.1491L22.0467 72.245L22.1509 72.3356L22.2606 72.4218L22.3737 72.5013L22.4902 72.5769L22.6118 72.6454L22.7352 72.7097L22.8632 72.7675L22.994 72.8187L23.1287 72.8639L23.2648 72.9033L23.4047 72.9353L23.5464 72.9597L23.6904 72.9788L23.837 72.9898L23.9863 72.9929ZM26.8723 70.1073H27.3573L27.3522 70.28L27.3392 70.4513L27.3186 70.6205L27.2884 70.786L27.2518 70.9499L27.2059 71.1097L27.1531 71.2667L27.0937 71.4201L27.0256 71.5691L26.952 71.7154L26.8704 71.8559L26.7837 71.9922L26.6901 72.1252L26.5898 72.2519L26.4841 72.3748L26.3733 72.4918L26.2562 72.6029L26.1344 72.7088L26.0069 72.8082L25.8748 72.9027L25.7375 72.9898L25.597 73.0716L25.4506 73.1452L25.3015 73.2127L25.1479 73.2732L24.9908 73.326L24.8308 73.371L24.6668 73.4087L24.5007 73.439L24.3314 73.4598L24.1595 73.4728L23.9863 73.4778V72.9929L24.1367 72.9898L24.2839 72.9788L24.4288 72.9597L24.572 72.9353L24.7114 72.9033L24.8488 72.8639L24.9831 72.8187L25.114 72.7675L25.2423 72.7097L25.3658 72.6454L25.4874 72.5769L25.6039 72.5013L25.717 72.4218L25.8256 72.3356L25.9305 72.245L26.0303 72.1491L26.1261 72.0491L26.2167 71.945L26.3017 71.8354L26.382 71.7232L26.4574 71.6058L26.5258 71.4842L26.5901 71.3607L26.6466 71.2326L26.6987 71.1018L26.7439 70.9677L26.7821 70.8305L26.8147 70.6915L26.8393 70.5485L26.8582 70.4039L26.8693 70.2571L26.8723 70.1073ZM23.9871 67.2203V66.7373L24.1601 66.7414L24.3319 66.7545L24.5012 66.7753L24.6671 66.8058L24.831 66.8435L24.9911 66.8884L25.1481 66.9415L25.3016 67.0021L25.4507 67.0696L25.597 67.1434L25.7375 67.2253L25.8748 67.3125L26.0068 67.4072L26.1342 67.5067L26.2561 67.6127L26.3732 67.7248L26.4841 67.8421L26.5897 67.964L26.6899 68.0916L26.7835 68.223L26.8704 68.3602L26.952 68.5017L27.0255 68.647L27.0927 68.796L27.1531 68.9494L27.2059 69.1061L27.2516 69.2659L27.2884 69.4286L27.3186 69.595L27.3392 69.7637L27.3522 69.935L27.3573 70.1073H26.8723L26.8693 69.9578L26.8582 69.8111L26.8393 69.6669L26.8147 69.5252L26.7819 69.3853L26.7439 69.2481L26.6987 69.1142L26.6476 68.9834L26.5899 68.8553L26.5258 68.7309L26.4574 68.6102L26.3819 68.4937L26.3015 68.3796L26.2165 68.2709L26.1261 68.1658L26.0302 68.0657L25.9304 67.9707L25.8255 67.8799L25.7169 67.7937L25.6039 67.714L25.4874 67.6383L25.3658 67.5696L25.2424 67.5051L25.1142 67.4473L24.9832 67.3959L24.8491 67.3505L24.7116 67.3112L24.5722 67.2791L24.4293 67.2546L24.2844 67.2355L24.1373 67.2243L23.9871 67.2203Z" fill="#383838"/>
<path d="M23.0161 68.3936L23.2586 68.6361V71.5749H22.7736V68.6361L23.0161 68.3936ZM22.7736 68.6361V68.3936H23.0161L22.7736 68.6361ZM24.3014 68.8786H23.0161V68.3936H24.3014V68.8786ZM25.5806 69.4137H25.0957L25.096 69.3776L25.0936 69.3436L25.0906 69.3117L25.0867 69.28L25.0812 69.2514L25.0751 69.2237L25.0678 69.1986L25.0597 69.1753L25.0508 69.1543L25.0397 69.1327L25.0286 69.1134L25.0175 69.0964L25.0041 69.0787L24.9887 69.0614L24.9748 69.0475L24.9559 69.031L24.9376 69.016L24.9152 69.0006L24.8912 68.9865L24.8638 68.9722L24.8352 68.9592L24.8028 68.9468L24.767 68.935L24.7288 68.9238L24.6878 68.9142L24.6412 68.9043L24.593 68.897L24.5419 68.8902L24.4871 68.8853L24.4292 68.881L24.3668 68.8785L24.3014 68.8786V68.3936L24.3781 68.3955L24.4521 68.3981L24.5249 68.4024L24.5949 68.4092L24.663 68.4177L24.7285 68.4289L24.79 68.4408L24.8519 68.456L24.911 68.4729L24.9676 68.4923L25.0226 68.514L25.0761 68.5383L25.1261 68.5643L25.1746 68.5932L25.2199 68.624L25.2647 68.6579L25.3045 68.6932L25.3449 68.7336L25.3792 68.7738L25.4115 68.8161L25.4416 68.8616L25.4679 68.9074L25.4902 68.9536L25.5105 69.0029L25.5282 69.0526L25.5428 69.1026L25.5548 69.1529L25.5641 69.2043L25.5716 69.2549L25.5766 69.3077L25.5789 69.3607L25.5806 69.4137ZM24.4197 70.4599V69.975L24.4149 69.9759L24.4575 69.9743L24.4974 69.9714L24.5384 69.9682L24.5768 69.9636L24.6131 69.9579L24.6495 69.9516L24.684 69.944L24.7165 69.9349L24.7479 69.9255L24.7781 69.9154L24.8072 69.903L24.833 69.8919L24.8584 69.8791L24.8826 69.8649L24.9053 69.85L24.9245 69.8355L24.9452 69.8192L24.9624 69.8031L24.98 69.7854L24.9949 69.7669L25.0089 69.7475L25.0231 69.7273L25.0354 69.7045L25.0468 69.6815L25.0573 69.6557L25.0668 69.6272L25.0751 69.5987L25.0823 69.5662L25.0882 69.5318L25.093 69.4956L25.0956 69.4571L25.0957 69.4137H25.5806L25.5786 69.476L25.574 69.539L25.5675 69.6001L25.5577 69.659L25.5448 69.7161L25.5289 69.7731L25.51 69.8262L25.4883 69.8785L25.4636 69.9298L25.4361 69.9774L25.4066 70.0241L25.3737 70.0681L25.3379 70.1092L25.3014 70.1478L25.2617 70.1847L25.222 70.218L25.178 70.2497L25.1344 70.2778L25.0896 70.3034L25.0433 70.3275L24.9946 70.3498L24.9466 70.3681L24.8975 70.3856L24.8472 70.4009L24.7958 70.4137L24.7443 70.425L24.6927 70.4352L24.6392 70.4429L24.5858 70.4492L24.5333 70.4544L24.4784 70.4573L24.4244 70.4589L24.4197 70.4599ZM24.4244 70.4589L24.4197 70.4599H24.3784L24.4244 70.4589ZM23.0161 69.975H24.4197V70.4599H23.0161V69.975ZM25.0848 71.6742L24.2269 70.359L24.6323 70.0957L25.4901 71.4108L25.0848 71.6742Z" fill="#383838"/>
</svg>
