<svg width="161" height="75" viewBox="0 0 161 75" fill="none" xmlns="http://www.w3.org/2000/svg">
<path fill-rule="evenodd" clip-rule="evenodd" d="M160.5 73.7321L138.765 73.7318L138.765 53.0902L138.728 51.6031L138.616 50.1334L138.433 48.6847L138.177 47.2588L137.854 45.8593L137.465 44.4863L137.01 43.1413L136.491 41.8264L135.912 40.543L135.273 39.2953L134.576 38.0845L133.825 36.9092L133.019 35.7746L132.159 34.6825L131.25 33.631L130.293 32.6276L129.288 31.6683L128.237 30.7588L127.145 29.9007L126.011 29.0921L124.836 28.3405L123.626 27.6439L122.378 27.0041L121.095 26.4247L119.783 25.9056L118.438 25.4508L117.064 25.0616L115.665 24.7381L114.239 24.4823L112.791 24.2993L111.321 24.1875L109.834 24.1505L107.446 24.1467L107.446 0.65918L107.471 0.659672C136.831 0.659672 160.5 24.4728 160.5 53.8412V73.7321Z" fill="#B0B0B0"/>
<path fill-rule="evenodd" clip-rule="evenodd" d="M137.799 73.7318L120.025 73.7283L120.021 57.7436L120.011 57.3078L119.978 56.8755L119.925 56.4491L119.849 56.0292L119.753 55.6179L119.639 55.2122L119.506 54.8164L119.352 54.431L119.182 54.0524L118.993 53.6853L118.789 53.33L118.568 52.9834L118.331 52.6495L118.078 52.3289L117.81 52.0184L117.529 51.7225L117.233 51.4412L116.922 51.1736L116.602 50.9198L116.268 50.6827L115.921 50.4623L115.565 50.2574L115.198 50.0686L114.82 49.8982L114.434 49.7447L114.036 49.611L113.631 49.4969L113.22 49.4014L112.799 49.3251L112.372 49.2721L111.939 49.2392L111.503 49.2287L107.446 49.242L107.446 25.1131L109.834 25.1189L111.276 25.1539L112.696 25.262L114.095 25.4411L115.471 25.6856L116.825 25.9978L118.15 26.3755L119.449 26.8153L120.72 27.3155L121.957 27.8757L123.163 28.4929L124.336 29.1666L125.469 29.8956L126.565 30.6738L127.623 31.5053L128.636 32.3846L129.607 33.3098L130.534 34.283L131.413 35.2964L132.242 36.3544L133.022 37.4511L133.75 38.5849L134.424 39.7576L135.041 40.9638L135.601 42.2015L136.101 43.471L136.54 44.7705L136.918 46.098L137.23 47.4521L137.474 48.8287L137.653 50.2282L137.761 51.6486L137.798 53.0902L137.799 73.7318Z" fill="#B0B0B0"/>
<path fill-rule="evenodd" clip-rule="evenodd" d="M107.446 73.7283L107.446 50.2084L111.503 50.1952L111.894 50.2056L112.278 50.2348L112.655 50.284L113.026 50.3489L113.393 50.4331L113.751 50.5356L114.1 50.6544L114.444 50.7889L114.777 50.9402L115.103 51.1064L115.421 51.2885L115.726 51.4862L116.022 51.6969L116.308 51.9202L116.581 52.1576L116.843 52.4084L117.093 52.6704L117.331 52.9428L117.554 53.2293L117.765 53.5253L117.962 53.8304L118.144 54.1477L118.31 54.4732L118.462 54.8062L118.596 55.15L118.715 55.5004L118.817 55.8567L118.901 56.2225L118.966 56.5931L119.015 56.9703L119.044 57.3533L119.053 57.7436L119.059 73.7283L107.446 73.7283Z" fill="#B0B0B0"/>
<path fill-rule="evenodd" clip-rule="evenodd" d="M58.6424 23.5532H53.8717V4.75468H46.9653V0.716296H65.5487V4.75468H58.6424V23.5532Z" fill="#B0B0B0"/>
<path fill-rule="evenodd" clip-rule="evenodd" d="M71.5584 13.3091V23.5532H66.7876V0.716296H71.5584V9.37146H80.4587V0.716296H85.2333V23.5532H80.4587V13.3091H71.5584Z" fill="#B0B0B0"/>
<path fill-rule="evenodd" clip-rule="evenodd" d="M104.324 4.75468H92.3223V9.55915H102.891V13.5975H92.3223V19.5147H104.351V23.5532H87.878V0.716296H104.324V4.75468Z" fill="#B0B0B0"/>
<path fill-rule="evenodd" clip-rule="evenodd" d="M14.6522 25.8096H19.1125V48.6448H14.3378L5.01988 32.3619H4.95207V48.6448H0.5V25.8096H5.52126L14.5883 41.7111H14.6522V25.8096Z" fill="#B0B0B0"/>
<path fill-rule="evenodd" clip-rule="evenodd" d="M32.4264 45.2106C35.001 45.2106 38.622 43.6202 38.622 37.227C38.622 30.8375 35.0005 29.241 32.4264 29.241C29.8517 29.241 26.2185 30.8375 26.2185 37.227C26.2191 43.6202 29.8517 45.2112 32.4264 45.2106ZM32.4264 25.2031C35.4458 25.2031 43.3922 26.509 43.3922 37.227C43.3929 47.9431 35.4452 49.2496 32.4264 49.2496C29.3993 49.2496 21.4478 47.9431 21.4478 37.227C21.4483 26.509 29.3993 25.2031 32.4264 25.2031Z" fill="#B0B0B0"/>
<path fill-rule="evenodd" clip-rule="evenodd" d="M77.2592 48.6448H72.4846V29.8458H65.5822V25.8096H84.1534V29.8458H77.2592V48.6448Z" fill="#B0B0B0"/>
<path fill-rule="evenodd" clip-rule="evenodd" d="M90.637 38.408V48.6448H85.8701V25.8096H90.637V34.457H99.5411V25.8096H104.324V48.6448H99.5411V38.408H90.637Z" fill="#B0B0B0"/>
<path fill-rule="evenodd" clip-rule="evenodd" d="M36.2262 73.7357H31.4554V50.899H47.7051V54.9413H36.2262V60.093H46.2802V64.1353H36.2262V73.7357Z" fill="#B0B0B0"/>
<path fill-rule="evenodd" clip-rule="evenodd" d="M52.7418 65.086H58.5549L55.7265 56.0523H55.666L52.7418 65.086ZM49.8737 73.7358H44.8487L52.996 50.8988H58.4988L66.5411 73.7358H61.3531L59.8907 69.0281H51.4682L49.8737 73.7358Z" fill="#B0B0B0"/>
<path fill-rule="evenodd" clip-rule="evenodd" d="M81.1946 58.3746C80.8203 57.0076 80.08 54.4309 76.1327 54.4309C73.8452 54.4309 70.4708 55.9571 70.4708 62.4114C70.4708 66.5175 72.0939 70.2092 76.1327 70.2092C78.7795 70.2092 80.6216 68.7112 81.1946 65.9149H85.9615C85.0099 70.8746 81.7708 74.3406 76.0413 74.3406C69.9661 74.3406 65.6048 70.2432 65.6048 62.3503C65.6048 54.3682 70.2166 50.2956 76.109 50.2956C82.9459 50.2956 85.7066 55.0055 85.961 58.3746H81.1946Z" fill="#B0B0B0"/>
<path fill-rule="evenodd" clip-rule="evenodd" d="M104.324 54.9413H92.3223V59.7392H102.891V63.7803H92.3223V69.697H104.351V73.7357H87.878V50.899H104.324V54.9413Z" fill="#B0B0B0"/>
<path fill-rule="evenodd" clip-rule="evenodd" d="M55.9884 35.8279C58.4642 35.8279 59.6695 34.9689 59.6695 32.7147C59.6695 31.5127 59.1279 29.7362 56.3358 29.7362H50.402V35.8279H55.9884ZM45.7325 25.798H57.2582C63.318 25.798 64.4242 30.2706 64.4242 32.2446C64.4248 34.747 63.1545 36.9066 60.9023 37.6688C62.7765 38.4938 63.7952 39.1894 63.7952 43.4419C63.7957 46.7753 63.7952 47.5996 64.809 47.9828L64.8095 48.582H59.5335C59.2192 47.5051 59.0326 46.3279 59.0326 43.9823C59.0326 40.8729 58.846 39.6655 55.3164 39.6655H50.402V48.582H45.7325V25.798Z" fill="#B0B0B0"/>
<path d="M21.6011 70.6073H21.1161L21.1212 70.435L21.1343 70.2637L21.1551 70.095L21.1854 69.9286L21.2233 69.7659L21.2683 69.6061L21.3214 69.4494L21.3821 69.296L21.4495 69.147L21.5243 69.0007L21.6054 68.8602L21.6923 68.723L21.7863 68.5907L21.8868 68.464L21.9928 68.3411L22.1039 68.2239L22.2211 68.1127L22.3432 68.0067L22.4708 67.9064L22.603 67.8125L22.7403 67.7253L22.8808 67.6434L23.0271 67.5696L23.1761 67.5021L23.3294 67.4415L23.4863 67.3884L23.6459 67.3435L23.8087 67.3058L23.9749 67.2753L24.1436 67.2545L24.3147 67.2414L24.4871 67.2373V67.7203L24.3376 67.7243L24.1911 67.7355L24.0468 67.7546L23.9052 67.7791L23.7653 67.8112L23.6282 67.8505L23.4942 67.8959L23.3635 67.9473L23.2354 68.0051L23.112 68.0696L22.9904 68.1383L22.874 68.214L22.7607 68.2945L22.652 68.3799L22.5469 68.4707L22.4469 68.5666L22.3507 68.6668L22.2599 68.7709L22.1747 68.8805L22.094 68.9937L22.0183 69.1102L21.9486 69.2318L21.8851 69.3553L21.8272 69.4834L21.7759 69.6142L21.7304 69.7481L21.691 69.8853L21.659 70.0252L21.6344 70.1669L21.6153 70.3111L21.6041 70.4578L21.6011 70.6073ZM24.4863 73.4929V73.9778L24.3141 73.9728L24.143 73.9598L23.9744 73.939L23.8082 73.9087L23.6454 73.871L23.4848 73.826L23.3292 73.7732L23.1757 73.7127L23.0269 73.6452L22.8806 73.5716L22.7401 73.4898L22.6027 73.4027L22.4707 73.3082L22.3441 73.2088L22.221 73.1029L22.1048 72.9918L21.9927 72.8748L21.8868 72.7519L21.7872 72.6252L21.6923 72.4931L21.6052 72.3559L21.5233 72.2154L21.4495 72.0691L21.3821 71.9201L21.3214 71.7667L21.2683 71.6097L21.2233 71.4499L21.1854 71.286L21.1551 71.1205L21.1343 70.9513L21.1212 70.78L21.1161 70.6073H21.6011L21.6041 70.7571L21.6153 70.9039L21.6344 71.0485L21.659 71.1915L21.691 71.3305L21.7304 71.4677L21.7759 71.6018L21.8272 71.7326L21.8851 71.8607L21.9495 71.9842L22.0182 72.1058L22.094 72.2224L22.1736 72.3354L22.2599 72.445L22.3506 72.5491L22.4458 72.6491L22.5467 72.745L22.6509 72.8356L22.7606 72.9218L22.8737 73.0013L22.9902 73.0769L23.1118 73.1454L23.2352 73.2097L23.3632 73.2675L23.494 73.3187L23.6287 73.3639L23.7648 73.4033L23.9047 73.4353L24.0464 73.4597L24.1904 73.4788L24.337 73.4898L24.4863 73.4929ZM27.3723 70.6073H27.8573L27.8522 70.78L27.8392 70.9513L27.8186 71.1205L27.7884 71.286L27.7518 71.4499L27.7059 71.6097L27.6531 71.7667L27.5937 71.9201L27.5256 72.0691L27.452 72.2154L27.3704 72.3559L27.2837 72.4922L27.1901 72.6252L27.0898 72.7519L26.9841 72.8748L26.8733 72.9918L26.7562 73.1029L26.6344 73.2088L26.5069 73.3082L26.3748 73.4027L26.2375 73.4898L26.097 73.5716L25.9506 73.6452L25.8015 73.7127L25.6479 73.7732L25.4908 73.826L25.3308 73.871L25.1668 73.9087L25.0007 73.939L24.8314 73.9598L24.6595 73.9728L24.4863 73.9778V73.4929L24.6367 73.4898L24.7839 73.4788L24.9288 73.4597L25.072 73.4353L25.2114 73.4033L25.3488 73.3639L25.4831 73.3187L25.614 73.2675L25.7423 73.2097L25.8658 73.1454L25.9874 73.0769L26.1039 73.0013L26.217 72.9218L26.3256 72.8356L26.4305 72.745L26.5303 72.6491L26.6261 72.5491L26.7167 72.445L26.8017 72.3354L26.882 72.2232L26.9574 72.1058L27.0258 71.9842L27.0901 71.8607L27.1466 71.7326L27.1987 71.6018L27.2439 71.4677L27.2821 71.3305L27.3147 71.1915L27.3393 71.0485L27.3582 70.9039L27.3693 70.7571L27.3723 70.6073ZM24.4871 67.7203V67.2373L24.6601 67.2414L24.8319 67.2545L25.0012 67.2753L25.1671 67.3058L25.331 67.3435L25.4911 67.3884L25.6481 67.4415L25.8016 67.5021L25.9507 67.5696L26.097 67.6434L26.2375 67.7253L26.3748 67.8125L26.5068 67.9072L26.6342 68.0067L26.7561 68.1127L26.8732 68.2248L26.9841 68.3421L27.0897 68.464L27.1899 68.5916L27.2835 68.723L27.3704 68.8602L27.452 69.0017L27.5255 69.147L27.5927 69.296L27.6531 69.4494L27.7059 69.6061L27.7516 69.7659L27.7884 69.9286L27.8186 70.095L27.8392 70.2637L27.8522 70.435L27.8573 70.6073H27.3723L27.3693 70.4578L27.3582 70.3111L27.3393 70.1669L27.3147 70.0252L27.2819 69.8853L27.2439 69.7481L27.1987 69.6142L27.1476 69.4834L27.0899 69.3553L27.0258 69.2309L26.9574 69.1102L26.8819 68.9937L26.8015 68.8796L26.7165 68.7709L26.6261 68.6658L26.5302 68.5657L26.4304 68.4707L26.3255 68.3799L26.2169 68.2937L26.1039 68.214L25.9874 68.1383L25.8658 68.0696L25.7424 68.0051L25.6142 67.9473L25.4832 67.8959L25.3491 67.8505L25.2116 67.8112L25.0722 67.7791L24.9293 67.7546L24.7844 67.7355L24.6373 67.7243L24.4871 67.7203Z" fill="#B0B0B0"/>
<path d="M23.5161 68.8936L23.7586 69.1361V72.0749H23.2736V69.1361L23.5161 68.8936ZM23.2736 69.1361V68.8936H23.5161L23.2736 69.1361ZM24.8014 69.3786H23.5161V68.8936H24.8014V69.3786ZM26.0806 69.9137H25.5957L25.596 69.8776L25.5936 69.8436L25.5906 69.8117L25.5867 69.78L25.5812 69.7514L25.5751 69.7237L25.5678 69.6986L25.5597 69.6753L25.5508 69.6543L25.5397 69.6327L25.5286 69.6134L25.5175 69.5964L25.5041 69.5787L25.4887 69.5614L25.4748 69.5475L25.4559 69.531L25.4376 69.516L25.4152 69.5006L25.3912 69.4865L25.3638 69.4722L25.3352 69.4592L25.3028 69.4468L25.267 69.435L25.2288 69.4238L25.1878 69.4142L25.1412 69.4043L25.093 69.397L25.0419 69.3902L24.9871 69.3853L24.9292 69.381L24.8668 69.3785L24.8014 69.3786V68.8936L24.8781 68.8955L24.9521 68.8981L25.0249 68.9024L25.0949 68.9092L25.163 68.9177L25.2285 68.9289L25.29 68.9408L25.3519 68.956L25.411 68.9729L25.4676 68.9923L25.5226 69.014L25.5761 69.0383L25.6261 69.0643L25.6746 69.0932L25.7199 69.124L25.7647 69.1579L25.8045 69.1932L25.8449 69.2336L25.8792 69.2738L25.9115 69.3161L25.9416 69.3616L25.9679 69.4074L25.9902 69.4536L26.0105 69.5029L26.0282 69.5526L26.0428 69.6026L26.0548 69.6529L26.0641 69.7043L26.0716 69.7549L26.0766 69.8077L26.0789 69.8607L26.0806 69.9137ZM24.9197 70.9599V70.475L24.9149 70.4759L24.9575 70.4743L24.9974 70.4714L25.0384 70.4682L25.0768 70.4636L25.1131 70.4579L25.1495 70.4516L25.184 70.444L25.2165 70.4349L25.2479 70.4255L25.2781 70.4154L25.3072 70.403L25.333 70.3919L25.3584 70.3791L25.3826 70.3649L25.4053 70.35L25.4245 70.3355L25.4452 70.3192L25.4624 70.3031L25.48 70.2854L25.4949 70.2669L25.5089 70.2475L25.5231 70.2273L25.5354 70.2045L25.5468 70.1815L25.5573 70.1557L25.5668 70.1272L25.5751 70.0987L25.5823 70.0662L25.5882 70.0318L25.593 69.9956L25.5956 69.9571L25.5957 69.9137H26.0806L26.0786 69.976L26.074 70.039L26.0675 70.1001L26.0577 70.159L26.0448 70.2161L26.0289 70.2731L26.01 70.3262L25.9883 70.3785L25.9636 70.4298L25.9361 70.4774L25.9066 70.5241L25.8737 70.5681L25.8379 70.6092L25.8014 70.6478L25.7617 70.6847L25.722 70.718L25.678 70.7497L25.6344 70.7778L25.5896 70.8034L25.5433 70.8275L25.4946 70.8498L25.4466 70.8681L25.3975 70.8856L25.3472 70.9009L25.2958 70.9137L25.2443 70.925L25.1927 70.9352L25.1392 70.9429L25.0858 70.9492L25.0333 70.9544L24.9784 70.9573L24.9244 70.9589L24.9197 70.9599ZM24.9244 70.9589L24.9197 70.9599H24.8784L24.9244 70.9589ZM23.5161 70.475H24.9197V70.9599H23.5161V70.475ZM25.5848 72.1742L24.7269 70.859L25.1323 70.5957L25.9901 71.9108L25.5848 72.1742Z" fill="#B0B0B0"/>
</svg>
