<svg width="88" height="88" viewBox="0 0 88 88" fill="none" xmlns="http://www.w3.org/2000/svg">
<g clip-path="url(#clip0_228_65234)">
<path d="M43.9477 83.6929C65.7492 83.6929 83.6107 65.7439 83.6107 43.9423C83.6107 39.0391 82.7352 34.3986 81.0716 30.0208L57.8691 76.6884C57.6065 77.3013 57.1687 77.8266 56.4682 77.8266C55.7678 77.8266 55.33 77.3013 55.0673 76.6884L44.3854 52.7855C44.2979 52.5228 44.1228 52.2602 43.8601 52.2602C43.5974 52.2602 43.5099 52.5228 43.3348 52.7855L32.6529 76.6884C32.3902 77.3013 31.9524 77.8266 31.252 77.8266C30.5515 77.8266 30.1137 77.3013 29.8511 76.6884L6.64861 30.0208C4.98503 34.3986 4.10947 39.0391 4.10947 43.9423C4.28458 65.7439 22.1461 83.6929 43.9477 83.6929ZM43.9477 34.924C44.2103 34.924 44.2979 34.6613 44.473 34.3986L56.906 6.38057C52.8784 4.89211 48.5006 4.1041 43.9477 4.1041C39.3947 4.1041 35.0169 4.89211 30.9893 6.38057L43.4223 34.3986C43.5974 34.7489 43.685 34.924 43.9477 34.924ZM56.6433 63.7301C56.906 63.7301 56.9936 63.4674 57.1687 63.2047L77.3067 22.5785C73.7169 17.0625 68.9013 12.422 63.035 9.18238L48.5006 41.4907C48.3255 42.016 47.8877 42.1912 47.4499 42.1912H40.4454C39.9201 42.1912 39.5698 42.1036 39.3072 41.4907L24.7728 9.18238C18.9941 12.422 14.0909 17.0625 10.5011 22.5785L30.8142 63.2047C30.9017 63.4674 31.0769 63.7301 31.3395 63.7301C31.6022 63.7301 31.6898 63.4674 31.8649 63.2047L39.4823 45.8685C39.745 45.2556 40.0952 45.1681 40.6205 45.1681H47.625C48.1504 45.1681 48.5006 45.2556 48.7633 45.8685L56.118 63.2047C56.2056 63.4674 56.3807 63.7301 56.6433 63.7301ZM43.9477 87.7205C19.6945 87.7205 0.169428 68.1954 0.169428 43.9423C0.169428 19.6892 19.6945 0.164062 43.9477 0.164062C68.2008 0.164062 87.7259 19.6892 87.7259 43.9423C87.7259 68.1954 68.2008 87.7205 43.9477 87.7205Z" fill="#383838"/>
</g>
<defs>
<clipPath id="clip0_228_65234">
<rect width="88" height="88" fill="white" transform="matrix(-1 0 0 1 88 0)"/>
</clipPath>
</defs>
</svg>
