<svg width="89" height="89" viewBox="0 0 89 89" fill="none" xmlns="http://www.w3.org/2000/svg">
<g clip-path="url(#clip0_228_65430)">
<path d="M44.4477 84.1929C66.2492 84.1929 84.1107 66.2439 84.1107 44.4423C84.1107 39.5391 83.2352 34.8986 81.5716 30.5208L58.3691 77.1884C58.1065 77.8013 57.6687 78.3266 56.9682 78.3266C56.2678 78.3266 55.83 77.8013 55.5673 77.1884L44.8854 53.2855C44.7979 53.0228 44.6228 52.7602 44.3601 52.7602C44.0974 52.7602 44.0099 53.0228 43.8348 53.2855L33.1529 77.1884C32.8902 77.8013 32.4524 78.3266 31.752 78.3266C31.0515 78.3266 30.6137 77.8013 30.3511 77.1884L7.14861 30.5208C5.48503 34.8986 4.60947 39.5391 4.60947 44.4423C4.78458 66.2439 22.6461 84.1929 44.4477 84.1929ZM44.4477 35.424C44.7103 35.424 44.7979 35.1613 44.973 34.8986L57.406 6.88057C53.3784 5.39211 49.0006 4.6041 44.4477 4.6041C39.8947 4.6041 35.5169 5.39211 31.4893 6.88057L43.9223 34.8986C44.0974 35.2489 44.185 35.424 44.4477 35.424ZM57.1433 64.2301C57.406 64.2301 57.4936 63.9674 57.6687 63.7047L77.8067 23.0785C74.2169 17.5625 69.4013 12.922 63.535 9.68238L49.0006 41.9907C48.8255 42.516 48.3877 42.6912 47.9499 42.6912H40.9454C40.4201 42.6912 40.0698 42.6036 39.8072 41.9907L25.2728 9.68238C19.4941 12.922 14.5909 17.5625 11.0011 23.0785L31.3142 63.7047C31.4017 63.9674 31.5769 64.2301 31.8395 64.2301C32.1022 64.2301 32.1898 63.9674 32.3649 63.7047L39.9823 46.3685C40.245 45.7556 40.5952 45.6681 41.1205 45.6681H48.125C48.6504 45.6681 49.0006 45.7556 49.2633 46.3685L56.618 63.7047C56.7056 63.9674 56.8807 64.2301 57.1433 64.2301ZM44.4477 88.2205C20.1945 88.2205 0.669428 68.6954 0.669428 44.4423C0.669428 20.1892 20.1945 0.664062 44.4477 0.664062C68.7008 0.664062 88.2259 20.1892 88.2259 44.4423C88.2259 68.6954 68.7008 88.2205 44.4477 88.2205Z" fill="#B0B0B0"/>
</g>
<defs>
<clipPath id="clip0_228_65430">
<rect width="88" height="88" fill="white" transform="matrix(-1 0 0 1 88.5 0.5)"/>
</clipPath>
</defs>
</svg>
