<svg xmlns="http://www.w3.org/2000/svg" viewBox="0 0 46 38"><g id="Layer_2" data-name="Layer 2"><g id="Layer_1-2" data-name="Layer 1"><path d="M42.77,17.83a2.2,2.2,0,0,1-.24-2.63A9.91,9.91,0,0,0,44,9,10.21,10.21,0,0,0,33.7,0H10.79A1.79,1.79,0,0,0,9,1.79V4.21A1.79,1.79,0,0,0,10.79,6H17a3,3,0,0,1,3,3V24.76a7.16,7.16,0,0,1-6.08,7.18A7,7,0,0,1,6,25V22.79A1.79,1.79,0,0,0,4.21,21H1.79A1.79,1.79,0,0,0,0,22.79v1.83A13.25,13.25,0,0,0,12.35,38,13,13,0,0,0,26,25V22.61A2.61,2.61,0,0,1,28.61,20h5.18a6.13,6.13,0,0,1,6.07,4.68A6,6,0,0,1,34,32H31.51a1.29,1.29,0,0,0-1.18.78,18.74,18.74,0,0,1-2,3.39A1.15,1.15,0,0,0,29.29,38h4.36A12.24,12.24,0,0,0,46,27.07,11.92,11.92,0,0,0,42.77,17.83ZM34,14H28.61A2.61,2.61,0,0,1,26,11.39V9a3,3,0,0,1,3-3h4.82A4.12,4.12,0,0,1,38,9.6,4,4,0,0,1,34,14Z"/></g></g></svg>