<svg xmlns="http://www.w3.org/2000/svg" viewBox="0 0 44 36"><g id="Layer_2" data-name="Layer 2"><g id="Layer_1-2" data-name="Layer 1"><path d="M40,16.52a1.18,1.18,0,0,1-.14-1.7A8.89,8.89,0,0,0,41.94,8,8.76,8.76,0,0,0,39,2.39a9.05,9.05,0,0,0-1.66-1.17A9.45,9.45,0,0,0,32.73,0H11.19A1.19,1.19,0,0,0,10,1.19V2.81A1.19,1.19,0,0,0,11.19,4h7.08A1.72,1.72,0,0,1,20,5.73v18A8.18,8.18,0,0,1,12.55,32a8,8,0,0,1-2.81-.31,7.54,7.54,0,0,1-2-.88A8,8,0,0,1,4,24V20.92A.92.92,0,0,0,3.08,20H.92a.92.92,0,0,0-.92.92v2.73A12.36,12.36,0,0,0,6.68,34.74,11.45,11.45,0,0,0,10.84,36,12,12,0,0,0,24,24V19.63a1.53,1.53,0,0,1,.23-.82,1.61,1.61,0,0,1,1.4-.81h7.13a7.16,7.16,0,0,1,7.18,6.08,7,7,0,0,1-3.46,7,6.66,6.66,0,0,1-2,.79A6.9,6.9,0,0,1,33,32H26.25a.71.71,0,0,0-.61.35A14.61,14.61,0,0,1,23.56,35,.57.57,0,0,0,24,36h8.74a11.56,11.56,0,0,0,4.83-1.06,11.08,11.08,0,0,0,1.8-1,10.79,10.79,0,0,0,4.62-7.79A11,11,0,0,0,40,16.52ZM33,14H25.63a1.53,1.53,0,0,1-.82-.23,1.61,1.61,0,0,1-.81-1.4V5.73A1.72,1.72,0,0,1,25.73,4h7.05a5.15,5.15,0,0,1,1.57.24,5.42,5.42,0,0,1,1.85,1A4.85,4.85,0,0,1,38,8.51,5,5,0,0,1,33,14Z"/></g></g></svg>